<svg width="50" height="51" viewBox="0 0 50 51" fill="none" xmlns="http://www.w3.org/2000/svg">
<path d="M24.9998 46.5641C36.5058 46.5641 45.8332 37.2367 45.8332 25.7308C45.8332 14.2249 36.5058 4.89746 24.9998 4.89746C13.4939 4.89746 4.1665 14.2249 4.1665 25.7308C4.1665 37.2367 13.4939 46.5641 24.9998 46.5641Z" fill="#513481"/>
<path d="M24.9998 43.3141C34.7108 43.3141 42.5832 35.4418 42.5832 25.7308C42.5832 16.0198 34.7108 8.14746 24.9998 8.14746C15.2888 8.14746 7.4165 16.0198 7.4165 25.7308C7.4165 35.4418 15.2888 43.3141 24.9998 43.3141Z" fill="#77609D"/>
<path d="M38.2128 14.1289L11.7915 37.3373C9.06465 34.2401 7.4165 30.1799 7.4165 25.7308C7.4165 16.0225 15.2915 8.14746 24.9998 8.14746C30.2637 8.14746 34.9906 10.4623 38.2128 14.1289Z" fill="#8672A8"/>
<path d="M19.523 17.5549L26.3656 16.1707C27.0276 16.0364 27.648 16.541 27.648 17.217V33.8975C27.648 34.4901 27.1711 34.967 26.5785 34.967H24.3609C23.7684 34.967 23.2915 34.4901 23.2915 33.8975V20.504L19.9952 21.3234C19.3193 21.4901 18.6665 20.9808 18.6665 20.2864V18.6012C18.6665 18.092 19.023 17.6521 19.523 17.5549Z" fill="#FFEFBB"/>
</svg>
