<svg width="50" height="51" viewBox="0 0 50 51" fill="none" xmlns="http://www.w3.org/2000/svg">
<path d="M25.0001 46.5641C36.506 46.5641 45.8334 37.2367 45.8334 25.7308C45.8334 14.2249 36.506 4.89746 25.0001 4.89746C13.4941 4.89746 4.16675 14.2249 4.16675 25.7308C4.16675 37.2367 13.4941 46.5641 25.0001 46.5641Z" fill="#513481"/>
<path d="M25.0001 43.3141C34.7111 43.3141 42.5834 35.4418 42.5834 25.7308C42.5834 16.0198 34.7111 8.14746 25.0001 8.14746C15.2891 8.14746 7.41675 16.0198 7.41675 25.7308C7.41675 35.4418 15.2891 43.3141 25.0001 43.3141Z" fill="#77609D"/>
<path d="M38.213 14.1289L11.7917 37.3373C9.0649 34.2401 7.41675 30.1799 7.41675 25.7308C7.41675 16.0225 15.2917 8.14746 25.0001 8.14746C30.264 8.14746 34.9908 10.4623 38.213 14.1289Z" fill="#8672A8"/>
<path d="M24.6946 25.0594C25.1946 24.5085 25.6251 24.0085 25.9909 23.5641C26.3566 23.1196 26.6298 22.6798 26.8196 22.24C27.0094 21.8048 27.102 21.3372 27.102 20.8372C27.102 20.5548 27.0511 20.2678 26.9446 19.9807C26.8381 19.6937 26.6761 19.4437 26.4631 19.2215C26.2501 18.9993 25.9816 18.8187 25.6622 18.6891C25.3427 18.5594 24.9677 18.49 24.5418 18.49C23.9724 18.49 23.4677 18.6335 23.0325 18.9159C22.5974 19.1983 22.2687 19.6011 22.0464 20.1196C21.9307 20.3881 21.8474 20.6752 21.7918 20.9807C21.6992 21.5085 21.2687 21.9067 20.7363 21.9067H18.4307C17.7872 21.9067 17.2779 21.3372 17.3613 20.6983C17.4816 19.828 17.727 19.0131 18.1113 18.2493C18.6622 17.1474 19.4955 16.2631 20.6066 15.6057C21.7177 14.9483 23.0788 14.6196 24.6807 14.6196C25.8381 14.6196 26.8612 14.7909 27.7501 15.1381C28.639 15.4854 29.3844 15.9483 29.977 16.527C30.5742 17.1057 31.0233 17.74 31.3242 18.4344C31.6251 19.1289 31.7779 19.8326 31.7779 20.5456C31.7779 21.5594 31.5279 22.49 31.0279 23.3372C30.5279 24.1844 29.8798 24.953 29.0788 25.6474L24.727 29.5456H31.1344C31.7224 29.5456 32.2038 30.0224 32.2038 30.615V32.6196C32.2038 33.2076 31.727 33.6891 31.1344 33.6891H18.8844C17.94 33.6891 17.4631 32.5548 18.1159 31.8789L24.6992 25.0641L24.6946 25.0594Z" fill="#FFEFBB"/>
</svg>
