<svg width="256" height="307" fill="none" xmlns="http://www.w3.org/2000/svg">
    <path d="m126.237 183.363-10.963-.06-1.31.516-1.066-.091-1.553.578-.335.82 1.827 2.644.731 2.826 1.097 4.072-1.158 1.671-.182.851.883 2.523.944 2.552 1.096 1.52.183 2.37-.426 3.13-1.219 1.854-2.162 2.765-.883 1.702-1.249 3.798-.243 1.793-1.31 3.86-.579 3.707.305 2.644 1.797-.821 2.193-.699 2.375.122 2.162 1.914.579-.304 14.862-.182 2.497 2.006 8.863.608 6.822-1.733-2.315-2.613-2.375-3.434.487-13.371 7.705.031-.305-1.429.61-1.58-.61-1.975.457-2.036-.365-1.307-1.675-.243-2.315.608-1.614-.091-.914.395.275-5.014-1.188-1.55-.244-2.583.579-2.553-.731-1.611-.031-2.643-4.507.03.335-1.519-1.888.03-.213.729-2.315.152-.944 2.462-.579 1.033-2.04-.577-1.218.577-2.467.334-1.401-2.188-.822-1.367-1.066-2.522-.884-3.131Zm-14.435-.82.122-1.823.609-1.064 1.37-.881-1.401-1.459-1.127.699-1.522 1.823 1.005 3.161.944-.456ZM179.91 170.464l-.199-1.608-2.162-.268-1.263 2.353-2.461-.328.998 1.877.033.715 1.43 3.932v.179l.399-.059 1.496-1.49 1.629-2.145.998-.864-.033-1.34-.865-.954ZM78.902 109.89l-2.647-2.402-1.224.03-1.167 1.201-.74 1.261-1.708.361-.712 1.831-1.167.481-.455 2.162 1.053 1.231 1.224 1.471.114 2.042.712.841-.143 9.548.854 2.853 2.875-.481.17-6.696-.085-2.642.655-2.612 1.053-1.292 1.68-2.552-.37-1.111.682-1.681-.797-2.463.143-1.381Z" fill="#492B7C" stroke="#4FA58C" stroke-linejoin="round" />
    <path d="M67.537 96.043H65.12l-.93-.775-2.074.567-3.5 1.73-.712 1.282-2.912 1.849-.526 1.073-1.58.835-1.796-.566-1.053 1.013-.558 2.834-3.004 3.399.093 1.402-1.053 1.759.247 2.386 1.704.895.65 1.371 1.673.865 1.332-1.014 1.765-.179 2.57 1.074-.495-3.101.093-2.356 6.535-.179 1.673.298 1.208-.656 1.734.328 3.314.089 1.27-.477.774-1.819 1.859-.358.805-1.252.093-2.833-4.336-.925-.124-1.998-2.137-2.684-.496-1.879.31-1.998ZM158.569 233.482l-.667-.303-2.089.939h-1.09l-2.392 1.635-1.333-1.726-5.662 1.484-2.725.121-.576 14.932-3.573.152-.424 12.236.969.606 1.968 3.998-.454 2.544.757 1.484 2.574-.424 1.877-1.878 1.757-1.272.969-1.999 1.817-.969 1.483.515 1.666 1.181 2.907.182 2.362-.969.424-1.303.726-1.999 1.969-.333 1.181-1.575 1.332-2.817 3.392-3.119 5.238-3.09-2.21-1.878-2.786-.636-.939-2.665.061-1.484-1.545-.455-3.936-4.603-1.06-2.423-.697-.727-1.271-3.362ZM154.556 122.528l-.305-.214-1.279-1.224-.274-1.315.578-1.744-.03-1.743-2.193-2.631-.457-1.805-2.346.704-1.828 1.713-2.619 4.619-3.442 1.957-3.595-.244-1.035.367.365 1.499-1.919 1.468-1.553 1.652-4.661 1.621-.914-.948-.64-.092-.67 1.101-3.046.306-1.858 4.282-.883.796-.244 3.273.366 1.774-.275 1.254 1.767 2.233.305 1.499 1.401 2.202 1.706 1.346.183 1.927.396 1.224 1.919-3.915 2.223-2.264 2.498.734 2.407.214.304-2.936 1.432-2.172 1.98-1.346 3.076 1.438 2.376 1.56 2.742.428 2.772.826 1.096-2.57.488-.336 1.706.428 4.112-2.111 1.493.918 1.187-.153.549-1.009 1.371-.367 2.802.428 2.406.122 1.219-.459-.609-1.345-2.803-1.683-.975-2.539-1.584-1.835-2.528-2.202-.03-1.377-2.072-1.682-2.558-1.652Z" fill="#492B7C" stroke="#4FA58C" stroke-linejoin="round" />
    <path d="m45.774 115.113-1.48.643-.859.52-.533-1.805-1.036.489-.622-.092-.68 1.224-2.784-.03-.977-.643-.474.398-.74.336-.296 1.438.83 1.744.887 3.395-1.362.49-.325.581.266.826-.237 1.866h-.562l-.178 1.224.355 2.049-.799 1.866 1.066 1.163 1.125.275 1.54 1.774.088 1.683-.325.52-.296 3.487.68.122 3.583-1.56 2.517-1.223 4.293-.735 2.31-.061 2.516.826 1.658-.03.148-1.683-1.54-3.64.948-4.772 1.51-3.549-.947-6.026-2.458-1.101-1.687.183-1.273 1.04-1.6-.887-.621-1.407-1.629-.918ZM121.477 113.04l.121-2.763-.304-2.734-1.487-2.674-1.033.241-.121 1.321 1.488 1.653-.395.751-.152 1.381-3.097 3.215-.941 2.643-.485 2.163-.79.931-.728 2.914-1.944 1.712-.576 2.103-.82 1.682-.334 1.713-2.52 1.412-2.095-1.713-1.396.06-2.186 2.434-1.093.03-1.73 4.025-.942 2.944-.03 1.141.94.601.76 1.863 1.7.691 1.457 2.763-.546 3.275 6.042.09 1.76-.271 2.247.571 2.216-.541.456.211 4.675.18 3.006 1.081 2.945.992.273-2.253-.395-1.202-.182-1.893-1.7-1.321-1.397-2.163-.303-1.472-1.761-2.193.273-1.232-.364-1.742.243-3.214.88-.781 1.852-4.206.547-1.111-1.184-2.884-.547-1.712-1.609-.691-2.186-2.433.759-1.953 1.7.391 1.033-.271 2.064.03-2.064-3.785ZM163.807 136.722l-2.801-.43-1.37.368-.548 1.012-1.188.154-1.492-.92-4.11 2.116-1.705-.429-.487.337-1.097 2.577-2.77-.828-2.741-.43-2.375-1.564-3.075-1.442-1.979 1.35-1.431 2.178-.305 2.944-.213 2.577-1.096 2.27-.731 2.638-.456 3.773.213 2.392-.609 1.473-.092 1.564-.426 1.35-2.466 2.055-1.705 2.178-1.614 4.11.091 3.497-.944 1.35-2.192 2.085-2.192 2.669-1.37-.767-.244-1.196-2.009-.031-1.279 1.626-.975-.429-1.37.889-.609 1.074-.122 1.84-.944.46.488 1.319 1.553-.582 1.065.092 1.31-.522 10.961.061.883 3.16 1.066 2.546.822 1.38 1.4 2.209 2.467-.338 1.218-.583 2.04.583.578-1.043.944-2.484 2.314-.154.213-.736 1.888-.03-.335 1.533 4.506-.03.031 2.668.731 1.626-.579 2.577.244 2.607 1.187 1.564-.274 5.062.914-.399 1.613.092 2.314-.614 1.675.246 1.279.092.183 1.319 1.735-.092 2.345.398 1.187 1.902 2.954.614 2.283-1.35.792 2.239 2.801.583 1.31 1.81 1.461 2.331 2.832.031-.183-4.571-1.035.767-2.558-1.656-.974-.736.578-4.264.761-5.031-.791-1.871 1.096-2.699 1.005-.522 4.993-.705.64.184.182-.706-1.035-1.135-.457-2.331-2.222-2.331-1.249-3.037.701-1.779-.975-2.392.731-6.779.031.061-.031-.736-.913-1.933.365-2.331.518-.307.152-2.546 1.066-1.165.03-3.221.883-1.626.183-3.405.791-1.963 1.401-2.208 1.431-1.135 1.188-1.503-1.492-.583.182-4.939-3.319-2.822-.883-1.81-2.07.89-1.736-.276-.974.705-1.675-.521-2.283-3.497-1.218.46-2.406-.122Z" fill="#492B7C" stroke="#4FA58C" stroke-linejoin="round" />
    <path d="m134.547 144.212-2.378-.212-2.468-.725-2.197 2.236-1.897 3.869-.27 2.267-2.92-.998-2.98-1.088-4.635-.181-.271 1.843 1.024 2.146 2.739-.332.933.816-1.596 4.866 1.746 2.478.391 3.264-.481 2.78-1.114 1.965-3.25-.182-1.957-1.994-.301 1.843-2.498.514-1.264 1.058 1.384 2.75-2.799 2.327 2.98 4.413 1.505-1.814 1.114-.695 1.384 1.451.963.423 1.264-1.602 1.987.03.241 1.179 1.354.756 2.167-2.63 2.167-2.055.933-1.33-.09-3.445 1.595-4.05 1.686-2.146 2.438-2.024.421-1.33.09-1.542.602-1.45-.21-2.358.451-3.717.722-2.599 1.084-2.237.211-2.538ZM225.7 110.352l-1.644-1.218 2.109-1.058.031-1.828-.931-1.379-1.116 1.091-1.613-.385-1.24 1.956-1.21 2.084.341 1.218.093 1.347 2.109.064.9-.288.868.769 1.303-2.373ZM94.91 2.61l-2.382.245-1.466-.982-3.725.03L84.1 3.591l-1.772-.644-5.772.368-5.924.767-3.36 1.32-2.198 1.78-3.787.736-3.39 2.363 1.283 2.762.213 2.578 1.191 4.51.947.89-.672 1.658-4.642.706-1.649 1.565-2.046.368-.183 3.13-4.215 1.657-1.404 2.149-2.932 1.135-3.604.644-5.863 3.13-.061 5.003v.306l-.092.829 13.468 10.28L59.85 62.85l12.338 9.268.886 1.964 2.29 1.227 1.68.675.061 2.7 4.062-.398 5.16-1.903 10.537-8.316 12.368-8.102-1.649-2.67-2.932-1.963-1.679.767-1.313-2.363-.184-1.81-2.198-3.1 1.404-1.78-.397-2.67.428-2.332-.306-1.934.55-3.467-.244-1.964-1.252-3.744-1.741-7.58-2.23-1.718-.06-1.013-2.963-2.547-.397-3.192 2.138-2.393.733-3.56-.703-4.112.672-2.21ZM167.5 27.773l-3.572-1.212-3.452-1.121-4.683.06-1.111 2 .661 1.788-.721 2.576 1.261 3.394.87 14.909.661 15.424H200.01l-.66-.848-4.413-3.758-.27-2.727.66-.727-3.482-4.637-1.321-2.394-1.47-2.273-3.152-6.545-2.522-4.212-1.831-4.394.33-.394 3.032 6 1.741 1.879 1.291 1.333.75-.727.811-2.182.48-3.151.841-1.697-.451-1.06-2.551-6.092-1.621 1.03-2.762-.242-2.882-.97-.69 1.364-1.141-2.06-2.551-.546-3.062.364-1.351 1.181-2.582 1.334-1.681-.667Z" fill="#492B7C" stroke="#4FA58C" stroke-linejoin="round" />
    <path d="m212.758 93.956-2.129-2.09-1.217-3.902-2.373-4.916-1.735 2.427-2.677.707-1.095 1.29-.213 2.828-1.308 6.237.456 1.72 4.351.892 1.004-3.196 2.312 1.936 2.13-.983.912.89 2.526.031 3.285 1.721 1.035 1.475 1.673 1.352 1.643 2.489 1.308 1.382 1.582.369 1.095-1.045-1.886-1.29-1.217-1.444-2.099-2.458-2.16-2.428-5.203-3.994Z" fill="#492B7C" stroke="#4FA58C" stroke-linejoin="round" />
    <path d="m206.039 95.268-1.004 3.183-4.351-.887-.427 3.642-1.369 4.162-2.161 2.082-1.46 3.244-.335 1.745-1.704 1.163-1.004 4.438.03.52.122 3.306-.548 1.285-1.948.092-1.217 2.418 2.282.306 1.918 2.051.669 1.714 1.735.979 2.252 4.591 1.947.735.031 2.357 1.278 1.408h2.586l4.778 3.581 1.157.061.882-.123.822.49 2.495.337 1.065-1.775 3.378-1.776 1.491 1.439h2.557l1.004-1.347 2.373-.061 3.257-3 4.838-.183 10.195-12.702-3.135.03-12.264-5.019-1.46-1.531-1.4-2.02-1.461-2.356.761-1.5-.852-.735-.883.276-2.069-.061-.091-1.286-.335-1.163 1.187-1.989 1.217-1.868-1.308-1.377-1.644-2.479-1.674-1.347-1.034-1.469-3.287-1.714-2.526-.03-.913-.888-2.13.98-2.313-1.929ZM114.677 148.76l-.457-.217-2.226.558-2.257-.589-1.768.279.03 5.176-5.397-.062-1.281.248-.732 3.192-.915 3.131-.823 1.364-.091 1.425 2.226 4.433 2.47 3.533 3.811 4.339 2.836-2.386-1.403-2.821 1.281-1.085 2.531-.526.305-1.891 1.982 2.046 3.293.185 1.128-2.014.488-2.852-.396-3.347-1.769-2.542 1.616-4.99-.945-.837-2.775.341-1.037-2.2.275-1.891ZM66.155 112.189l-1.676-.337-1.167.674-1.616-.306-6.315.184-.09 2.421.48 3.187.957 6.037-1.526 3.554-.958 4.781 1.556 3.646-.15 1.686 3.263 1.195 3.292-1.226 2.005-1.44 5.746-2.482-.838-1.502-.958-2.697-.3-2.083.809-3.831-.898-1.532-.36-3.34v-3.095l-1.526-2.176.27-1.318ZM23.227 106.34l-.55.209-2.015-.328-.275.478-.825.09-2.657-1.017-1.77-.03-.092 1.405-.397.419.274 1.375-.58.538-.825.03-.977.687-1.13-.089-1.68 2.032 1.1.658.52.927.396 1.823.916.807.947.538 1.436 1.614 1.618 2.451 1.985-1.823.458-1.136.642-.897 1.007-.089.886-.778h2.963l1.007 1.495.794 1.734-.122 1.196.58 1.076-.03 1.524 1.008-.239.794-.09.977-.478 1.558 2.541-.275 1.674.733.867 1.038.03.794-1.674 1.038.119h.58l.245-1.823-.275-.807.336-.568 1.405-.479-.916-3.318-.855-1.703.305-1.405.764-.329-1.13-1.196.213-1.225-.488-.479-.794.389.183-1.345.763-1.046-1.527-1.734-.427-1.136-.825-.927-.733-.089-.885.567-1.222.539-1.008.896-1.588-.329-1.008-1.046-.61-.119-.978.538h-.61l-.184-1.495ZM3.618 103.073l3.43.051.934-.483.686-.026 1.403-.813 1.621.737 1.621.076 1.652-.788-.748-1.017-1.247.585-1.184-.025-1.466-.865-1.184.051-.873.839-4.115.102-.53 1.576Z" fill="#492B7C" stroke="#4FA58C" stroke-linejoin="round" />
    <path d="m14.965 105.909-6.48-.167-.956.445-1.157-.139-1.88.639.202.805 1.07.833-.029.583.782 1.084 1.475.249 1.852 1.611 1.591-1.888 1.071.083.926-.639.781-.027.55-.5-.26-1.278.376-.389.086-1.305ZM107.459 149.474l-5.766-.089-1.188 4.612.637.625 1.217-.238 5.129.059-.029-4.969ZM221.831 142.097h-2.575l-1.502-1.426-3.403 1.76-1.073 1.761-2.514-.334-.828-.486-.889.122-1.165-.061-4.813-3.552h-2.606l-1.288-1.396-.031-2.337-1.962-.729-2.483 2.762-2.269 2.52 1.809 2.914.46 2.125 1.686 4.796-1.349 3.066-1.809 2.792-1.073 1.7v.213l.889 1.578-.245 3.127 13.52 8.56.215 2.428 5.304 4.189 1.533-1.396.766-2.793 1.226-1.67.583-2.974 1.41-.304.951-1.76 2.636-1.67-2.207-3.46-.123-15.299 3.219-4.766ZM34.478 126.094l-1.002-.127-.766 1.773-1.002-.032-.707-.918.265-1.773-1.502-2.691-.943.507-.766.095-1.68 2.058-1.62 2.374-.206 1.266-.855 1.393 2.387 2.818 3.064 2.406 3.241 3.324 3.712 2.089.943-.031.295-3.609.324-.539-.088-1.741-1.533-1.836-1.12-.285-1.06-1.203.796-1.931-.354-2.121.177-1.266ZM155.294 25.87l-.942-1.363-3.557-.484-1.185-.727h-1.338l-1.338-1.877-4.833-.848-2.402.545-2.401 1.968-1.004 2.029 1.034 3.209-1.611 1.907-1.672 1.09-3.922-2.09-5.077-1.725-3.222-.817-1.854-3.724-4.773-1.847-2.98-.696-1.459.363-4.195-1.453-.091 3.21-1.703 1.21-1.033 1.332-2.402 1.605.456 1.726-.273 1.755-1.703.97 1.247 3.693.243 1.937-.547 3.421.304 1.908-.426 2.3.395 2.635-1.398 1.756 2.189 3.057.182 1.787 1.307 2.33 1.672-.756 2.919 1.938 1.641 2.633 5.776 1.817 2.098 2.27 2.523-1.543 3.618-2.301 14.713 8.023 14.805 8.022-.03-1.756h4.195l-.304-8.386-.669-15.41-.881-14.895-1.277-3.39.729-2.574-.668-1.787 1.124-1.998ZM166.312 287.756l.779-1.397 2.089-.698.748-1.428 1.278-2.127-1.185-1.333-1.496-1.333-1.777.889-2.119 1.714-2.151 2.761 2.493 3.364 1.341-.412ZM58.452 10.5l-1.533-.03-3.647-.94-3.372.272-2.084-1.789-2.605-.03-1.165 2.608-2.452 4.397-2.666 1.729-3.617 1.94-2.36 2.82-.552 2.215-1.471 3.578.766 5.216-3.096 3.487-1.839 1.122-2.942 2.851-3.372.485-1.87 1.608-.06.06-2.422 4.276-2.483 1.547-1.38 2.577-.152 2.244-1.042 2.457-1.226.667-2.115 2.669-1.349 2.972.215 1.395-1.257 2.213-1.44 1.122-.246 1.941.061.03 8.276-.333.49-1.516 1.533-1.88 1.349-5.793 5.18-4.548 1.839-5.277 1.134-.334 1.287-3.275 3.065-.425 1.287.546h1.655l1.196-.97 2.237-.121-.03-2.275h.551l.062-4.943 5.885-3.093 3.616-.637 2.943-1.122 1.41-2.123 4.23-1.637.183-3.094 2.054-.364 1.655-1.546 4.659-.698.674-1.637-.95-.88-1.195-4.458-.215-2.547-1.287-2.73ZM251.207 215.932l-.773-2.752-.927-1.784-1.205-1.784-1.329 1.875-.217 2.51-2.194 2.903-1.576-.514.402 1.815-1.237 2.086-3.214 2.571-2.256 2.389-1.669.061-1.421.756-2.133.847-1.854.181-.68 2.631-1.453 2.359.062 3.841.525 2.631.742 1.996-.525 2.661-1.978 3.176-.093 1.391-1.761.726-.866 3.024.124 2.994 1.051 3.327-.031 3.72.803 2.207 2.813 1.513 2.009 1.058 3.368-1.754 3.06-.998 2.101-4.869 1.886-5.807 2.874-7.923 2.256-5.777 1.823-4.869.495-3.538 1.082-.968.463-1.784-.525-3.085.803-1.24 1.082 2.45.742-1.24.525-1.996-.865-1.966-.309-5.051ZM81.211 77.954l-4.027.396-.06-2.687-1.666-.672-2.271-1.221-.878-1.954-12.233-9.223-12.112-9.222-5.511.061 1.544 18.23 1.635 18.231.606.55-.818 2.932-14.686.06-.575.947-1.393-.274-2.089.824-2.543-1.16-1.151.091-.666 2.504-1.242.764.121 2.626.697 2.412 1.362 1.191.303 1.619-.181 1.343.181 1.527h.606l.969-.549.605.122 1 1.069 1.574.335 1-.916 1.21-.549.879-.581.726.092.818.947.424 1.16 1.514 1.771-.757 1.069-.182 1.374.787-.397.485.489-.212 1.252 1.12 1.221.485-.397.999.642 2.846.03.697-1.221.636.091 1.06-.488.544 1.801.879-.519 1.514-.641-.243-2.443 1.03-1.802-.09-1.435 2.936-3.481.545-2.901 1.03-1.038 1.756.58 1.544-.855.515-1.1 2.846-1.893.697-1.313 3.421-1.771 2.03-.58.908.794h2.361l2.332-.184 1.363-1.496 4.996-.366L79 93.1l.302-2.596 1.999-2.81-.09-9.74ZM216.136 204.51l-.521-1.881-3.061 2.457-4.103 1.608-2.235-.061-1.377 1.275-2.572.091-1.01.546-4.409-1.184-1.438.152-1.011 3.974.429 4.793h.214l1.286 1.335 1.408 3.034.092 5.4-1.653.91-1.255 2.912-2.296-2.609-.153-2.942.887-1.972-.153-1.669-1.439-1.062-1.01.365-2.082-2.003-11.358 3.459.245 3.003.184 1.547 3.061-.091 1.684.91.766 1.032 1.745.303 1.867 1.335-.245 5.309-.857 2.912-.306 3.155.52 1.244-.52 2.457-.582.395-1.102 3.003-4.102 4.763 1.439 5.915.765 3.004-.918 4.672.214 1.517.398 1.88.184 1.851 2.755.03.459-2.214-.888-.273-.183-1.76 1.683-1.577 4.531-2.276 3.092-1.395 1.623-1.517.643-1.729-.827-.728.735-1.942.337-4.126-.674.213.031-1.244-.582-2.457-1.592-3.186.49-3.003 1.561-.971 2.725-2.973 1.439-.758 4.408-4.52 4.286-2.033 3.46-1.608 2.48-2.578 1.592-2.913 1.255-3.003-.551-2.063.122-6.553-.306-3.701.276-4.186Z" fill="#492B7C" stroke="#4FA58C" stroke-linejoin="round" />
    <path d="M48.134 53.15 34.678 42.898l-.152 6.397-11.869-.214-.122 10.836-3.417.397-.946 2.174.58 6.122-14.31-.031-.824 1.408 1.861 1.836.916 1.99-.427 2.112.396 2.112.305 4.194-.549 3.979-1.068 2.081.275 2.296 1.281-1.378 1.83.368 1.801-.919 2.075-.03 1.739 1.224 2.41 1.133 2.197 3.122 2.38 2.908 1.25-.765.672-2.51 1.16-.092 2.562 1.163 2.106-.827 1.403.276.58-.949 14.798-.061.824-2.939-.61-.55-1.648-18.274-1.556-18.274 5.553-.061ZM193.388 217.946l.087-1.602-.783-1.264.116-1.849-.958-3.143 1.074-2.373-.058-5.146-1.19-2.743.116-.462-.667-1.171-3.453-.801 1.625 1.91.813 3.606-.639 1.171-.783 3.451.58 3.544-1.16 1.479-1.19 3.945 1.799 1.109 1.973 2.034.957-.37 1.364 1.079.145 1.695-.841 2.003.145 2.989 2.176 2.65 1.189-2.958 1.567-.925-.087-5.485-1.335-3.082-1.218-1.355h-.203l.029.585.667.154.638 2.281-.116.523-1.189-1.633-.639 1.048-.551-.894ZM151.304 232.978l-6.809 1.723-8.846-.605-2.493-1.994-14.834.181-.577.302-2.158-1.904-2.371-.121-2.189.695-1.794.816.183 3.204 2.888 4.08.76 2.63 1.823 5.017 1.794 3.446 1.398 1.722.395 2.297-.03 4.987 1.033 6.438.791 3.053.669 4.05 1.307 3.053 2.523 3.173 1.824-2.055 1.367 1.118.517 1.814 1.581.302 2.219.786 1.945-.303 3.283-2.146.669-15.444.426-12.211 3.587-.151.577-14.9 2.736-.121 5.684-1.481 1.338 1.723 2.401-1.632h1.095l2.097-.937v-.363l-1.429-.937-2.371-.242-3.009.937ZM115.404 61.308l-5.758-1.827-12.275 8.038-10.456 8.252-5.122 1.888.091 9.713-2 2.801-.303 2.588-3.243.67-5 .365-1.364 1.492-2.334.183-.303 2.04.485 1.918 2.091 2.741.121 2.04 4.243.944-.09 2.892 1.242-1.218 1.303-.03 2.819 2.436.242-3.776 1.061-1.675.485-2.435.97-.914 3.94-.487 3.697 1.553 1.394 1.614 1.85.06 1.757-1.035 4.455 2.162 1.879-.091 2.152-1.797 2.152.122 1.061-.578 1.97.243 2.848 1.218 2.849-2.344.879.182 2.546 4.598.667-.091.121-1.34 1.031-.244.333-1.979-2.364-.091-.03-2.71-1.546-1.584 1.485-5.541 4.607-3.958.06-5.481 1.213-8.556.757-1.827-1.545-1.431-.091-1.34-1.394-1.096-1.031-6.546-2.515 1.553-2.092-2.284Z" fill="#492B7C" stroke="#4FA58C" stroke-linejoin="round" />
    <path d="m118.224 106.267-.666.09-2.544-4.555-.879-.181-2.847 2.323-2.846-1.207-1.969-.241-1.06.573-2.15-.12-2.151 1.779-1.877.091-4.453-2.142-1.756 1.026-1.848-.061-1.393-1.598-3.695-1.539-3.937.483-.97.905-.484 2.413-1.06 1.659-.242 3.741-.151 1.387.848 2.474-.727 1.689.393 1.117-1.787 2.564-1.12 1.297-.697 2.624.091 2.655-.182 6.727h3.241l2.786-.03 2.605 2.745 1.242 3.017 1.968 2.594 2.968.09 1.424-.935 1.393.242 3.846-1.509.94-2.956 1.726-4.042 1.09-.031 2.181-2.443 1.393-.06 2.089 1.719 2.514-1.418.333-1.719.818-1.689.576-2.112 1.938-1.72.727-2.926.787-.935.485-2.172.939-2.654 3.089-3.228.151-1.388.394-.754-1.484-1.659ZM179.284 163.35l-2.348 1.368-.921-.445-1.111 1.208-.158 2.64-.54.318-.381 2.417 2.349.35 1.206-2.512 2.063.286 1.111-.573.254-2.576-1.524-2.481ZM35.04 42.024h-.553l.03 2.272-2.246.121-1.2.97h-1.662l-1.293-.546-3.078.425-1.292 3.271-1.139.334-1.846 5.27-5.202 4.545-1.354 5.786-1.539 1.878-.492 1.515-8.31.333-.061-.03-.185 1.787.831-1.393 14.434.03-.584-6.059.954-2.15 3.447-.395.123-10.724 11.972.212.154-6.331.092-.818v-.303ZM201.231 89.792l.215-2.818 1.103-1.287 2.697-.704 1.747-2.42L204.879 81l-1.472-1.041-1.624-5.055-.766-4.38.766-.767-1.441-4.166H156.85l.307 8.486h-4.23l.031 1.777.735 16.818-3.218-.276-1.594 3.125-.919 2.604.797.98-1.165 1.318.46 1.746-.92 1.777-.367 1.531 1.318-.245.796 1.655.092 2.45 1.41 1.256-.03 1.042.459 1.807 2.207 2.635.031 1.746-.583 1.746.276 1.318 1.288 1.225.306.214 1.165-.49 1.256-.796.889-3.768.981-1.961 2.697-.582.644 1.164 1.992 2.451 1.012.368 1.348-.705 2.667.123.551.888h3.709l.092-.888 1.931-.797.337-1.225 1.41-.889 3.188 2.482 1.9-.429 1.777-3.064 1.993-2.328-.399-2.543-.919-1.225 2.237-.245.215-.919 1.747.276-.368 3.124.521 3.064 1.992 1.685.46 1.44v2.113l.521.092-.031-.521 1.012-4.442 1.716-1.164.337-1.746 1.472-3.247 2.176-2.083 1.379-4.167.429-3.645-.46-1.716 1.318-6.219Z" fill="#492B7C" stroke="#4FA58C" stroke-linejoin="round" />
    <path d="m191.579 116.979-.459-1.425-1.988-1.668-.521-3.032.368-3.093-1.744-.273-.214.91-2.234.242.918 1.213.398 2.517-1.989 2.304-1.774 3.033-1.897.424-3.182-2.456-1.407.879-.337 1.213-1.927.789-.092.879h-3.702l-.55-.879-2.662-.122-1.346.698-1.01-.364-1.988-2.426-.643-1.152-2.692.576-.979 1.941-.887 3.729-1.254.789-1.163.485 2.57 1.637 2.08 1.668.031 1.365 2.539 2.183 1.591 1.819.979 2.517 2.815 1.668.611 1.334 2.295 3.457 1.683.515.979-.697 1.743.273 2.081-.88.887 1.789 3.335 2.79 1.529-1.152 2.387.94 2.998-1.001 2.631.03 2.264-1.94 2.264-2.517 2.478-2.759-2.264-4.549-1.744-.97-.673-1.698-1.927-2.032-2.295-.303 1.224-2.395 1.958-.091.551-1.274-.123-3.275-.52-.091v-2.092ZM21.186 97.265l-2.386-2.81-2.202-3.019-2.416-1.094-1.743-1.184-2.08.03-1.804.887-1.836-.355-1.284 1.332-.918 2.1-1.865 2.87-1.652.77 1.835 1.45 1.468 3.195 4.037-.118.857-.977 1.162-.059 1.438 1.006 1.162.03 1.223-.681.734 1.184-1.62.917-1.591-.089-1.59-.858-1.377.947-.673.03-.917.562-3.365-.059.55 3.136 1.989-.681 1.223.148 1.01-.473 6.85.178 1.775.029 2.66 1.006.826-.089.276-.473 2.018.325.55-.207.184-1.302-.306-1.568-1.376-1.154-.704-2.337-.122-2.545ZM28.058 123.246l-1.023.248.03-1.58-.588-1.114.124-1.239-.806-1.796-1.023-1.548h-3.008l-.899.805-1.023.093-.65.929-.466 1.176-2.015 1.889.434 3.19.651 1.548 1.953 2.291 2.698 1.735 1.023.309.899-1.362.217-1.239 1.705-2.322 1.767-2.013ZM181.074 268.027l-1.852-.807-1.118.31-.447 1.242-1.15 1.614-.064 1.489 2.108 2.328 2.235-.466.894-1.893-.191-1.893-.415-1.924ZM153.028 76.458l-14.647-8.052-14.555-8.052-3.579 2.31 1.022 6.532 1.384 1.094.09 1.336 1.534 1.429-.752 1.823-1.203 8.537-.06 5.47-4.572 3.95-1.473 5.53 1.534 1.58.03 2.704 2.345.091-.33 1.975 1.473 2.704.301 2.765-.12 2.795 2.045 3.829-2.045-.031-1.023.274-1.684-.395-.752 1.975 2.166 2.461 1.593.699.542 1.732 1.173 2.916-.542 1.125 3.008-.304.661-1.094.632.091.902.942 4.602-1.61 1.533-1.641 1.895-1.459-.361-1.488 1.023-.365 3.548.243 3.399-1.944 2.586-4.588 1.805-1.702 2.315-.699.03-1.033-1.383-1.246-.09-2.43-.782-1.641-1.293.243.361-1.519.902-1.762-.451-1.732 1.142-1.307-.781-.972.902-2.583 1.564-3.099 3.157.273-.721-16.68ZM69.052 111.945l-3.193-.093-.268 1.333 1.522 2.201v3.13l.358 3.379.895 1.55-.806 3.874.299 2.108.955 2.728.835 1.519 2.925-.93-.896-2.945.15-9.857-.746-.868-.12-2.107-1.283-1.519-1.104-1.271.477-2.232ZM106.615 18.867l-1.354-.666-.964-2-1.805-.06-.723-2.301 2.197-2.12.331-3.664-1.234-1.06-.06-1.968 1.656-2.12-.271-.818-2.86 1.575.031-2.15L99.121 1l-3.672 1.726-.663 2.18.693 4.058-.723 3.513-2.107 2.362.392 3.15 2.92 2.513.06 1 2.197 1.695 1.715 7.48 1.686-.97.271-1.756-.452-1.726 2.378-1.605 1.023-1.332 1.686-1.211.09-3.21ZM180.946 163.35l-1.308.511 1.46 2.343-.243 2.433-1.065.541.183 1.622.791.961.03 1.352-.913.871-1.49 2.162-1.37 1.502-.365.06-.213 1.773.7.6-.152 1.773.7 1.652-.883 1.592 2.952 2.823.243 2.553 1.795 4.266.183.12 1.46.691 2.343.72 2.069 1.232 3.62.781.7 1.141.243-.811 1.887 2.223.182 4.356 1.187 1.592-.031.06 1.43-.151 4.381 1.172 1.005-.541 2.555-.09 1.369-1.261 2.221.06 4.077-1.592 3.043-2.433-1.339-.901-1.43-4.086-1.217-2.613.304-1.982-.182-1.262 1.065-2.523-.092-1.081-2.342-1.502-.183-2.343 1.795-5.137-5.263-4.145-.213-2.403-13.418-8.47-1.825 1.832-1.248 1.892 1.461 1.412-2.13 1.021-.456-.48-2.16.27-1.674.931-1.004-1.622.7-2.913.152-2.493-4.077-.061Z" fill="#492B7C" stroke="#4FA58C" stroke-linejoin="round" />
    <path d="m192.63 140.656-2.23 1.985-2.593-.031-2.954 1.024-2.351-.962-1.507 1.179-.181 4.993 1.477.59-1.175 1.519-1.417 1.148-1.387 2.233-.783 1.985-.181 3.443-.874 1.643-.031 3.257.875.434 2.23-1.333 1.296-.528 4.04.062-.211-1.643 1.718-2.513 2.321-.62 1.567-1.023 1.899.837.181.31v-.217l1.055-1.737 1.779-2.853 1.326-3.133-1.658-4.9-.452-2.171-1.779-2.978ZM135.11 305.625l1.603-.092 2.269-1.629 3.025-.676 3.721-1.69 1.422.215 2.178-.522 3.721.83 1.785-.799 2.087.614.545-1.168 1.815-.245 3.812-1.629 2.813-1.936 2.693-2.551 4.356-4.364 2.269-3.042 1.18-2.182 1.663-2.151.757-.615 2.601-2.151 1.059-1.905.696-3.534 1.119-3.104-2.722-.031-.847 1.875-2.118.461-1.997-2.305.061-1.475 1.089-1.598.423-1.229 1.059-.307 1.755.799-.212-1.537.908-4.733-.757-3.042-1.422-5.992-1.905-.4-1.241.492-1.724-.707-1.482-.061-5.234 3.134-3.388 3.165-1.331 2.858-1.18 1.598-1.966.338-.726 2.029-.424 1.321-2.36.983-2.904-.184-1.664-1.199-1.482-.522-1.815.983-.968 2.029-1.755 1.29-1.875 1.906-2.572.43-.756-1.506.454-2.581-1.967-4.057-.968-.614-.665 15.703-3.267 2.182-1.936.307-2.209-.799-1.573-.307-.514-1.844-1.362-1.137-1.815 2.09 2.33 5.501v.03l1.633 3.596 2.088 3.933-.061 3.258-1.18.768.968 2.858-.151 2.489.393 1.168.212-.584 1.392 1.905 1.149.062 1.392 1.536Zm31.159-18.161-1.301.399-2.42-3.257 2.088-2.674 2.057-1.659 1.724-.861 1.452 1.291 1.15 1.29-1.241 2.059-.726 1.383-2.027.676-.756 1.353ZM180.623 195.334l-1.254-.336.214-.915-.643-.183-5.015.702-1.01.518-1.101 2.685.796 1.86-.765 5.002-.581 4.24.979.732 2.569 1.647 1.039-.762.184 4.544-2.844-.03-1.468-2.318-1.315-1.8-2.814-.579-.795-2.227-2.294 1.342-2.967-.61-1.192-1.891-2.355-.397-1.744.092-.183-1.312-1.285-.091.367 1.311-.458 2.044.611 1.983-.611 1.586.306 1.433-7.738-.03-.489 13.42 2.385 3.447 2.324 2.623 3.028-.946 2.386.244 1.437.946v.366l.673.305 4.098.457 1.162.488 1.254-.091 2.141-2.745 3.334-3.477 1.345-.305.52-1.464 2.141-1.678 2.844-.579-.244-3.02 11.346-3.477-1.896-1.098 1.254-3.904 1.223-1.464-.611-3.508.825-3.416.673-1.159-.856-3.569-1.713-1.891-2.079-1.25-2.355-.733-1.468-.701-.184-.122.275.701-.611.244-.795-.884Z" fill="#492B7C" stroke="#4FA58C" stroke-linejoin="round" />
    <path d="m179.783 252.292 4.068-4.69 1.093-2.958.577-.388.516-2.42-.516-1.225.304-3.106.85-2.868.243-5.228-1.852-1.314-1.731-.299-.759-1.016-1.67-.896-3.036.09-.182-1.524-2.823.568-2.126 1.643-.516 1.434-1.336.298-3.309 3.406-2.125 2.689-1.245.089-1.153-.478-4.069-.448 1.275 3.316.699.717 1.062 2.39 3.947 4.54 1.549.449-.061 1.463.941 2.629 2.793.628 2.216 1.852 1.488.059 1.731.687 1.244-.478 1.913.389ZM229.262 115.011l-1.734-1.761-.761-1.731-1.247-.789-1.278 2.247-.761 1.488 1.461 2.338 1.399 2.004 1.46 1.519 12.261 4.98 3.133-.03-10.191 12.603-4.838.182-3.255 2.976-2.373.061-1.004 1.336-3.194 4.768.122 15.305 2.19 3.462.821-1.002.883-2.217 4.076-5.071 3.469-3.219 5.506-4.161 3.681-3.401 4.29-5.74 3.073-4.707 3.042-6.134 2.13-5.375 1.643-4.707.882-4.525.73-1.518-.122-2.217.244-2.43-.152-1.184-1.4.03-1.673 1.428-1.947.425-1.674.637-1.186.061-2.099.152-1.278.79-1.825.273-3.195 1.306-4.016.486-3.437 1.062h-1.856Z" fill="#492B7C" stroke="#4FA58C" stroke-linejoin="round" />
</svg>