<svg width="80" height="80" viewBox="0 0 80 80" fill="none" xmlns="http://www.w3.org/2000/svg">
<g clip-path="url(#clip0_200_119720)">
<path d="M37.4334 69.3889C57.139 69.3889 73.1131 48.6686 73.1131 23.1078V11.076H42.5677C22.8621 11.076 6.89355 31.7852 6.89355 57.3515V69.3889H37.4334Z" fill="#FFDF77"/>
<path d="M72.8525 11.076L6.89355 69.034V57.3515C6.89355 31.7852 22.8676 11.076 42.5677 11.076H72.8525Z" fill="#FFE799"/>
<path d="M54.6663 54.0407C54.6663 59.687 51.8964 65.3333 45.4496 65.3333H32.5498C26.0968 65.3333 23.333 59.687 23.333 54.0407C23.333 46.3112 27.1683 37.1701 33.6151 33.3333H44.3781C50.8007 37.1577 54.6663 46.2676 54.6663 54.0407Z" fill="#4FA58C"/>
<path d="M45.4818 33.3333H32.5188C32.0277 33.3333 31.5567 33.1226 31.2094 32.7475C30.8621 32.3725 30.667 31.8638 30.667 31.3333C30.667 30.8029 30.8621 30.2942 31.2094 29.9191C31.5567 29.544 32.0277 29.3333 32.5188 29.3333H45.4818C45.9729 29.3333 46.444 29.544 46.7913 29.9191C47.1386 30.2942 47.3337 30.8029 47.3337 31.3333C47.3337 31.8638 47.1386 32.3725 46.7913 32.7475C46.444 33.1226 45.9729 33.3333 45.4818 33.3333Z" fill="#492B7C"/>
<path d="M47.4507 22.0017H30.5185C30.1366 21.9917 29.7615 22.1039 29.447 22.3222C29.1326 22.5405 28.895 22.8536 28.7686 23.2164C28.6422 23.5792 28.6335 23.973 28.7437 24.3411C28.8538 24.7093 29.0772 25.0327 29.3816 25.2649L34.4282 29.3333H43.565L48.6176 25.2649C48.9245 25.0313 49.1492 24.705 49.2589 24.3337C49.3685 23.9625 49.3574 23.5656 49.227 23.2012C49.0967 22.8367 48.854 22.5238 48.5345 22.308C48.2149 22.0922 47.8351 21.9849 47.4507 22.0017Z" fill="#4FA58C"/>
<path d="M36.0003 33.3333H32.4467C31.9747 33.3333 31.522 33.1226 31.1883 32.7475C30.8545 32.3725 30.667 31.8638 30.667 31.3333C30.667 30.8029 30.8545 30.2942 31.1883 29.9191C31.522 29.544 31.9747 29.3333 32.4467 29.3333H36.0003C35.5283 29.3333 35.0756 29.544 34.7419 29.9191C34.4081 30.2942 34.2206 30.8029 34.2206 31.3333C34.2206 31.8638 34.4081 32.3725 34.7419 32.7475C35.0756 33.1226 35.5283 33.3333 36.0003 33.3333Z" fill="#3D2467"/>
<path d="M36.2594 65.3333H32.5687C26.1025 65.3333 23.333 59.687 23.333 54.0407C23.333 46.3236 27.1761 37.1701 33.6363 33.3333H37.333C30.8668 37.1701 27.0236 46.3236 27.0236 54.0407C27.0236 59.687 29.7931 65.3333 36.2594 65.3333Z" fill="#428975"/>
<path d="M38.0003 29.3333H34.3811L29.3762 25.2642C29.0748 25.0326 28.8535 24.7102 28.7439 24.3432C28.6343 23.9762 28.642 23.5835 28.766 23.2213C28.8899 22.859 29.1238 22.5458 29.434 22.3266C29.7442 22.1073 30.1149 21.9931 30.493 22.0005H34.1123C33.7337 21.9918 33.3621 22.105 33.0509 22.3238C32.7396 22.5426 32.5048 22.8557 32.3801 23.2183C32.2553 23.5809 32.2471 23.9742 32.3566 24.3417C32.4661 24.7093 32.6877 25.0323 32.9895 25.2642L38.0003 29.3333Z" fill="#428975"/>
<path d="M42.6099 14.4946L39.4357 11.6094C39.3146 11.5003 39.1582 11.4399 38.9961 11.4399C38.834 11.4399 38.6776 11.5003 38.5566 11.6094L35.3823 14.4946C35.253 14.6095 35.0844 14.6689 34.9125 14.6599C34.7406 14.651 34.579 14.5745 34.4619 14.4468L33.5061 13.4014C33.4474 13.3366 33.4019 13.2607 33.3725 13.1779C33.343 13.0952 33.3301 13.0074 33.3345 12.9195C33.3389 12.8317 33.3605 12.7456 33.3981 12.6663C33.4356 12.587 33.4884 12.5161 33.5533 12.4576L38.0727 8.35391C38.3265 8.12592 38.6539 8 38.9932 8C39.3324 8 39.6599 8.12592 39.9136 8.35391L44.4448 12.4576C44.5104 12.5156 44.5638 12.5864 44.6019 12.6657C44.6399 12.7451 44.6618 12.8313 44.6662 12.9194C44.6706 13.0075 44.6574 13.0955 44.6275 13.1783C44.5976 13.2612 44.5515 13.337 44.492 13.4014L43.5421 14.4468C43.4246 14.5781 43.2605 14.6569 43.0858 14.6658C42.911 14.6748 42.7399 14.6132 42.6099 14.4946Z" fill="#F2A900"/>
<path d="M38.1112 9.33333L39.8679 9.33333C40.0798 9.33333 40.2831 9.40767 40.4329 9.54C40.5828 9.67233 40.667 9.8518 40.667 10.0389L40.667 19.2944C40.667 19.4815 40.5828 19.661 40.4329 19.7933C40.2831 19.9257 40.0798 20 39.8679 20L38.1328 20C37.9208 20 37.7176 19.9257 37.5677 19.7933C37.4179 19.661 37.3337 19.4815 37.3337 19.2944L37.3337 10.0389C37.3336 9.85506 37.4148 9.67841 37.56 9.54662C37.7053 9.41483 37.903 9.3383 38.1112 9.33333Z" fill="#F2A900"/>
<path d="M54.4254 41.9737L52.3109 41.9059C50.2642 41.8443 48.5257 44.3718 48.4209 47.6144C48.3161 50.8571 49.8943 53.4894 51.941 53.5511L54.0617 53.6189L54.4254 41.9737Z" fill="#CA8D00"/>
<path d="M57.9409 47.9121C58.0425 44.6963 56.4669 42.037 54.4217 41.9724C52.3765 41.9077 50.6362 44.4623 50.5346 47.6781C50.433 50.8939 52.0085 53.5532 54.0537 53.6179C56.0989 53.6825 57.8393 51.1279 57.9409 47.9121Z" fill="#F2A900"/>
<path d="M56.6955 47.8728C56.7695 45.5316 55.7287 43.5988 54.371 43.5559C53.0132 43.513 51.8525 45.3762 51.7785 47.7174C51.7045 50.0587 52.7452 51.9914 54.103 52.0343C55.4608 52.0772 56.6215 50.2141 56.6955 47.8728Z" fill="#F6C655"/>
<path d="M60.1216 54.0566V57.1389C60.1216 57.3794 57.292 57.5705 53.7843 57.5705C50.2766 57.5705 47.4531 57.3547 47.4531 57.1143V54.0319C47.4531 53.7915 50.2889 53.6004 53.7843 53.6004C57.2797 53.6004 60.1216 53.8162 60.1216 54.0566Z" fill="#F2A900"/>
<path d="M49.7341 56.9663V54.0566C49.7341 53.847 51.9719 53.6744 54.9248 53.6374H53.7843C50.2889 53.6374 47.4531 53.8285 47.4531 54.0689V57.1513C47.4531 57.3917 50.2889 57.6568 53.7843 57.5828C55.6982 57.6004 57.6118 57.5202 59.5175 57.3424C55.8865 57.2314 49.7341 57.1759 49.7341 56.9663Z" fill="#CA8D00"/>
<path d="M62.4276 57.9218V61.0042C62.4276 61.2385 59.598 61.4357 56.0903 61.4357C52.5825 61.4357 49.7529 61.2385 49.7529 61.0042V57.9218C49.7529 57.6814 52.5949 57.4903 56.0903 57.4903C59.5856 57.4903 62.4276 57.6814 62.4276 57.9218Z" fill="#F2A900"/>
<path d="M52.0332 60.8254V57.9219C52.0332 57.7061 54.2772 57.5335 57.23 57.4965H56.0834C52.588 57.4965 49.7461 57.6876 49.7461 57.928V61.0104C49.7461 61.2446 52.588 61.5159 56.0834 61.4419C56.4841 61.4419 60.7563 61.4419 61.8166 61.1953C58.1856 61.0905 52.0332 61.0412 52.0332 60.8254Z" fill="#CA8D00"/>
<path d="M58.3954 61.781V64.8633C58.3954 65.0976 55.5658 65.2948 52.058 65.2948C48.5503 65.2948 45.7207 65.0976 45.7207 64.8633V61.781C45.7207 61.5405 48.5626 61.3494 52.058 61.3494C55.5534 61.3494 58.3954 61.5097 58.3954 61.781Z" fill="#F2A900"/>
<path d="M48.0016 64.6537V61.781C48.0016 61.5652 50.2456 61.3926 53.1985 61.3556H52.058C48.5626 61.3556 45.7207 61.5467 45.7207 61.7871V64.8695C45.7207 65.1037 48.5626 65.375 52.058 65.301C52.4587 65.301 56.7309 65.301 57.7912 65.0544C54.154 64.9188 48.0016 64.8633 48.0016 64.6537Z" fill="#CA8D00"/>
</g>
<defs>
<clipPath id="clip0_200_119720">
<rect width="80" height="80" fill="white"/>
</clipPath>
</defs>
</svg>
