<svg width="80" height="80" viewBox="0 0 80 80" fill="none" xmlns="http://www.w3.org/2000/svg">
<path d="M37.2068 68.3129C56.9125 68.3129 72.8866 47.5926 72.8866 22.0319V10H42.3412C22.6355 10 6.66699 30.7092 6.66699 56.2755V68.3129H37.2068Z" fill="#FFDF77"/>
<path d="M72.626 10L6.66699 67.958V56.2755C6.66699 30.7092 22.6411 10 42.3412 10H72.626Z" fill="#FFE799"/>
<path d="M35.2514 50.1652L38.1764 47.7714C41.0065 45.456 40.359 39.9564 36.7362 35.4939C33.1134 31.0314 27.883 29.2878 25.0529 31.6032L22.1279 33.997L35.2514 50.1652Z" fill="#C88B00"/>
<path d="M35.2566 50.1589C38.0857 47.8424 37.4418 42.3462 33.8184 37.8827C30.195 33.4192 24.9642 31.6787 22.1352 33.9951C19.3061 36.3116 19.95 41.8078 23.5734 46.2713C27.1968 50.7348 32.4276 52.4753 35.2566 50.1589Z" fill="#F0A700"/>
<path d="M34.0628 47.9346C35.9774 46.1631 35.1289 42.1042 32.1649 38.8751C29.2008 35.6459 25.2487 34.4574 23.3284 36.2289C21.4138 38.0005 22.2623 42.0594 25.2263 45.2885C28.1904 48.5177 32.1425 49.7062 34.0628 47.9346Z" fill="#F6C655"/>
<path d="M38.4833 70.2749L36.0998 67.3372C33.7944 64.4949 35.5304 59.2419 39.9737 55.6035C44.4171 51.9651 49.8931 51.3148 52.1985 54.1571L54.582 57.0948L38.4833 70.2749Z" fill="#674E92"/>
<path d="M50.7171 68.8212C55.1614 65.1822 56.8944 59.9288 54.5879 57.0876C52.2814 54.2463 46.8088 54.893 42.3645 58.532C37.9202 62.1711 36.1872 67.4244 38.4937 70.2657C40.8002 73.107 46.2728 72.4602 50.7171 68.8212Z" fill="#8672A8"/>
<path d="M52.45 58.6313C54.1191 60.5262 52.8185 64.4113 49.5585 67.3097C46.2986 70.2081 42.2963 71.021 40.6272 69.1261C38.9582 67.2312 40.2532 63.3461 43.5187 60.4477C46.7842 57.5493 50.781 56.7364 52.45 58.6313Z" fill="#715A99"/>
<path d="M35.5869 22.9867L37.9705 25.9244C40.2759 28.7667 45.7519 28.1164 50.1952 24.478C54.6385 20.8396 56.3745 15.5866 54.0692 12.7443L51.6856 9.80664L35.5869 22.9867Z" fill="#428975"/>
<path d="M47.8157 21.5448C52.26 17.9058 53.9931 12.6525 51.6866 9.81119C49.3801 6.96992 43.9074 7.61663 39.4631 11.2557C35.0188 14.8947 33.2858 20.148 35.5923 22.9893C37.8988 25.8306 43.3714 25.1839 47.8157 21.5448Z" fill="#6CB49F"/>
<path d="M46.5473 19.7273C49.8433 17.0208 51.1944 13.2042 49.565 11.2028C47.9355 9.20127 43.9427 9.7728 40.6467 12.4793C37.3507 15.1858 35.9996 19.0024 37.629 21.0039C39.2584 23.0054 43.2513 22.4338 46.5473 19.7273Z" fill="#4FA58C"/>
<path d="M60.5213 22.802C61.2581 22.4096 61.5707 21.5575 61.2246 20.9015C60.8785 20.2456 59.9966 20.0382 59.2597 20.4306L56.6138 21.8546C55.877 22.247 55.5644 23.0992 55.9105 23.7551C56.2566 24.411 57.1386 24.6184 57.8754 24.226L60.5213 22.802Z" fill="#FFCF33"/>
<path d="M57.3341 32.9887C57.937 33.5718 58.8357 33.6054 59.3492 33.0728C59.8628 32.5403 59.7902 31.6321 59.1874 31.0546L57.0215 28.9635C56.4186 28.3805 55.5199 28.3468 55.0064 28.8794C54.4928 29.412 54.5654 30.3202 55.1683 30.8977L57.3341 32.9887Z" fill="#FFCF33"/>
<path d="M46.7058 33.0891C46.3429 33.8404 46.5886 34.7149 47.2528 35.0401C47.9171 35.3652 48.7544 35.0177 49.1172 34.2608L50.429 31.5474C50.7919 30.7962 50.5462 29.9216 49.882 29.5965C49.2177 29.2713 48.3804 29.6189 48.0176 30.3757L46.7058 33.0891Z" fill="#FFCF33"/>
<path d="M24.6903 58.978C24.6289 59.8134 25.1704 60.5365 25.9072 60.5926C26.644 60.6487 27.2915 60.0208 27.3585 59.1855L27.5874 56.1806C27.6488 55.3452 27.1073 54.622 26.3705 54.566C25.6337 54.5099 24.9861 55.1378 24.9192 55.9731L24.6903 58.978Z" fill="#FFCF33"/>
<path d="M17.8521 50.81C17.0427 51.0062 16.5236 51.7518 16.7022 52.475C16.8808 53.1982 17.6735 53.6186 18.4829 53.4224L21.4023 52.7105C22.2117 52.5142 22.7308 51.7686 22.5522 51.0454C22.3736 50.3222 21.5809 49.9018 20.7715 50.098L17.8521 50.81Z" fill="#FFCF33"/>
<path d="M45.7285 14.3255C45.7341 14.1741 45.6727 14.0396 45.5499 13.9275C45.4215 13.8153 45.2428 13.7256 45.0084 13.664C44.707 13.5799 44.372 13.5631 44.0036 13.6135C43.7803 13.6471 43.5515 13.7032 43.3282 13.7873C43.1049 13.8714 42.876 13.8265 42.8258 13.6752L42.7142 13.322C42.6583 13.1538 42.8481 12.924 43.1049 12.8343C43.317 12.7558 43.5291 12.6941 43.7357 12.638C44.1041 12.5427 44.4725 12.4867 44.8409 12.4699C45.2149 12.4586 45.6001 12.4923 45.9964 12.582C46.3313 12.6605 46.6328 12.7782 46.8951 12.9408C47.1631 13.1034 47.364 13.3108 47.5036 13.5518C47.6431 13.7985 47.7045 14.0788 47.6766 14.3816C47.6487 14.6955 47.5036 15.0207 47.2356 15.3682C46.923 15.7775 46.5267 16.0914 46.0467 16.3101C45.5666 16.5287 45.081 16.6577 44.5842 16.7025C44.0929 16.7474 43.6464 16.7249 43.2389 16.6352L42.8593 17.0669C42.6807 17.2687 42.3792 17.3584 42.1783 17.2687L41.7317 17.0669C41.5475 16.9828 41.514 16.7754 41.648 16.5792L42.2788 15.6542C42.4239 15.4411 42.7309 15.3178 42.9542 15.3851C43.2165 15.4635 43.5794 15.542 43.9478 15.5084C44.3162 15.4748 44.6232 15.4019 44.8968 15.2673C45.1703 15.1384 45.3712 14.987 45.4996 14.8244C45.6447 14.645 45.7173 14.4769 45.7229 14.3255H45.7285ZM40.7158 17.6892C41.0005 17.6107 41.2684 17.6275 41.5196 17.7453C41.7708 17.863 41.9159 18.0536 41.955 18.3003C41.9885 18.5525 41.9215 18.7936 41.7373 19.0235C41.5531 19.2533 41.3075 19.4159 41.0005 19.4888C40.699 19.5617 40.4311 19.528 40.1855 19.3879C39.9399 19.2477 39.8171 19.0571 39.7947 18.8104C39.7724 18.5694 39.8506 18.3395 40.0292 18.1265C40.2078 17.9134 40.4311 17.7733 40.7102 17.6948L40.7158 17.6892Z" fill="#C4E1D9"/>
<path d="M27.0512 39.6321C26.8726 39.5761 26.6995 39.5929 26.5265 39.6714C26.359 39.7498 26.1972 39.89 26.052 40.0862C25.8622 40.3385 25.745 40.6468 25.6948 41C25.6669 41.2187 25.6669 41.4485 25.7004 41.6784C25.7338 41.9082 25.611 42.11 25.4101 42.11H24.9468C24.7235 42.11 24.5002 41.869 24.4667 41.5943C24.4388 41.37 24.4221 41.1514 24.4165 40.944C24.4109 40.5683 24.4556 40.2039 24.5504 39.8564C24.6509 39.5032 24.8128 39.1556 25.0417 38.8136C25.237 38.5277 25.4715 38.2922 25.745 38.1016C26.0241 37.911 26.3255 37.7933 26.6605 37.7484C26.9954 37.7036 27.3415 37.7484 27.6876 37.8718C28.0392 38.0007 28.3798 38.2418 28.7035 38.5894C29.0831 38.9986 29.3343 39.4583 29.4459 39.9517C29.5576 40.445 29.5687 40.9215 29.485 41.3868C29.4013 41.8409 29.245 42.239 29.0329 42.581L29.4236 43.0463C29.6078 43.2649 29.619 43.5564 29.4627 43.719L29.111 44.0722C28.9659 44.218 28.7147 44.1955 28.5249 44.0161L27.6318 43.1808C27.4196 42.9846 27.3694 42.6707 27.5145 42.4857C27.682 42.267 27.8774 41.9587 27.9443 41.6111C28.0113 41.2635 28.0113 40.9608 27.9388 40.6749C27.8662 40.3889 27.749 40.1591 27.5983 39.9909C27.4252 39.8059 27.2522 39.6826 27.0735 39.6265L27.0512 39.6321ZM29.5185 45.171C29.5073 44.8907 29.6022 44.6496 29.8088 44.459C30.0153 44.2684 30.2665 44.1787 30.5512 44.2124C30.8414 44.246 31.0926 44.3749 31.2936 44.5936C31.4945 44.8122 31.6062 45.0813 31.6062 45.3728C31.6062 45.6587 31.4945 45.8942 31.2713 46.0792C31.048 46.2642 30.8024 46.3315 30.5233 46.2922C30.2442 46.253 30.0097 46.1241 29.8143 45.9054C29.619 45.6868 29.5297 45.4513 29.5185 45.171Z" fill="#FFF5D6"/>
<path d="M49.1506 63.239C49.2455 63.0708 49.2902 62.897 49.2902 62.712C49.2902 62.527 49.2344 62.3364 49.1283 62.1514C48.9888 61.8991 48.7822 61.7085 48.4975 61.5852C48.3189 61.5067 48.118 61.4619 47.9003 61.4562C47.6658 61.445 47.5263 61.2544 47.5877 61.0022L47.7272 60.4023C47.7942 60.0996 48.1012 59.8641 48.3691 59.8977C48.5868 59.9202 48.7878 59.965 48.9776 60.0155C49.3069 60.1108 49.5916 60.2621 49.8372 60.4696C50.0773 60.6714 50.2782 60.9405 50.4345 61.2712C50.5629 61.5403 50.641 61.8319 50.6634 62.1402C50.6857 62.4429 50.6522 62.7569 50.5629 63.0708C50.4736 63.3848 50.334 63.6819 50.1387 63.979C49.9433 64.2705 49.6865 64.5396 49.3683 64.7863C48.9888 65.0778 48.6148 65.2628 48.2463 65.3357C47.8779 65.4086 47.5095 65.4086 47.1746 65.3189C46.8341 65.2292 46.5382 65.0778 46.287 64.8648L45.8126 65.2012C45.5893 65.3581 45.3213 65.3637 45.1985 65.2068L44.9194 64.848C44.7966 64.6966 44.858 64.4387 45.059 64.2593L46.0303 63.396C46.2591 63.1942 46.5661 63.1717 46.7057 63.3511C46.862 63.553 47.0853 63.7828 47.3644 63.8781C47.6267 63.9678 47.8723 64.0014 48.118 63.951C48.358 63.9061 48.5645 63.8164 48.732 63.6875C48.9218 63.5417 49.0613 63.3904 49.1562 63.2222L49.1506 63.239ZM43.7695 65.218C44.0598 65.218 44.2942 65.3189 44.4561 65.5207C44.618 65.7225 44.6682 65.9412 44.6012 66.1935C44.5343 66.4457 44.3891 66.6532 44.1658 66.827C43.9426 67.0007 43.6802 67.0961 43.4011 67.1073C43.1164 67.1185 42.8876 67.0344 42.7089 66.8438C42.5303 66.6532 42.4577 66.4289 42.5136 66.1654C42.5694 65.9019 42.7201 65.6721 42.9657 65.4871C43.2113 65.3021 43.4737 65.218 43.7751 65.218H43.7695Z" fill="#C2B8D3"/>
</svg>
