<svg width="50" height="51" viewBox="0 0 50 51" fill="none" xmlns="http://www.w3.org/2000/svg">
<path d="M25.0001 46.5641C36.506 46.5641 45.8334 37.2367 45.8334 25.7308C45.8334 14.2249 36.506 4.89746 25.0001 4.89746C13.4941 4.89746 4.16675 14.2249 4.16675 25.7308C4.16675 37.2367 13.4941 46.5641 25.0001 46.5641Z" fill="#513481"/>
<path d="M25.0001 43.3141C34.7111 43.3141 42.5834 35.4418 42.5834 25.7308C42.5834 16.0198 34.7111 8.14746 25.0001 8.14746C15.2891 8.14746 7.41675 16.0198 7.41675 25.7308C7.41675 35.4418 15.2891 43.3141 25.0001 43.3141Z" fill="#77609D"/>
<path d="M38.213 14.1289L11.7917 37.3373C9.0649 34.2401 7.41675 30.1799 7.41675 25.7308C7.41675 16.0225 15.2917 8.14746 25.0001 8.14746C30.264 8.14746 34.9908 10.4623 38.213 14.1289Z" fill="#8672A8"/>
<path d="M31.6207 27.1704C31.2086 26.4945 30.6253 25.9389 29.8568 25.5037C29.4308 25.2584 28.9494 25.0593 28.4401 24.888C29.3336 24.5454 30.0744 24.0917 30.6438 23.513C31.3475 22.8 31.6994 21.9111 31.6994 20.8417C31.6994 19.8787 31.4447 19.0084 30.9401 18.2259C30.4355 17.4435 29.6901 16.8185 28.7086 16.3556C27.7318 15.8926 26.5373 15.6611 25.1299 15.6611C23.8105 15.6611 22.6577 15.9158 21.6577 16.4204C20.6623 16.925 19.8892 17.6241 19.3475 18.5037C19.0142 19.0408 18.7827 19.6241 18.6577 20.2445C18.5327 20.8648 19.0605 21.4806 19.7133 21.4806H21.8614C22.3012 21.4806 22.6484 21.1658 22.7873 20.7491C22.8984 20.4158 23.0929 20.1241 23.3707 19.8787C23.8336 19.4713 24.4216 19.263 25.1346 19.263C25.616 19.263 26.0049 19.3371 26.3105 19.4898C26.616 19.6426 26.8429 19.8602 27.0049 20.1426C27.167 20.425 27.2457 20.7491 27.2457 21.1056C27.2457 21.4435 27.167 21.763 27.0049 22.0685C26.8429 22.3741 26.6068 22.638 26.2966 22.8695C25.9864 23.1009 25.6207 23.2815 25.1994 23.4158C25.0466 23.4667 24.8846 23.5037 24.7179 23.5361C24.1947 23.6334 23.8012 24.0593 23.8012 24.5917V25.5176C23.8012 26.0639 24.2225 26.5176 24.7642 26.5732C25.0512 26.6056 25.3197 26.6519 25.5651 26.7121C26.0605 26.8371 26.4771 27.0176 26.8058 27.2584C27.1346 27.4991 27.3799 27.7815 27.542 28.1009C27.704 28.4204 27.7827 28.7769 27.7827 29.1704C27.7827 29.6889 27.667 30.1241 27.4355 30.4806C27.204 30.8371 26.8892 31.0963 26.4864 31.2537C26.0836 31.4111 25.6207 31.4945 25.0836 31.4945C24.5836 31.4945 24.1068 31.3972 23.6531 31.1982C23.1994 31.0037 22.8383 30.7028 22.5697 30.2908C22.4355 30.0871 22.3383 29.8556 22.2688 29.6056C22.1438 29.1287 21.7549 28.7722 21.2642 28.7722H18.9308C18.2318 28.7722 17.7364 29.4297 17.8938 30.1102C17.9771 30.4621 18.0883 30.8047 18.2364 31.1472C18.5651 31.9111 19.0373 32.5963 19.6531 33.2028C20.2688 33.8093 21.0188 34.2815 21.9077 34.6195C22.7966 34.9574 23.8058 35.1287 24.9262 35.1287C26.4586 35.1287 27.7642 34.8926 28.8521 34.4204C29.9401 33.9482 30.7734 33.3 31.3614 32.4713C31.9494 31.6426 32.241 30.6889 32.241 29.6009C32.241 28.6565 32.0373 27.8463 31.6253 27.1704H31.6207Z" fill="#FFEFBB"/>
</svg>
