<svg width="181" height="119" viewBox="0 0 181 119" fill="none" xmlns="http://www.w3.org/2000/svg">
<g clip-path="url(#clip0_2505_110837)">
<path d="M0.499695 -0.00128174H180.5V119H0.499695V-0.00128174Z" fill="white"/>
<path d="M0.499695 -0.00128174H180.5V31.5776H0.499695V-0.00128174Z" fill="black"/>
<path d="M0.499512 87.4218H180.5V118.997H0.499512V87.4218Z" fill="#496E2D"/>
<path d="M0.499512 39.4907H180.5V79.5135H0.499512V39.4907Z" fill="#A2001D"/>
<path d="M114.147 18.9901L105.153 14.8731L90.4995 47.7778L75.8457 14.8731L66.8517 18.9901L85.0447 59.4982L66.8517 100.007L75.8457 104.123L90.4995 71.2189L105.153 104.123L114.147 100.007L95.9544 59.4982L114.147 18.9901Z" fill="white"/>
<path d="M96.6084 22.8697C93.1265 19.0989 90.4996 16.9314 90.4996 16.9314C90.4996 16.9314 87.8727 19.0985 84.3909 22.8693V96.1265C87.8727 99.8974 90.4996 102.065 90.4996 102.065C90.4996 102.065 93.1265 99.8981 96.6084 96.1269V22.8697Z" fill="white"/>
<path d="M73.9902 36.9179V82.0781C77.6693 88.5424 82.1725 93.8417 85.5468 97.3545V21.6415C82.1721 25.1543 77.669 30.4532 73.9902 36.9179ZM107.009 36.9179C103.33 30.4532 98.8267 25.1543 95.4524 21.6415V97.3548C98.8271 93.8417 103.33 88.5428 107.009 82.0784V36.9179Z" fill="#A2001D"/>
<path d="M107.009 36.9178V82.0781C110.733 75.5328 113.613 67.7935 113.613 59.4981C113.613 51.2027 110.733 43.4634 107.009 36.9178ZM73.9902 36.9178V82.0781C70.2657 75.5328 67.3864 67.7935 67.3864 59.4981C67.3864 51.2027 70.2657 43.4634 73.9902 36.9178Z" fill="black"/>
</g>
<defs>
<clipPath id="clip0_2505_110837">
<rect width="180" height="119" fill="white" transform="translate(0.5)"/>
</clipPath>
</defs>
</svg>
