<svg width="100" height="100" viewBox="0 0 100 100" fill="none" xmlns="http://www.w3.org/2000/svg">
<rect width="100" height="100" fill="white"/>
<path d="M46.7913 86.7361C71.4234 86.7361 91.391 60.8357 91.391 28.8848V13.845H53.2093C28.5772 13.845 8.61655 39.7315 8.61655 71.6894V86.7361H46.7913Z" fill="#FFDF77"/>
<path d="M91.0652 13.845L8.61655 86.2925V71.6894C8.61655 39.7315 28.5842 13.845 53.2093 13.845H91.0652Z" fill="#FFE799"/>
<path d="M68.6594 69.2989L54.4585 56.134H42.7026L28.5017 69.2989H68.6594Z" fill="#A495BD"/>
<path d="M54.5757 56.0927C54.0232 57.0044 52.6279 57.5431 49.0017 57.6191C45.41 57.6951 43.0755 57.2392 42.6472 56.0927H54.5757Z" fill="#8672A8"/>
<path d="M55.0181 38.2239V41.187C55.0181 41.4149 52.2759 41.6014 48.8846 41.6014C45.4932 41.6014 42.7511 41.4149 42.7511 41.187V38.2239C42.7511 37.989 45.5001 37.8094 48.8846 37.8094C52.269 37.8094 55.0181 37.9959 55.0181 38.2239Z" fill="#F0A700"/>
<path d="M44.9546 41.0351V38.217C44.9546 38.0098 47.1234 37.8441 49.983 37.8095C49.6238 37.8095 49.2577 37.8026 48.8778 37.8026C45.4934 37.8026 42.7444 37.9891 42.7444 38.217V41.1802C42.7444 41.4081 45.4934 41.6706 48.8778 41.5946C49.2646 41.5877 53.402 41.5808 54.4311 41.3598C50.9154 41.2838 44.9546 41.2354 44.9546 41.0351Z" fill="#C88B00"/>
<path d="M56.8687 42.009V44.9722C56.8687 45.2001 54.1266 45.3866 50.7352 45.3866C47.3439 45.3866 44.6017 45.2001 44.6017 44.9722V42.009C44.6017 41.7742 47.3508 41.5946 50.7352 41.5946C54.1197 41.5946 56.8687 41.7811 56.8687 42.009Z" fill="#F0A700"/>
<path d="M46.8057 44.8271V42.009C46.8057 41.8018 48.9745 41.636 51.834 41.6015C51.4748 41.6015 51.1088 41.5945 50.7289 41.5945C47.3444 41.5945 44.5954 41.781 44.5954 42.009V44.9721C44.5954 45.2 47.3444 45.4625 50.7289 45.3865C51.1157 45.3796 55.253 45.3727 56.2822 45.1517C52.7665 45.0757 46.8057 45.0274 46.8057 44.8271Z" fill="#C88B00"/>
<path d="M54.0512 45.7181V48.6813C54.0512 48.9092 51.3091 49.0957 47.9177 49.0957C44.5263 49.0957 41.7842 48.9092 41.7842 48.6813V45.7181C41.7842 45.4833 44.5332 45.3037 47.9177 45.3037C51.3022 45.3037 54.0512 45.4902 54.0512 45.7181Z" fill="#F0A700"/>
<path d="M43.9877 48.5362V45.7181C43.9877 45.5109 46.1565 45.3452 49.016 45.3106C48.6569 45.3106 48.2908 45.3037 47.9109 45.3037C44.5264 45.3037 41.7774 45.4902 41.7774 45.7181V48.6813C41.7774 48.9092 44.5264 49.1717 47.9109 49.0957C48.2977 49.0888 52.435 49.0819 53.4642 48.8608C49.9485 48.7849 43.9877 48.7365 43.9877 48.5362Z" fill="#C88B00"/>
<path d="M56.3028 49.3513V52.3144C56.3028 52.5424 53.5607 52.7289 50.1693 52.7289C46.778 52.7289 44.0359 52.5424 44.0359 52.3144V49.3513C44.0359 49.1165 46.7849 48.9369 50.1693 48.9369C53.5538 48.9369 56.3028 49.1234 56.3028 49.3513Z" fill="#F0A700"/>
<path d="M46.2326 52.1693V49.3513C46.2326 49.144 48.4014 48.9783 51.2609 48.9437C50.9018 48.9437 50.5357 48.9368 50.1558 48.9368C46.7713 48.9368 44.0223 49.1233 44.0223 49.3513V52.3144C44.0223 52.5423 46.7713 52.8048 50.1558 52.7288C50.5426 52.7219 54.6799 52.715 55.7091 52.494C52.1934 52.418 46.2326 52.3696 46.2326 52.1693Z" fill="#C88B00"/>
<path d="M54.6864 53.088V56.0511C54.6864 56.2791 51.9443 56.4656 48.5529 56.4656C45.1615 56.4656 42.4194 56.2791 42.4194 56.0511V53.088C42.4194 52.8532 45.1684 52.6736 48.5529 52.6736C51.9374 52.6736 54.6864 52.8601 54.6864 53.088Z" fill="#F0A700"/>
<path d="M44.6232 55.8992V53.0811C44.6232 52.8739 46.792 52.7081 49.6515 52.6736C49.2923 52.6736 48.9263 52.6667 48.5464 52.6667C45.1619 52.6667 42.4129 52.8532 42.4129 53.0811V56.0442C42.4129 56.2722 45.1619 56.5346 48.5464 56.4587C48.9332 56.4518 53.0705 56.4449 54.0997 56.2238C50.584 56.1478 44.6232 56.0995 44.6232 55.8992Z" fill="#C88B00"/>
<path d="M48.5806 38.2103C51.9719 38.2103 54.721 35.4612 54.721 32.07C54.721 28.6787 51.9719 25.9296 48.5806 25.9296C45.1894 25.9296 42.4402 28.6787 42.4402 32.07C42.4402 35.4612 45.1894 38.2103 48.5806 38.2103Z" fill="#F1A800"/>
<path d="M48.5808 36.4147C50.9802 36.4147 52.9253 34.4696 52.9253 32.0701C52.9253 29.6707 50.9802 27.7256 48.5808 27.7256C46.1814 27.7256 44.2362 29.6707 44.2362 32.0701C44.2362 34.4696 46.1814 36.4147 48.5808 36.4147Z" fill="#F5C555"/>
<path fill-rule="evenodd" clip-rule="evenodd" d="M32.4805 35.1367H28.7645V66.9369H32.4805V35.1367Z" fill="#674E92"/>
<path fill-rule="evenodd" clip-rule="evenodd" d="M27.0445 71.1019V67.9868C27.0445 67.2201 27.6731 66.5984 28.4398 66.5984H32.5495C33.3161 66.5984 33.9447 67.2201 33.9447 67.9868V71.1019H27.0445Z" fill="#5A3F89"/>
<path fill-rule="evenodd" clip-rule="evenodd" d="M27.0445 67.9935C27.0445 67.2269 27.6731 66.6052 28.4398 66.6052H31.2095C30.4497 66.6052 29.8281 67.2338 29.8281 67.9935V69.3819H27.0514V67.9935H27.0445Z" fill="#5A3F89"/>
<path fill-rule="evenodd" clip-rule="evenodd" d="M24.9723 71.3781V69.6928C24.9723 68.7603 25.732 68.0005 26.6645 68.0005H34.5869C35.5124 68.0005 36.2791 68.7603 36.2791 69.6928V71.3781H24.9723Z" fill="#674E92"/>
<path fill-rule="evenodd" clip-rule="evenodd" d="M24.9723 69.6928C24.9723 68.7603 25.732 68.0005 26.6645 68.0005H29.4411C28.5087 68.0005 27.7489 68.7603 27.7489 69.6928V71.3781H24.9723V69.6928Z" fill="#5A3F89"/>
<path fill-rule="evenodd" clip-rule="evenodd" d="M32.4801 35.1367V36.7875C31.9483 37.1398 31.3128 37.3332 30.6359 37.3332C29.959 37.3332 29.296 37.126 28.7572 36.7668V35.1367H32.4801Z" fill="#5A3F89"/>
<path d="M30.6358 36.1037C32.5215 36.1037 34.0479 34.5773 34.0479 32.6916C34.0479 30.806 32.5215 29.2795 30.6358 29.2795C28.7502 29.2795 27.2238 30.806 27.2238 32.6916C27.2238 34.5773 28.7502 36.1037 30.6358 36.1037Z" fill="#674E92"/>
<path d="M28.8473 33.9557C27.8873 32.5812 28.0876 30.737 29.2341 29.5905C29.0545 29.6733 28.8819 29.77 28.7161 29.8875C27.1689 30.965 26.7959 33.0923 27.8734 34.6326C28.9509 36.1729 31.0783 36.5528 32.6186 35.4753C32.7844 35.3579 32.9363 35.2266 33.0745 35.0885C31.6033 35.7723 29.8074 35.3302 28.8473 33.9488V33.9557Z" fill="#5A3F89"/>
<path d="M33.1643 35.2335H28.0116C27.4432 35.2335 26.9825 35.6942 26.9825 36.2626C26.9825 36.831 27.4432 37.2918 28.0116 37.2918H33.1643C33.7327 37.2918 34.1934 36.831 34.1934 36.2626C34.1934 35.6942 33.7327 35.2335 33.1643 35.2335Z" fill="#5A3F89"/>
<path fill-rule="evenodd" clip-rule="evenodd" d="M68.3972 35.1368H64.6812V66.937H68.3972V35.1368Z" fill="#674E92"/>
<path fill-rule="evenodd" clip-rule="evenodd" d="M62.9612 71.102V67.9869C62.9612 67.2202 63.5897 66.5986 64.3564 66.5986H68.4661C69.2328 66.5986 69.8613 67.2202 69.8613 67.9869V71.102H62.9612Z" fill="#5A3F89"/>
<path fill-rule="evenodd" clip-rule="evenodd" d="M62.9612 67.9937C62.9612 67.227 63.5897 66.6053 64.3564 66.6053H67.1261C66.3664 66.6053 65.7447 67.2339 65.7447 67.9937V69.382H62.9681V67.9937H62.9612Z" fill="#5A3F89"/>
<path fill-rule="evenodd" clip-rule="evenodd" d="M60.8889 71.3782V69.6929C60.8889 68.7604 61.6487 68.0007 62.5812 68.0007H70.5036C71.4291 68.0007 72.1958 68.7604 72.1958 69.6929V71.3782H60.8889Z" fill="#674E92"/>
<path fill-rule="evenodd" clip-rule="evenodd" d="M60.8889 69.6929C60.8889 68.7604 61.6487 68.0007 62.5812 68.0007H65.3578C64.4253 68.0007 63.6656 68.7604 63.6656 69.6929V71.3782H60.8889V69.6929Z" fill="#5A3F89"/>
<path fill-rule="evenodd" clip-rule="evenodd" d="M68.3972 35.1368V36.7876C67.8653 37.1399 67.2299 37.3333 66.553 37.3333C65.8761 37.3333 65.213 37.1261 64.6743 36.7669V35.1368H68.3972Z" fill="#5A3F89"/>
<path d="M66.5525 36.1038C68.4381 36.1038 69.9646 34.5774 69.9646 32.6918C69.9646 30.8061 68.4381 29.2797 66.5525 29.2797C64.6669 29.2797 63.1404 30.8061 63.1404 32.6918C63.1404 34.5774 64.6669 36.1038 66.5525 36.1038Z" fill="#674E92"/>
<path d="M64.764 33.9558C63.8039 32.5813 64.0042 30.7371 65.1508 29.5906C64.9712 29.6735 64.7985 29.7702 64.6327 29.8876C63.0855 30.9651 62.7126 33.0925 63.7901 34.6327C64.8676 36.173 66.9949 36.5529 68.5352 35.4754C68.701 35.358 68.8529 35.2267 68.9911 35.0886C67.5199 35.7724 65.724 35.3304 64.764 33.9489V33.9558Z" fill="#5A3F89"/>
<path d="M69.0809 35.2336H63.9283C63.3599 35.2336 62.8991 35.6943 62.8991 36.2627C62.8991 36.8311 63.3599 37.2919 63.9283 37.2919H69.0809C69.6493 37.2919 70.1101 36.8311 70.1101 36.2627C70.1101 35.6943 69.6493 35.2336 69.0809 35.2336Z" fill="#5A3F89"/>
<path d="M47.6548 48.2877C47.3785 48.2877 47.1022 48.2739 46.8259 48.2601C41.7009 47.9631 37.0041 45.2003 33.2466 40.2824C32.701 39.5641 32.8391 38.5418 33.5506 37.9962C34.2689 37.4505 35.2911 37.5818 35.8368 38.3001C39.0002 42.4374 42.8682 44.7582 47.0124 45C51.6333 45.2624 56.5373 42.99 60.8128 38.5833C61.4413 37.934 62.4774 37.9202 63.1197 38.5488C63.769 39.1773 63.7828 40.2064 63.1543 40.8557C58.4575 45.7045 52.9801 48.3223 47.6548 48.2877Z" fill="#B00020"/>
<path d="M36.4034 38.8388C36.2446 38.6385 36.0857 38.4382 35.9268 38.231C35.5124 37.6923 34.8493 37.4643 34.2208 37.5818C34.0965 37.188 33.7373 36.8979 33.3022 36.8979C32.7634 36.8979 32.3214 37.3262 32.3214 37.8718C32.3214 38.2725 32.5562 38.6109 32.8946 38.7698C32.7358 39.3154 32.8325 39.944 33.2055 40.4206C33.3712 40.6416 33.5439 40.8557 33.7166 41.0629C33.8202 41.1941 34.0136 41.208 34.1448 41.1044L36.3689 39.2602C36.4932 39.1566 36.5139 38.9701 36.4103 38.8457L36.4034 38.8388ZM32.7634 37.8718C32.7634 37.5817 32.9982 37.3469 33.2883 37.3469C33.5232 37.3469 33.7166 37.5058 33.7787 37.7199C33.6199 37.7959 33.4748 37.8857 33.3367 38.01C33.2262 38.1136 33.1433 38.2241 33.0673 38.3484C32.8877 38.2655 32.7565 38.0791 32.7565 37.8718H32.7634Z" fill="#492B7C"/>
<path d="M64.8394 37.934C64.8878 37.3952 64.4872 36.9256 63.9484 36.8772C63.5133 36.8427 63.1265 37.0913 62.9676 37.4712C62.3529 37.2985 61.6691 37.4574 61.2063 37.9547C61.0267 38.1481 60.854 38.3346 60.6745 38.5142C60.557 38.6316 60.557 38.8181 60.6745 38.9355L62.719 40.98C62.8364 41.0974 63.0298 41.1043 63.1541 40.98C63.3475 40.7866 63.534 40.5863 63.7205 40.386C64.128 39.944 64.2938 39.3292 64.1833 38.7698C64.5355 38.6454 64.8049 38.3277 64.8394 37.934ZM64.0382 38.3415C63.976 38.2172 63.9001 38.0929 63.8034 37.9823C63.679 37.8442 63.5409 37.7406 63.3889 37.6508C63.4718 37.4436 63.679 37.3055 63.9139 37.3262C64.204 37.3538 64.4181 37.6094 64.3905 37.8926C64.3697 38.1067 64.2247 38.2794 64.0382 38.3415Z" fill="#492B7C"/>
</svg>
