<svg fill="none" xmlns="http://www.w3.org/2000/svg" viewBox="0 0 190 44">
    <g clip-path="url(#a)">
        <path d="M23.472 15.819c0-8.735 7.08-15.816 15.816-15.816H43.4v27.583c0 8.735-7.081 15.816-15.816 15.816h-4.112V15.82ZM0 13.541c0 8.735 7.081 15.817 15.816 15.817h4.112V15.819c0-8.735-7.08-15.816-15.816-15.816H0V13.54Z" fill="#FFCF33" />
        <path d="M19.928 29.242.12.002h3.992c8.735 0 15.816 7.082 15.816 15.817v13.423Z" fill="#FFD755" />
        <path d="M74.493 23.474c8.735 0 15.817 7.081 15.817 15.816v4.112H62.725c-8.735 0-15.816-7.08-15.816-15.816v-4.112h27.583Z" fill="#4FA58C" />
        <path d="m84.529 43.402-13.5-19.928h3.464c8.735 0 15.816 7.081 15.816 15.816v4.112h-5.78Z" fill="#6CB49F" />
        <path d="M74.493 19.931c8.735 0 15.817-7.08 15.817-15.816V.003H62.725c-8.735 0-15.816 7.081-15.816 15.816v4.112h27.583Z" fill="#4FA58C" />
        <path d="M68.629 19.931 56.109 1.45A15.757 15.757 0 0 1 62.725.003h27.583v4.112c0 8.735-7.08 15.816-15.816 15.816H68.63Z" fill="#6CB49F" />
        <path d="M162.856 23.487v19.912h-4.872v-1.698c-.951 1.132-2.377 1.698-4.28 1.698-1.327 0-2.539-.305-3.633-.916-1.095-.629-1.965-1.518-2.611-2.668-.628-1.15-.942-2.48-.942-3.99 0-1.51.314-2.83.942-3.962.646-1.15 1.516-2.03 2.611-2.641 1.094-.611 2.306-.917 3.633-.917 1.741 0 3.087.503 4.038 1.51v-3.201c0-1.727 1.4-3.127 3.127-3.127h1.987Zm-8.075 15.842c.879 0 1.606-.305 2.18-.916.575-.629.862-1.491.862-2.588 0-1.078-.287-1.922-.862-2.533-.556-.611-1.283-.917-2.18-.917-.897 0-1.633.306-2.207.917-.574.61-.861 1.455-.861 2.533 0 1.096.287 1.959.861 2.588.574.61 1.31.916 2.207.916ZM141.239 30.305a4.732 4.732 0 0 1 2.044-1.51c.854-.348 1.826-.522 2.916-.522v4.695a10.507 10.507 0 0 0-1.172-.083c-1.108 0-1.98.302-2.616.906-.618.604-.926 1.528-.926 2.773v6.835h-5.178V28.273h4.932v2.032Z" fill="#fff" />
        <path fill-rule="evenodd" clip-rule="evenodd" d="M121.909 42.413c1.046.658 2.23.986 3.552.986.967 0 1.845-.189 2.635-.568a5.11 5.11 0 0 0 1.332-.908v1.476h4.9V28.273h-4.9v1.506a5.14 5.14 0 0 0-1.362-.938c-.77-.378-1.638-.568-2.605-.568-1.322 0-2.506.33-3.552.987-1.027.658-1.846 1.554-2.457 2.69-.592 1.136-.889 2.432-.889 3.886 0 1.455.297 2.75.889 3.886.611 1.136 1.43 2.033 2.457 2.69Zm6.808-4.095c-.592.637-1.371.956-2.338.956-.612 0-1.165-.15-1.658-.448a3.131 3.131 0 0 1-1.155-1.226c-.276-.518-.414-1.106-.414-1.764 0-.677.138-1.275.414-1.793a3.186 3.186 0 0 1 1.155-1.196c.493-.299 1.056-.448 1.687-.448.632 0 1.184.15 1.658.448.494.28.869.678 1.125 1.196.276.518.415 1.116.415 1.793 0 .997-.297 1.824-.889 2.482Z" fill="#fff" />
        <path d="M110.331 43.4c-2.006 0-3.811-.42-5.416-1.259-1.587-.857-2.836-2.042-3.748-3.556-.911-1.513-1.367-3.227-1.367-5.142 0-1.915.456-3.629 1.367-5.142a9.437 9.437 0 0 1 3.748-3.529c1.605-.857 3.41-1.285 5.416-1.285 1.75 0 3.328.31 4.732.93a9.105 9.105 0 0 1 3.501 2.68l-3.447 3.118c-1.24-1.495-2.744-2.242-4.513-2.242-1.039 0-1.969.228-2.79.683a4.842 4.842 0 0 0-1.887 1.942c-.438.82-.657 1.77-.657 2.845 0 1.076.219 2.033.657 2.872a4.888 4.888 0 0 0 1.887 1.915c.821.456 1.751.684 2.79.684 1.769 0 3.273-.748 4.513-2.243l3.447 3.118a9.104 9.104 0 0 1-3.501 2.68c-1.404.62-2.982.93-4.732.93Z" fill="#fff" />
        <path fill-rule="evenodd" clip-rule="evenodd" d="M185.012 19.849 189.99 4.6h-4.603l-2.749 8.631-2.678-8.636h-4.354l-2.748 8.557-2.654-8.552h-4.931l4.978 15.249h4.904l2.524-7.665 2.428 7.665h4.905Z" fill="#fff" />
        <path d="M157.272 19.913c-1.627 0-3.095-.337-4.405-1.011-1.309-.674-2.337-1.61-3.085-2.808-.73-1.198-1.094-2.555-1.094-4.071 0-1.497.364-2.845 1.094-4.043a7.57 7.57 0 0 1 3.057-2.78c1.31-.673 2.787-1.01 4.433-1.01s3.123.337 4.432 1.01c1.309.655 2.329 1.582 3.058 2.78.729 1.18 1.094 2.527 1.094 4.043s-.365 2.873-1.094 4.071c-.729 1.198-1.749 2.134-3.058 2.808-1.309.674-2.786 1.01-4.432 1.01Zm0-4.24c.935 0 1.702-.318 2.3-.955.599-.655.898-1.553.898-2.695 0-1.123-.299-2.003-.898-2.64-.598-.636-1.365-.954-2.3-.954-.935 0-1.702.318-2.301.955-.598.636-.897 1.516-.897 2.639 0 1.142.299 2.04.897 2.695.599.637 1.366.955 2.301.955ZM134.059 0h2.202c1.727 0 3.127 1.4 3.127 3.127v16.786h-5.329V0ZM141.858 0h2.203c1.727 0 3.128 1.4 3.128 3.127v16.786h-5.331V0ZM132.604 12.08c0 .037-.028.476-.085 1.319h-11.052c.224.786.654 1.394 1.29 1.825.655.412 1.468.617 2.441.617.729 0 1.355-.102 1.879-.308.542-.206 1.085-.543 1.627-1.011l2.806 2.92c-1.478 1.647-3.638 2.47-6.481 2.47-1.776 0-3.338-.336-4.685-1.01-1.346-.674-2.393-1.61-3.142-2.808-.729-1.198-1.094-2.555-1.094-4.071 0-1.497.356-2.836 1.066-4.015a7.62 7.62 0 0 1 3.002-2.808c1.272-.673 2.703-1.01 4.292-1.01 1.515 0 2.89.318 4.124.954a6.946 6.946 0 0 1 2.918 2.724c.729 1.179 1.094 2.583 1.094 4.211Zm-8.108-4.1c-.823 0-1.515.234-2.076.702-.542.468-.888 1.104-1.038 1.91h6.228c-.149-.806-.505-1.442-1.066-1.91-.542-.468-1.225-.702-2.048-.702ZM111.057 12.607V19.9h-5.554v-7.378L98.013 0h4.667c.741 0 1.428.39 1.808 1.027l4.044 6.778 4.044-6.778A2.106 2.106 0 0 1 114.385 0h4.19l-7.518 12.607Z" fill="#fff" />
    </g>
    <defs>
        <clipPath id="a">
            <path fill="#fff" d="M0 0h190v43.399H0z" />
        </clipPath>
    </defs>
</svg>