<svg width="80" height="80" viewBox="0 0 80 80" fill="none" xmlns="http://www.w3.org/2000/svg">
<path d="M37.4331 69.3889C57.1387 69.3889 73.1128 48.6686 73.1128 23.1078V11.076H42.5674C22.8618 11.076 6.89325 31.7852 6.89325 57.3515V69.3889H37.4331Z" fill="#FFDF77"/>
<path d="M72.8522 11.076L6.89325 69.034V57.3515C6.89325 31.7852 22.8673 11.076 42.5674 11.076H72.8522Z" fill="#FFE799"/>
<path d="M64.4126 34.4001L62.2389 38.3927C61.6138 39.5471 60.1666 39.9694 59.0178 39.3444L55.0252 37.1707C54.5184 36.8947 54.3269 36.2584 54.6085 35.7516L54.8788 35.2617C55.1547 34.7548 55.7911 34.5634 56.2979 34.8449L58.2013 35.8811C57.3115 30.9143 54.4621 26.4318 50.2499 23.5485C48.4084 22.2871 46.4206 21.3917 44.382 20.8511C43.6837 20.6653 43.267 19.9501 43.4472 19.2518C43.4472 19.2462 43.4472 19.2349 43.4529 19.2293C43.6331 18.5254 44.3539 18.0974 45.0522 18.2833C47.3835 18.8971 49.6529 19.9163 51.7534 21.358C56.5682 24.6579 59.8231 29.7824 60.8255 35.4588L62.0869 33.1443C62.3628 32.6375 62.9991 32.446 63.506 32.7276L63.9959 32.9979C64.5027 33.2738 64.6942 33.9101 64.4126 34.417V34.4001Z" fill="#4FA58C"/>
<path d="M35.0227 58.9807C35.1354 58.3219 34.7412 57.6855 34.0992 57.4941C32.2296 56.9422 30.4107 56.0975 28.7157 54.9318C24.4528 52.0092 21.5752 47.4478 20.7305 42.4134L22.4537 43.9339C22.8873 44.3168 23.5461 44.2774 23.9291 43.8438L24.3007 43.4214C24.6837 42.9878 24.6442 42.3289 24.2106 41.946L20.0153 38.2406C19.7506 38.0041 19.3959 37.8858 19.0411 37.9084C18.6863 37.9365 18.3541 38.0998 18.1232 38.3701L14.491 42.6274C14.1137 43.0666 14.17 43.7255 14.6092 44.1028L15.0372 44.4688C15.4765 44.8405 16.1353 44.7898 16.5126 44.3506L18.0556 42.5429C18.9566 48.4108 22.2622 53.7323 27.2065 57.1224C29.138 58.4457 31.216 59.4143 33.3502 60.045C34.0992 60.2647 34.8763 59.7804 35.0115 59.0089C35.0115 58.9976 35.0115 58.9864 35.0171 58.9751L35.0227 58.9807Z" fill="#4FA58C"/>
<path d="M28.8058 36.0275C35.0727 36.0275 40.1529 30.9473 40.1529 24.6804C40.1529 18.4136 35.0727 13.3333 28.8058 13.3333C22.539 13.3333 17.4587 18.4136 17.4587 24.6804C17.4587 30.9473 22.539 36.0275 28.8058 36.0275Z" fill="#F18702"/>
<path d="M28.8059 32.8121C33.2997 32.8121 36.9375 29.1686 36.9375 24.6804C36.9375 20.1867 33.294 16.5488 28.8059 16.5488C24.3121 16.5488 20.6743 20.1923 20.6743 24.6804C20.6743 29.1742 24.3177 32.8121 28.8059 32.8121Z" fill="#FFA02B"/>
<path fill-rule="evenodd" clip-rule="evenodd" d="M31.4414 24.9789C32.0777 24.8381 32.5395 24.4101 32.6465 23.5936C32.821 22.4561 31.9369 21.8535 30.698 21.4593L31.0866 19.9276L30.163 19.6798L29.8083 21.1721C29.6844 21.1384 29.5605 21.1102 29.4366 21.082C29.3127 21.0539 29.1888 21.0314 29.0649 20.9919L29.4535 19.4996L28.53 19.2519L28.1414 20.7836C28.0175 20.7611 27.8993 20.7329 27.781 20.6991C27.6965 20.6766 27.6121 20.6541 27.5389 20.6428L26.2662 20.3218L26.0184 21.3186L26.6942 21.4988C27.0489 21.572 27.1165 21.8197 27.1165 22.0337L26.6942 23.7738L26.0916 26.2291C26.0578 26.3361 25.917 26.5163 25.6693 26.443L24.9935 26.2628L24.5317 27.3272L25.7368 27.6481C25.8438 27.6763 25.9452 27.7045 26.0409 27.727C26.1704 27.7551 26.2887 27.7889 26.407 27.8283L26.0184 29.3939L26.9419 29.6416L27.3305 28.1099C27.5783 28.1437 27.8261 28.2169 28.0738 28.2901L27.6853 29.8218L28.6088 30.109L28.9974 28.5435C30.591 28.8307 31.7961 28.7237 32.2917 27.2652C32.714 26.0939 32.2917 25.4181 31.4414 24.9902V24.9789ZM28.8566 22.1013L28.3948 23.9878C28.4286 23.9991 28.468 24.0103 28.5131 24.0216C29.1325 24.1962 30.5741 24.596 30.805 23.5992C31.0246 22.6194 29.7294 22.3153 29.0649 22.1576C28.9861 22.1407 28.9129 22.1238 28.8566 22.1069V22.1013ZM28.147 24.9113L27.6515 26.9724C27.7191 26.9893 27.8035 27.0062 27.8993 27.0343C28.6876 27.2314 30.27 27.6313 30.5235 26.5838C30.7712 25.5308 29.2733 25.1816 28.4568 24.9902C28.3385 24.962 28.2315 24.9395 28.147 24.9113V24.9113Z" fill="white"/>
<path d="M52.0685 66.4198C58.3353 66.4198 63.4156 61.3395 63.4156 55.0727C63.4156 48.8059 58.3353 43.7256 52.0685 43.7256C45.8016 43.7256 40.7214 48.8059 40.7214 55.0727C40.7214 61.3395 45.8016 66.4198 52.0685 66.4198Z" fill="#F2A900"/>
<path d="M52.0686 63.1029C56.5036 63.1029 60.0989 59.5076 60.0989 55.0726C60.0989 50.6376 56.5036 47.0424 52.0686 47.0424C47.6337 47.0424 44.0384 50.6376 44.0384 55.0726C44.0384 59.5076 47.6337 63.1029 52.0686 63.1029Z" fill="#F6C655"/>
<path d="M55.1484 55.6447C55.0301 55.3454 54.8674 55.0873 54.6603 54.8654C54.4532 54.6434 54.2214 54.4525 53.9601 54.2925C53.6987 54.1325 53.4177 53.9983 53.1218 53.8847C52.7766 53.7454 52.4561 53.6215 52.1553 53.5028C51.8545 53.3841 51.6129 53.2499 51.4255 53.095C51.2382 52.9402 51.1494 52.7338 51.1494 52.4757C51.1494 52.3208 51.1839 52.1815 51.253 52.0628C51.322 51.9441 51.4305 51.846 51.5735 51.7738C51.7165 51.7015 51.8989 51.6654 52.1208 51.6654C52.3427 51.6654 52.5449 51.717 52.7273 51.815C52.9098 51.9131 53.0725 52.0576 53.2253 52.2486C53.2845 52.326 53.3437 52.4034 53.3979 52.4912C53.5459 52.7183 53.8269 52.7905 54.0538 52.6563L54.749 52.2383C55.0054 52.0834 55.0794 51.7325 54.9019 51.4847C54.7934 51.3299 54.6751 51.1854 54.5468 51.0408C54.2855 50.7467 53.9551 50.5092 53.5557 50.3286C53.3388 50.2305 53.0873 50.1634 52.8111 50.117L52.8407 49.1983C52.8506 48.9092 52.6287 48.6667 52.3476 48.6667H51.8397C51.5587 48.6667 51.3368 48.9092 51.3467 49.1983L51.3762 50.117C51.0508 50.1686 50.7451 50.2615 50.4739 50.3957C50.0202 50.6176 49.6603 50.917 49.4039 51.2834C49.1425 51.655 49.0143 52.0576 49.0143 52.4963C49.0143 52.935 49.0932 53.3118 49.2559 53.6267C49.4186 53.9415 49.6159 54.2099 49.8624 54.4318C50.104 54.6538 50.3605 54.8396 50.6267 54.9789C50.893 55.1234 51.1346 55.2318 51.3467 55.3092C51.682 55.4486 51.9877 55.5776 52.2539 55.6963C52.5202 55.815 52.7372 55.9544 52.895 56.1144C53.0577 56.2744 53.1366 56.4757 53.1366 56.7131C53.1366 56.9041 53.0971 57.0641 53.0182 57.1983C52.9394 57.3325 52.8259 57.4305 52.6731 57.5028C52.5202 57.5699 52.323 57.606 52.0764 57.606C51.7806 57.606 51.5094 57.5441 51.2678 57.4254C51.0261 57.3067 50.7993 57.126 50.5971 56.8834C50.4788 56.7492 50.3654 56.5892 50.247 56.4138C50.0942 56.1815 49.7835 56.1247 49.5616 56.2899L48.8762 56.7957C48.6593 56.9557 48.6001 57.2705 48.748 57.5028C48.9009 57.7505 49.0932 57.9828 49.3151 58.1996C49.6701 58.5454 50.0794 58.8189 50.5429 59.0305C50.8141 59.1544 51.0952 59.237 51.3812 59.2886L51.3516 60.1299C51.3417 60.4241 51.5636 60.6615 51.8447 60.6615H52.3378C52.6188 60.6615 52.8407 60.4189 52.8309 60.1299L52.8013 59.2886C53.1563 59.237 53.4818 59.1596 53.7727 59.0357C54.2658 58.8292 54.6455 58.5247 54.9216 58.1273C55.1928 57.7247 55.3259 57.2499 55.3259 56.6873C55.3259 56.2899 55.2668 55.9441 55.1484 55.6499V55.6447Z" fill="white"/>
</svg>
