<svg width="535" height="388" viewBox="0 0 535 388" fill="none" xmlns="http://www.w3.org/2000/svg">
<g clip-path="url(#clip0_5203_61118)">
<path d="M334.667 81.3483H521.936C524.92 81.3483 527.333 79.0708 527.333 76.2535V20.8002C527.333 17.9866 524.92 15.7054 521.936 15.7054H507.232L506.943 3.2813C506.875 0.446036 503.396 -1.03277 501.16 0.82743L483.28 15.7054H334.667C331.683 15.7054 329.27 17.983 329.27 20.8002V76.2535C329.27 79.0672 331.683 81.3483 334.667 81.3483Z" fill="#FFE799"/>
<path d="M340.397 76.2535V20.8002C340.397 17.9866 342.811 15.7054 345.794 15.7054H334.667C331.683 15.7054 329.27 17.983 329.27 20.8002V76.2535C329.27 79.0672 331.683 81.3483 334.667 81.3483H345.794C342.811 81.3483 340.397 79.0708 340.397 76.2535Z" fill="#FFDF77"/>
<path d="M505.153 39.7728C504.789 39.2439 504.274 38.8337 503.61 38.5458C502.946 38.258 502.154 38.1177 501.238 38.1213C500.105 38.1249 499.054 38.3911 498.093 38.9164C497.129 39.4418 496.326 40.1794 495.676 41.1293L492.37 38.679C493.139 37.7507 493.954 36.9591 494.821 36.3079C495.688 35.6566 496.675 35.1565 497.782 34.8039C498.889 34.4513 500.157 34.275 501.58 34.2678C502.739 34.2642 503.843 34.4333 504.894 34.7751C505.945 35.1169 506.89 35.617 507.723 36.2719C508.56 36.9267 509.213 37.7111 509.69 38.625C510.163 39.5389 510.403 40.5716 510.411 41.7301C510.418 43.119 510.054 44.3423 509.322 45.3965C508.59 46.4508 507.633 47.2999 506.455 47.9404C505.273 48.5808 504.034 48.9874 502.732 49.1529L502.529 52.4847L498.799 52.4991L498.048 46.3248H499.17C500.619 46.3141 501.831 46.073 502.807 45.5944C503.783 45.1159 504.511 44.5222 504.991 43.817C505.472 43.1082 505.708 42.421 505.704 41.7481C505.704 40.9601 505.517 40.3017 505.153 39.7728ZM498.615 55.4891C499.182 54.9782 499.883 54.7191 500.728 54.7155C501.599 54.7155 502.308 54.9638 502.867 55.4711C503.426 55.9784 503.704 56.5793 503.708 57.2737C503.708 57.9682 503.438 58.569 502.882 59.0836C502.33 59.5945 501.617 59.8499 500.75 59.8535C499.906 59.8535 499.197 59.6053 498.63 59.0979C498.06 58.5906 497.774 57.9897 497.771 57.2953C497.767 56.6009 498.048 56 498.615 55.4855V55.4891Z" fill="#715A99"/>
<path d="M475.414 37.9738H381.74C380.374 37.9738 379.267 39.0353 379.267 40.3449V40.3485C379.267 41.658 380.374 42.7196 381.74 42.7196H475.414C476.78 42.7196 477.887 41.658 477.887 40.3485V40.3449C477.887 39.0353 476.78 37.9738 475.414 37.9738Z" fill="#715A99"/>
<path d="M460.016 53.3339H381.74C380.374 53.3339 379.267 54.3955 379.267 55.705V55.7086C379.267 57.0181 380.374 58.0797 381.74 58.0797H460.016C461.382 58.0797 462.489 57.0181 462.489 55.7086V55.705C462.489 54.3955 461.382 53.3339 460.016 53.3339Z" fill="#715A99"/>
<path d="M341.764 41.7193C342.39 40.2909 343.276 39.0496 344.417 37.999C345.558 36.9483 346.886 36.1352 348.399 35.5667C349.911 34.9982 351.551 34.7139 353.323 34.7139C355.094 34.7139 356.76 34.9982 358.262 35.5667C359.763 36.1352 361.069 36.9483 362.176 37.999C363.283 39.0532 364.146 40.2909 364.762 41.7193C365.377 43.1478 365.685 44.7201 365.685 46.44C365.685 48.1599 365.381 49.7106 364.777 51.1606C364.173 52.6107 363.317 53.8736 362.206 54.9458C361.099 56.0216 359.793 56.8528 358.292 57.4428C356.79 58.0329 355.132 58.328 353.319 58.328C351.506 58.328 349.87 58.0329 348.346 57.4428C346.823 56.8528 345.494 56.0216 344.364 54.9458C343.231 53.8736 342.36 52.6107 341.745 51.1606C341.129 49.7106 340.822 48.1383 340.822 46.44C340.822 44.7417 341.133 43.1478 341.764 41.7193ZM346.92 50.4662C347.603 51.6248 348.526 52.5279 349.694 53.172C350.857 53.816 352.159 54.1398 353.593 54.1398C355.027 54.1398 356.336 53.834 357.458 53.2223C358.577 52.6107 359.451 51.7579 360.078 50.6605C360.705 49.5667 361.02 48.2966 361.02 46.861C361.02 45.4253 360.705 44.0797 360.078 42.8995C359.451 41.7193 358.562 40.7731 357.406 40.0642C356.25 39.3554 354.891 39.0028 353.323 39.0028C351.867 39.0028 350.583 39.3266 349.476 39.9707C348.365 40.6147 347.494 41.4963 346.856 42.6117C346.218 43.7271 345.899 45.008 345.899 46.4436C345.899 47.9692 346.241 49.3112 346.924 50.4698L346.92 50.4662ZM357.049 48.0483L367.97 58.0041H362.63L351.844 48.0483H357.053H357.049Z" fill="#715A99"/>
<path d="M526.019 108.136H396.395C391.929 108.136 388.315 111.55 388.315 115.764V198.807C388.315 203.02 391.929 206.435 396.395 206.435H526.019C530.485 206.435 534.099 203.024 534.099 198.807V115.764C534.099 111.55 530.485 108.136 526.019 108.136Z" fill="#8672A8"/>
<path d="M404.975 198.807V115.764C404.975 111.55 408.589 108.136 413.055 108.136H396.395C391.929 108.136 388.315 111.55 388.315 115.764V135.679L369.352 136.082C364.923 136.176 362.615 141.177 365.516 144.383L388.315 169.565V198.807C388.315 203.02 391.929 206.435 396.395 206.435H413.055C408.589 206.435 404.975 203.024 404.975 198.807Z" fill="#6F5797"/>
<path d="M514.415 156.461H470.411C468.979 156.461 467.818 157.575 467.818 158.948C467.818 160.321 468.979 161.434 470.411 161.434H514.415C515.847 161.434 517.008 160.321 517.008 158.948C517.008 157.575 515.847 156.461 514.415 156.461Z" fill="#FFD755"/>
<path d="M514.415 172.167H470.411C468.979 172.167 467.818 173.28 467.818 174.653C467.818 176.026 468.979 177.139 470.411 177.139H514.415C515.847 177.139 517.008 176.026 517.008 174.653C517.008 173.28 515.847 172.167 514.415 172.167Z" fill="#FFD755"/>
<path d="M514.415 187.872H470.411C468.979 187.872 467.818 188.986 467.818 190.359C467.818 191.732 468.979 192.845 470.411 192.845H514.415C515.847 192.845 517.008 191.732 517.008 190.359C517.008 188.986 515.847 187.872 514.415 187.872Z" fill="#FFD755"/>
<path d="M458.834 162.053C460.622 162.053 462.072 160.663 462.072 158.948C462.072 157.233 460.622 155.842 458.834 155.842C457.045 155.842 455.595 157.233 455.595 158.948C455.595 160.663 457.045 162.053 458.834 162.053Z" fill="#FFD755"/>
<path d="M458.834 177.758C460.622 177.758 462.072 176.368 462.072 174.653C462.072 172.938 460.622 171.548 458.834 171.548C457.045 171.548 455.595 172.938 455.595 174.653C455.595 176.368 457.045 177.758 458.834 177.758Z" fill="#FFD755"/>
<path d="M458.834 193.464C460.622 193.464 462.072 192.074 462.072 190.359C462.072 188.644 460.622 187.254 458.834 187.254C457.045 187.254 455.595 188.644 455.595 190.359C455.595 192.074 457.045 193.464 458.834 193.464Z" fill="#FFD755"/>
<path d="M514.055 139.81H438.804C437.372 139.81 436.211 140.923 436.211 142.296C436.211 143.669 437.372 144.782 438.804 144.782H514.055C515.487 144.782 516.648 143.669 516.648 142.296C516.648 140.923 515.487 139.81 514.055 139.81Z" fill="#FFD755"/>
<path d="M514.055 121.913H438.804C437.372 121.913 436.211 123.026 436.211 124.399C436.211 125.772 437.372 126.885 438.804 126.885H514.055C515.487 126.885 516.648 125.772 516.648 124.399C516.648 123.026 515.487 121.913 514.055 121.913Z" fill="#FFD755"/>
<path d="M408.244 136.924L408.345 137.953L405.252 144.397H399.841L411.768 120.528L423.695 144.397H418.253L415.228 138.147L415.295 136.989L411.768 129.159L408.24 136.924H408.244ZM406.194 135.636H417.483L418.054 139.277H405.62L406.191 135.636H406.194Z" fill="#FFCF33"/>
<path d="M187.333 252.328V360.852C187.333 362.263 186.29 363.407 185.006 363.407H3.31393C2.03042 363.407 0.987091 362.263 0.987091 360.852V252.328C0.987091 250.917 2.03042 249.773 3.31393 249.773H185.006C186.29 249.773 187.333 250.917 187.333 252.328Z" fill="#F1F8F6"/>
<path d="M187.337 252.324V268.594H0.987091V252.324C0.987091 250.914 2.03042 249.769 3.31768 249.769H185.01C186.294 249.769 187.337 250.914 187.337 252.324Z" fill="#E4F1ED"/>
<path d="M11.638 259.186C11.638 260.416 10.5947 261.416 9.31117 261.416C8.02765 261.416 6.98433 260.416 6.98433 259.186C6.98433 257.955 8.02765 256.955 9.31117 256.955C10.5947 256.955 11.638 257.955 11.638 259.186ZM18.6185 256.955C17.335 256.955 16.2917 257.955 16.2917 259.186C16.2917 260.416 17.335 261.416 18.6185 261.416C19.902 261.416 20.9454 260.416 20.9454 259.186C20.9454 257.955 19.902 256.955 18.6185 256.955ZM27.9296 256.955C26.6461 256.955 25.6028 257.955 25.6028 259.186C25.6028 260.416 26.6461 261.416 27.9296 261.416C29.2131 261.416 30.2565 260.416 30.2565 259.186C30.2565 257.955 29.2131 256.955 27.9296 256.955Z" fill="#C9E3DC"/>
<path d="M111.557 277.403H126.52C127.897 277.403 129.012 278.471 129.012 279.792C129.012 281.112 127.897 282.181 126.52 282.181H111.557C110.18 282.181 109.065 281.112 109.065 279.792C109.065 278.471 110.18 277.403 111.557 277.403Z" fill="#E4F1ED"/>
<path d="M111.557 286.963H126.52C127.897 286.963 129.012 288.031 129.012 289.352C129.012 290.672 127.897 291.741 126.52 291.741H111.557C110.18 291.741 109.065 290.672 109.065 289.352C109.065 288.031 110.18 286.963 111.557 286.963Z" fill="#E4F1ED"/>
<path d="M111.557 296.526H126.52C127.897 296.526 129.012 297.595 129.012 298.915C129.012 300.236 127.897 301.304 126.52 301.304H111.557C110.18 301.304 109.065 300.236 109.065 298.915C109.065 297.595 110.18 296.526 111.557 296.526Z" fill="#E4F1ED"/>
<path d="M136.495 286.963H151.458C152.836 286.963 153.95 288.031 153.95 289.352C153.95 290.672 152.836 291.741 151.458 291.741H136.495C135.118 291.741 134.003 290.672 134.003 289.352C134.003 288.031 135.118 286.963 136.495 286.963Z" fill="#E4F1ED"/>
<path d="M136.495 296.526H151.458C152.836 296.526 153.95 297.595 153.95 298.915C153.95 300.236 152.836 301.304 151.458 301.304H136.495C135.118 301.304 134.003 300.236 134.003 298.915C134.003 297.595 135.118 296.526 136.495 296.526Z" fill="#E4F1ED"/>
<path d="M111.553 346.259H126.516C127.894 346.259 129.008 347.327 129.008 348.648C129.008 349.968 127.894 351.037 126.516 351.037H111.553C110.176 351.037 109.061 349.968 109.061 348.648C109.061 347.327 110.176 346.259 111.553 346.259Z" fill="#E4F1ED"/>
<path d="M136.492 346.259H151.455C152.832 346.259 153.947 347.327 153.947 348.648C153.947 349.968 152.832 351.037 151.455 351.037H136.492C135.114 351.037 134 349.968 134 348.648C134 347.327 135.114 346.259 136.492 346.259Z" fill="#E4F1ED"/>
<path d="M111.553 336.695H126.516C127.894 336.695 129.008 337.764 129.008 339.084C129.008 340.404 127.894 341.473 126.516 341.473H111.553C110.176 341.473 109.061 340.404 109.061 339.084C109.061 337.764 110.176 336.695 111.553 336.695Z" fill="#E4F1ED"/>
<path d="M136.492 336.695H151.455C152.832 336.695 153.947 337.764 153.947 339.084C153.947 340.404 152.832 341.473 151.455 341.473H136.492C135.114 341.473 134 340.404 134 339.084C134 337.764 135.114 336.695 136.492 336.695Z" fill="#E4F1ED"/>
<path d="M111.553 327.131H126.516C127.894 327.131 129.008 328.2 129.008 329.52C129.008 330.841 127.894 331.909 126.516 331.909H111.553C110.176 331.909 109.061 330.841 109.061 329.52C109.061 328.2 110.176 327.131 111.553 327.131Z" fill="#E4F1ED"/>
<path d="M136.492 327.131H151.455C152.832 327.131 153.947 328.2 153.947 329.52C153.947 330.841 152.832 331.909 151.455 331.909H136.492C135.114 331.909 134 330.841 134 329.52C134 328.2 135.114 327.131 136.492 327.131Z" fill="#E4F1ED"/>
<path d="M96.4325 354.682H14.2163C11.6455 354.682 9.56262 352.685 9.56262 350.22V341.293C9.56262 338.829 11.6455 336.832 14.2163 336.832H96.4325C99.0033 336.832 101.086 338.829 101.086 341.293V350.22C101.086 352.685 99.0033 354.682 96.4325 354.682Z" fill="#E4F1ED"/>
<path d="M69.0321 348.079C69.0321 348.918 68.3228 349.598 67.4484 349.598H19.2303C18.3558 349.598 17.6465 348.918 17.6465 348.079C17.6465 347.241 18.3558 346.561 19.2303 346.561H67.4484C68.3228 346.561 69.0321 347.241 69.0321 348.079ZM90.8443 341.405H19.2303C18.3558 341.405 17.6465 342.085 17.6465 342.923C17.6465 343.761 18.3558 344.442 19.2303 344.442H90.8406C91.715 344.442 92.4243 343.761 92.4243 342.923C92.4243 342.085 91.715 341.405 90.8406 341.405H90.8443Z" fill="#D6EAE4"/>
<path d="M81.3381 308.216L58.1335 290.366L45.2646 288.866L34.411 296.458L19.9546 286.347C18.8137 285.549 18.8137 283.919 19.9546 283.12C20.6864 282.609 21.6772 282.609 22.409 283.12L34.411 291.514L43.5495 285.124L60.6705 287.117L83.9877 305.057C85.1061 305.917 85.0272 307.569 83.8338 308.328C83.0682 308.817 82.0587 308.77 81.3418 308.22L81.3381 308.216Z" fill="white"/>
<path d="M99.1159 330.69H11.5592C10.5534 330.69 9.73526 329.909 9.73526 328.941V276.507C9.73526 275.542 10.5497 274.758 11.5592 274.758C12.565 274.758 13.3831 275.539 13.3831 276.507V325.444C13.3831 326.408 14.1975 327.192 15.2071 327.192H99.1159C100.122 327.192 100.94 327.973 100.94 328.941C100.94 329.905 100.125 330.69 99.1159 330.69Z" fill="#E4F1ED"/>
<path d="M20.0071 323.972C18.6748 323.35 18.3408 321.677 19.3391 320.626L34.0245 305.223L43.861 312.102L53.8589 299.869L64.0144 306.971L81.1992 288.941C81.8635 288.247 82.9218 288.053 83.8075 288.463C85.1398 289.085 85.4739 290.759 84.4756 291.809L64.795 312.455L54.9585 305.575L44.9643 317.809L34.8088 310.706L22.6229 323.494C21.9587 324.188 20.9003 324.382 20.0146 323.972H20.0071Z" fill="#E4F1ED"/>
<path d="M244.715 127.889V236.414C244.715 237.824 243.672 238.969 242.388 238.969H60.696C59.4124 238.969 58.3691 237.824 58.3691 236.414V127.889C58.3691 126.479 59.4124 125.335 60.696 125.335H242.388C243.672 125.335 244.715 126.479 244.715 127.889Z" fill="#F1F8F6"/>
<path d="M244.719 127.889V144.16H58.3691V127.889C58.3691 126.479 59.4124 125.335 60.6997 125.335H242.392C243.676 125.335 244.719 126.479 244.719 127.889Z" fill="#E4F1ED"/>
<path d="M70.1159 134.747C70.1159 135.978 69.0726 136.978 67.7891 136.978C66.5055 136.978 65.4622 135.978 65.4622 134.747C65.4622 133.517 66.5055 132.516 67.7891 132.516C69.0726 132.516 70.1159 133.517 70.1159 134.747ZM77.0964 132.516C75.8129 132.516 74.7696 133.517 74.7696 134.747C74.7696 135.978 75.8129 136.978 77.0964 136.978C78.3799 136.978 79.4233 135.978 79.4233 134.747C79.4233 133.517 78.3799 132.516 77.0964 132.516ZM86.4075 132.516C85.124 132.516 84.0807 133.517 84.0807 134.747C84.0807 135.978 85.124 136.978 86.4075 136.978C87.691 136.978 88.7344 135.978 88.7344 134.747C88.7344 133.517 87.691 132.516 86.4075 132.516Z" fill="#C9E3DC"/>
<path d="M230.371 168.555H182.416C180.667 168.555 179.252 167.198 179.252 165.521V156.422C179.252 154.745 180.667 153.389 182.416 153.389H230.371C232.12 153.389 233.535 154.745 233.535 156.422V165.521C233.535 167.198 232.12 168.555 230.371 168.555Z" fill="#E4F1ED"/>
<path d="M196.437 163.532C196.437 164.37 195.728 165.05 194.853 165.05H186.799C185.925 165.05 185.216 164.37 185.216 163.532C185.216 162.693 185.925 162.013 186.799 162.013H194.853C195.728 162.013 196.437 162.693 196.437 163.532ZM203.643 156.857H186.803C185.929 156.857 185.219 157.537 185.219 158.376C185.219 159.214 185.929 159.894 186.803 159.894H203.643C204.517 159.894 205.226 159.214 205.226 158.376C205.226 157.537 204.517 156.857 203.643 156.857Z" fill="#D6EAE4"/>
<path d="M118.311 229.358H72.1838C70.4349 229.358 69.02 228.002 69.02 226.325V210.224C69.02 208.547 70.4349 207.191 72.1838 207.191H118.311C120.06 207.191 121.475 208.547 121.475 210.224V226.325C121.475 228.002 120.06 229.358 118.311 229.358Z" fill="#E4F1ED"/>
<path d="M103.24 218.881C103.24 219.719 102.53 220.399 101.656 220.399H93.602C92.7275 220.399 92.0182 219.719 92.0182 218.881C92.0182 218.042 92.7275 217.362 93.602 217.362H101.656C102.53 217.362 103.24 218.042 103.24 218.881ZM110.445 212.206H93.6057C92.7313 212.206 92.022 212.886 92.022 213.725C92.022 214.563 92.7313 215.243 93.6057 215.243H110.445C111.32 215.243 112.029 214.563 112.029 213.725C112.029 212.886 111.32 212.206 110.445 212.206ZM110.445 222.367H93.6057C92.7313 222.367 92.022 223.047 92.022 223.886C92.022 224.724 92.7313 225.404 93.6057 225.404H110.445C111.32 225.404 112.029 224.724 112.029 223.886C112.029 223.047 111.32 222.367 110.445 222.367Z" fill="#D6EAE4"/>
<path d="M82.0729 214.621C81.8327 214.336 81.5625 214.11 81.2585 213.941C80.9545 213.775 80.6017 213.689 80.2001 213.689C79.7986 213.689 79.4683 213.75 79.2093 213.865C78.9504 213.984 78.759 214.142 78.6351 214.34C78.5113 214.538 78.4512 214.782 78.4512 215.067C78.4512 215.462 78.5976 215.786 78.8903 216.035C79.1831 216.283 79.5659 216.495 80.0463 216.675C80.5266 216.855 81.037 217.042 81.5812 217.24C82.0091 217.387 82.4256 217.575 82.8347 217.798C83.2438 218.021 83.6153 218.287 83.9531 218.596C84.2909 218.906 84.5573 219.276 84.7487 219.705C84.9439 220.133 85.0415 220.64 85.0415 221.223C85.0415 222.004 84.8463 222.68 84.4522 223.252C84.0582 223.824 83.499 224.263 82.7747 224.566C82.0503 224.871 81.1834 225.023 80.1739 225.023C79.3707 225.023 78.6201 224.871 77.9221 224.569C77.224 224.267 76.6085 223.86 76.0756 223.349C75.7003 222.99 75.3888 222.601 75.1336 222.18C74.9572 221.889 75.036 221.514 75.3288 221.327L76.3008 220.694C76.6123 220.493 77.0326 220.583 77.2278 220.888C77.4192 221.191 77.6181 221.457 77.8207 221.687C78.1435 222.058 78.5075 222.342 78.9091 222.533C79.3107 222.723 79.7648 222.821 80.2677 222.821C80.6805 222.821 81.0295 222.763 81.3073 222.644C81.585 222.525 81.7914 222.353 81.9265 222.123C82.0616 221.892 82.1292 221.612 82.1292 221.273C82.1292 220.863 81.994 220.525 81.7201 220.259C81.4461 219.992 81.0933 219.759 80.6505 219.561C80.2114 219.363 79.7235 219.168 79.1943 218.985C78.8566 218.873 78.4813 218.719 78.0684 218.521C77.6556 218.323 77.2578 218.067 76.8825 217.758C76.5072 217.449 76.1995 217.071 75.9593 216.625C75.7191 216.179 75.599 215.646 75.599 215.024C75.599 214.405 75.7941 213.836 76.1807 213.318C76.5673 212.804 77.1039 212.39 77.7907 212.077C78.4775 211.767 79.2544 211.609 80.1213 211.609C81.0033 211.609 81.7463 211.742 82.3543 212.008C82.9623 212.275 83.4727 212.62 83.878 213.041C84.1145 213.286 84.3246 213.541 84.5048 213.797C84.7112 214.095 84.6061 214.498 84.2871 214.678L83.2963 215.247C82.9923 215.419 82.602 215.329 82.4106 215.045C82.3055 214.89 82.1929 214.743 82.0804 214.606L82.0729 214.621ZM81.2097 210.256L81.1646 212.181C81.1571 212.523 80.8644 212.796 80.5079 212.796H79.8511C79.4946 212.796 79.2018 212.523 79.1943 212.181L79.1455 210.256C79.138 209.903 79.4345 209.612 79.8023 209.612H80.5529C80.9207 209.612 81.2172 209.903 81.2097 210.256ZM81.1759 224.396L81.2247 226.282C81.2322 226.634 80.9357 226.926 80.5679 226.926H79.8173C79.4495 226.926 79.153 226.634 79.1606 226.282L79.2056 224.393C79.2131 224.051 79.5058 223.778 79.8624 223.778H80.5229C80.8794 223.778 81.1721 224.051 81.1796 224.393L81.1759 224.396Z" fill="#D6EAE4"/>
<path d="M116.292 162.535C118.263 165.475 119.31 168.9 119.31 172.394H100.095V153.972C106.662 153.993 112.768 157.221 116.292 162.535Z" fill="#E4F1ED"/>
<path d="M106.985 191.755C103.352 195.659 98.1618 197.893 92.705 197.904C82.1629 197.904 73.4898 189.585 73.4898 179.482C73.4898 169.379 82.1667 161.06 92.705 161.06V179.482H111.92C111.916 184.019 110.156 188.391 106.981 191.755H106.985Z" fill="#E4F1ED"/>
<path d="M130.261 153.925H166.147C167.524 153.925 168.639 154.994 168.639 156.314C168.639 157.635 167.524 158.703 166.147 158.703H130.261C128.884 158.703 127.769 157.635 127.769 156.314C127.769 154.994 128.884 153.925 130.261 153.925Z" fill="#E4F1ED"/>
<path d="M130.261 163.489H166.147C167.524 163.489 168.639 164.557 168.639 165.878C168.639 167.198 167.524 168.267 166.147 168.267H130.261C128.884 168.267 127.769 167.198 127.769 165.878C127.769 164.557 128.884 163.489 130.261 163.489Z" fill="#E4F1ED"/>
<path d="M130.261 173.653H166.147C167.524 173.653 168.639 174.722 168.639 176.042C168.639 177.363 167.524 178.431 166.147 178.431H130.261C128.884 178.431 127.769 177.363 127.769 176.042C127.769 174.722 128.884 173.653 130.261 173.653Z" fill="#E4F1ED"/>
<path d="M130.261 183.217H166.147C167.524 183.217 168.639 184.285 168.639 185.606C168.639 186.926 167.524 187.995 166.147 187.995H130.261C128.884 187.995 127.769 186.926 127.769 185.606C127.769 184.285 128.884 183.217 130.261 183.217Z" fill="#E4F1ED"/>
<path d="M136.284 205.41H151.248C152.625 205.41 153.739 206.478 153.739 207.799C153.739 209.119 152.625 210.188 151.248 210.188H136.284C134.907 210.188 133.792 209.119 133.792 207.799C133.792 206.478 134.907 205.41 136.284 205.41Z" fill="#E4F1ED"/>
<path d="M136.284 214.973H151.248C152.625 214.973 153.739 216.042 153.739 217.362C153.739 218.683 152.625 219.751 151.248 219.751H136.284C134.907 219.751 133.792 218.683 133.792 217.362C133.792 216.042 134.907 214.973 136.284 214.973Z" fill="#E4F1ED"/>
<path d="M136.284 224.533H151.248C152.625 224.533 153.739 225.602 153.739 226.922C153.739 228.243 152.625 229.311 151.248 229.311H136.284C134.907 229.311 133.792 228.243 133.792 226.922C133.792 225.602 134.907 224.533 136.284 224.533Z" fill="#E4F1ED"/>
<path d="M302.099 3.45013V111.975C302.099 113.385 301.056 114.529 299.772 114.529H118.08C116.796 114.529 115.753 113.385 115.753 111.975V3.45013C115.753 2.03969 116.796 0.895508 118.08 0.895508H299.772C301.056 0.895508 302.099 2.03969 302.099 3.45013Z" fill="#F1F8F6"/>
<path d="M302.099 3.45013V19.7205H115.749V3.45013C115.749 2.03969 116.793 0.895508 118.08 0.895508H299.772C301.056 0.895508 302.099 2.03969 302.099 3.45013Z" fill="#E4F1ED"/>
<path d="M128.457 10.308C128.457 11.5386 127.413 12.5388 126.13 12.5388C124.846 12.5388 123.803 11.5386 123.803 10.308C123.803 9.0775 124.846 8.07724 126.13 8.07724C127.413 8.07724 128.457 9.0775 128.457 10.308ZM135.437 8.07724C134.154 8.07724 133.11 9.0775 133.11 10.308C133.11 11.5386 134.154 12.5388 135.437 12.5388C136.721 12.5388 137.764 11.5386 137.764 10.308C137.764 9.0775 136.721 8.07724 135.437 8.07724ZM144.748 8.07724C143.465 8.07724 142.422 9.0775 142.422 10.308C142.422 11.5386 143.465 12.5388 144.748 12.5388C146.032 12.5388 147.075 11.5386 147.075 10.308C147.075 9.0775 146.032 8.07724 144.748 8.07724Z" fill="#C9E3DC"/>
<path d="M128.16 49.4297V57.6764H125.826V49.4297C125.826 48.8108 126.348 48.3107 126.993 48.3107C127.639 48.3107 128.16 48.8108 128.16 49.4297Z" fill="#E4F1ED"/>
<path d="M128.16 86.7703V97.0967C128.16 97.7156 127.639 98.2157 126.993 98.2157C126.348 98.2157 125.826 97.7156 125.826 97.0967V86.7703H128.16Z" fill="#E4F1ED"/>
<path d="M143.056 26.323V39.2832H140.721V26.323C140.721 25.7041 141.243 25.204 141.889 25.204C142.534 25.204 143.056 25.7041 143.056 26.323Z" fill="#E4F1ED"/>
<path d="M143.056 48.9296V87.6554C143.056 88.2743 142.534 88.7744 141.889 88.7744C141.243 88.7744 140.721 88.2743 140.721 87.6554V48.9296H143.056Z" fill="#E4F1ED"/>
<path d="M247.332 41.5571V54.5173H244.998V41.5571C244.998 40.9383 245.519 40.4381 246.165 40.4381C246.81 40.4381 247.332 40.9383 247.332 41.5571Z" fill="#E4F1ED"/>
<path d="M247.332 64.1637V102.89C247.332 103.508 246.81 104.009 246.165 104.009C245.519 104.009 244.998 103.508 244.998 102.89V64.1637H247.332Z" fill="#E4F1ED"/>
<path d="M157.955 32.6951V49.9334H155.621V32.6951C155.621 32.0763 156.142 31.5761 156.788 31.5761C157.433 31.5761 157.955 32.0763 157.955 32.6951Z" fill="#E4F1ED"/>
<path d="M157.955 81.1034V92.5704C157.955 93.1892 157.433 93.6894 156.788 93.6894C156.142 93.6894 155.621 93.1892 155.621 92.5704V81.1034H157.955Z" fill="#E4F1ED"/>
<path d="M292.022 32.5188V49.7571H289.688V32.5188C289.688 31.9 290.21 31.3998 290.855 31.3998C291.501 31.3998 292.022 31.9 292.022 32.5188Z" fill="#E4F1ED"/>
<path d="M292.022 80.9235V92.3905C292.022 93.0093 291.501 93.5095 290.855 93.5095C290.21 93.5095 289.688 93.0093 289.688 92.3905V80.9235H292.022Z" fill="#E4F1ED"/>
<path d="M172.851 55.3557V72.3637H170.516V55.3557C170.516 54.7368 171.038 54.2367 171.683 54.2367C172.329 54.2367 172.851 54.7368 172.851 55.3557Z" fill="#E4F1ED"/>
<path d="M172.851 95.2329V99.5578C172.851 100.177 172.329 100.677 171.683 100.677C171.038 100.677 170.516 100.177 170.516 99.5578V95.2329H172.851Z" fill="#E4F1ED"/>
<path d="M277.13 86.63V90.9548C277.13 91.5737 276.609 92.0738 275.963 92.0738C275.318 92.0738 274.796 91.5737 274.796 90.9548V86.63H277.13Z" fill="#E4F1ED"/>
<path d="M217.541 45.4466V62.4546H215.207V45.4466C215.207 44.8278 215.728 44.3276 216.374 44.3276C217.019 44.3276 217.541 44.8278 217.541 45.4466Z" fill="#E4F1ED"/>
<path d="M232.44 33.0046V50.0126H230.106V33.0046C230.106 32.3857 230.627 31.8856 231.273 31.8856C231.918 31.8856 232.44 32.3857 232.44 33.0046Z" fill="#E4F1ED"/>
<path d="M232.44 72.8818V77.2067C232.44 77.8255 231.918 78.3257 231.273 78.3257C230.627 78.3257 230.106 77.8255 230.106 77.2067V72.8818H232.44Z" fill="#E4F1ED"/>
<path d="M187.746 33.3608V56.9208H185.412V33.3608C185.412 32.7419 185.933 32.2418 186.579 32.2418C187.224 32.2418 187.746 32.7419 187.746 33.3608Z" fill="#E4F1ED"/>
<path d="M187.746 78.1781V92.574C187.746 93.1928 187.224 93.693 186.579 93.693C185.933 93.693 185.412 93.1928 185.412 92.574V78.1781H187.746Z" fill="#E4F1ED"/>
<path d="M262.231 35.9154V59.4755H259.897V35.9154C259.897 35.2965 260.419 34.7964 261.064 34.7964C261.71 34.7964 262.231 35.2965 262.231 35.9154Z" fill="#E4F1ED"/>
<path d="M262.231 80.7328V95.1286C262.231 95.7475 261.71 96.2476 261.064 96.2476C260.419 96.2476 259.897 95.7475 259.897 95.1286V80.7328H262.231Z" fill="#E4F1ED"/>
<path d="M202.642 38.1858V51.146H200.307V38.1858C200.307 37.5669 200.829 37.0668 201.474 37.0668C202.12 37.0668 202.642 37.5669 202.642 38.1858Z" fill="#E4F1ED"/>
<path d="M202.642 60.7924V99.5182C202.642 100.137 202.12 100.637 201.474 100.637C200.829 100.637 200.307 100.137 200.307 99.5182V60.7924H202.642Z" fill="#E4F1ED"/>
<path d="M124.918 57.7196H129.065C130.146 57.7196 131.024 58.5616 131.024 59.5978V84.849C131.024 85.8852 130.146 86.7271 129.065 86.7271H124.918C123.837 86.7271 122.959 85.8852 122.959 84.849V59.5978C122.959 58.5616 123.837 57.7196 124.918 57.7196Z" fill="#D6EAE4"/>
<path d="M258.989 59.5186H263.139C264.22 59.5186 265.098 60.3606 265.098 61.3968V78.8114C265.098 79.8477 264.22 80.6896 263.139 80.6896H258.989C257.908 80.6896 257.03 79.8477 257.03 78.8114V61.3968C257.03 60.3606 257.908 59.5186 258.989 59.5186Z" fill="#D6EAE4"/>
<path d="M154.712 49.9802H158.86C159.94 49.9802 160.819 50.8221 160.819 51.8584V79.182C160.819 80.2183 159.94 81.0602 158.86 81.0602H154.712C153.632 81.0602 152.753 80.2183 152.753 79.182V51.8584C152.753 50.8221 153.632 49.9802 154.712 49.9802Z" fill="#D6EAE4"/>
<path d="M288.783 49.8003H292.93C294.011 49.8003 294.889 50.6422 294.889 51.6785V79.0021C294.889 80.0384 294.011 80.8803 292.93 80.8803H288.783C287.703 80.8803 286.824 80.0384 286.824 79.0021V51.6785C286.824 50.6422 287.703 49.8003 288.783 49.8003Z" fill="#D6EAE4"/>
<path d="M139.817 39.3264H143.96C145.041 39.3264 145.919 40.1683 145.919 41.2045V47.0082C145.919 48.0444 145.041 48.8864 143.96 48.8864H139.817C138.736 48.8864 137.858 48.0444 137.858 47.0082V41.2045C137.858 40.1683 138.736 39.3264 139.817 39.3264Z" fill="#E4F1ED"/>
<path d="M244.093 54.5605H248.236C249.317 54.5605 250.195 55.4025 250.195 56.4387V62.2424C250.195 63.2786 249.317 64.1206 248.236 64.1206H244.093C243.012 64.1206 242.134 63.2786 242.134 62.2424V56.4387C242.134 55.4025 243.012 54.5605 244.093 54.5605Z" fill="#E4F1ED"/>
<path d="M169.612 72.4105H173.755C174.836 72.4105 175.714 73.2524 175.714 74.2887V93.2972C175.714 94.3334 174.836 95.1754 173.755 95.1754H169.612C168.531 95.1754 167.653 94.3334 167.653 93.2972V74.2887C167.653 73.2524 168.531 72.4105 169.612 72.4105Z" fill="#E4F1ED"/>
<path d="M273.888 63.8039H278.031C279.112 63.8039 279.99 64.6459 279.99 65.6821V84.6906C279.99 85.7269 279.112 86.5688 278.031 86.5688H273.888C272.807 86.5688 271.929 85.7269 271.929 84.6906V65.6821C271.929 64.6459 272.807 63.8039 273.888 63.8039Z" fill="#E4F1ED"/>
<path d="M214.302 62.5014H218.445C219.526 62.5014 220.404 63.3434 220.404 64.3796V83.3881C220.404 84.4244 219.526 85.2663 218.445 85.2663H214.302C213.221 85.2663 212.343 84.4244 212.343 83.3881V64.3796C212.343 63.3434 213.221 62.5014 214.302 62.5014Z" fill="#E4F1ED"/>
<path d="M229.198 50.0594H233.341C234.422 50.0594 235.3 50.9013 235.3 51.9375V70.9461C235.3 71.9823 234.422 72.8243 233.341 72.8243H229.198C228.117 72.8243 227.239 71.9823 227.239 70.9461V51.9375C227.239 50.9013 228.117 50.0594 229.198 50.0594Z" fill="#E4F1ED"/>
<path d="M184.507 56.964H188.658C189.739 56.964 190.617 57.806 190.617 58.8422V76.2568C190.617 77.293 189.739 78.135 188.658 78.135H184.507C183.426 78.135 182.548 77.293 182.548 76.2568V58.8422C182.548 57.806 183.426 56.964 184.507 56.964Z" fill="#E4F1ED"/>
<path d="M199.403 51.1891H203.546C204.627 51.1891 205.505 52.0311 205.505 53.0673V58.871C205.505 59.9072 204.627 60.7492 203.546 60.7492H199.403C198.322 60.7492 197.444 59.9072 197.444 58.871V53.0673C197.444 52.0311 198.322 51.1891 199.403 51.1891Z" fill="#E4F1ED"/>
<path d="M232.677 193.939C232.677 193.939 283.353 237.842 293.239 205.46C300.069 183.091 292.961 194.09 294.012 162.769C291.914 159.944 285.417 172.753 283.683 174.995C275.566 185.476 260.494 187.196 252.804 177.053C248.897 171.897 238.472 156.681 239.504 161.592C243.054 178.499 232.677 193.939 232.677 193.939Z" fill="#65412B"/>
<path d="M233.45 129.4C227.956 131.203 235.514 141.591 234.583 146.452C234.182 148.546 234.527 151.057 236.385 150.935C241.928 150.571 237.886 127.947 233.45 129.4Z" fill="#65412B"/>
<path d="M302.216 131.829C307.549 134.031 299.183 143.832 299.72 148.747C299.953 150.866 299.408 153.342 297.562 153.086C292.064 152.316 297.907 130.055 302.212 131.833L302.216 131.829Z" fill="#65412B"/>
<path d="M239.748 162.873C240.22 167.032 240.438 175.24 238.588 179.028C230.74 195.094 239.034 201.786 243.035 205.528C247.036 209.27 266.499 225.289 269.948 225.109C274.759 224.857 294.023 203.456 296.526 197.292C298.553 192.305 295.768 176.121 294.515 181.338C292.03 191.686 283.507 217.895 257.713 206.942C249.404 203.412 247.362 200.084 246.66 192.931C246.086 187.07 252.425 190.121 256.287 191.546C260.149 192.971 276.831 192.528 279.544 186.937C279.803 186.404 242.101 168.504 239.748 162.873Z" fill="#4C3120"/>
<path d="M234.456 110.557C234.456 144.951 236.749 140.662 238.505 158.656C239.308 166.896 249.171 179.413 257.022 186.937C261.447 191.179 275.221 191.013 278.568 188.016C283.124 183.94 293.944 167.903 295.333 160.131C298.354 143.21 300.069 143.818 302.445 114.936C303.721 99.3961 283.226 89.1884 271.299 89.1884C250.038 89.1884 234.46 103.48 234.46 110.557H234.456Z" fill="#7F5235"/>
<path d="M253.194 141.994C251.442 141.414 247.145 140.612 244.608 145.124C244.431 145.44 249.419 147.916 251.866 148.222C255.536 148.679 259.026 146.541 259.087 146.419C259.169 146.25 255.675 142.814 253.191 141.994H253.194Z" fill="#65412B"/>
<path d="M280.805 142.292C282.558 141.713 286.75 141.317 289.287 145.825C289.463 146.142 284.58 148.215 282.134 148.52C278.463 148.977 274.973 146.84 274.913 146.718C274.83 146.549 278.324 143.113 280.809 142.292H280.805Z" fill="#65412B"/>
<path d="M274.766 153.975C279.84 156.76 285.549 154.939 288.517 153.504C279.172 153.871 273.719 152.745 271.302 145.055C271.257 144.912 271.096 144.753 270.961 144.829C270.905 144.861 270.878 144.926 270.86 144.987C270.728 145.379 269.212 150.924 274.77 153.975H274.766Z" fill="#65412B"/>
<path d="M242.438 141.177C242.964 146.88 244.6 153.101 256.55 154.047C254.609 155.155 248.124 155.31 243.373 151.683C240.074 149.164 240.682 143.598 242.438 141.177Z" fill="#65412B"/>
<path d="M303.773 120.243C303.664 128.055 302.096 135.956 299.146 143.188C299.146 133.761 297.99 130.631 297.99 120.603C297.99 119.988 302.441 112.954 302.441 112.954C302.441 112.954 296.793 117.404 296.241 117.225C282.757 112.857 276.752 115.278 269.606 115.278C263.316 115.278 254.215 110.601 241.005 116.473C240.187 116.836 234.647 112.036 234.647 112.036C234.647 112.036 239.252 119.509 239.076 120.603C238.719 122.823 237.004 132.628 235.98 143.048C228.909 122.229 231.48 90.7573 258.711 85.7668C284.52 81.0281 304.133 94.5604 303.773 120.243Z" fill="#4E311E"/>
<path d="M258.715 85.7667C255.559 86.346 252.737 87.2851 250.222 88.5156L285.819 88.4545C278.362 84.8996 269.036 83.8705 258.715 85.7631V85.7667Z" fill="#2E1B0E"/>
<path d="M285.819 88.4545L250.222 88.5156C247.118 90.034 244.484 92.0057 242.273 94.3193L294.147 94.2329C291.741 91.8798 288.945 89.9476 285.819 88.4545Z" fill="#331F11"/>
<path d="M294.147 94.2329L242.273 94.3193C240.599 96.0715 239.17 98.0181 237.965 100.119L298.748 100.019C297.442 97.8778 295.899 95.9456 294.147 94.2329Z" fill="#392213"/>
<path d="M298.744 100.015L237.961 100.116C236.91 101.944 236.028 103.887 235.304 105.912L301.51 105.801C300.76 103.732 299.833 101.8 298.744 100.015Z" fill="#3E2616"/>
<path d="M301.51 105.804L235.304 105.916C234.636 107.787 234.099 109.723 233.69 111.709L303.071 111.594C302.696 109.561 302.171 107.628 301.51 105.804Z" fill="#442A18"/>
<path d="M303.071 111.594L233.69 111.709C233.3 113.605 233.022 115.544 232.85 117.502L237.796 117.494C236.486 115.022 234.647 112.036 234.647 112.036C234.647 112.036 240.19 116.832 241.005 116.473C254.211 110.6 263.316 115.278 269.606 115.278C276.752 115.278 282.757 112.856 296.241 117.225C296.789 117.401 302.441 112.954 302.441 112.954C302.441 112.954 300.962 115.292 299.709 117.394L303.728 117.386C303.638 115.372 303.417 113.443 303.075 111.597L303.071 111.594Z" fill="#492D1B"/>
<path d="M303.773 120.243C303.788 119.272 303.769 118.318 303.724 117.383L299.705 117.39C298.785 118.93 297.986 120.344 297.986 120.603C297.986 121.517 297.997 122.373 298.012 123.186L303.661 123.176C303.721 122.197 303.754 121.218 303.769 120.243H303.773Z" fill="#4E311E"/>
<path d="M232.632 123.294L238.637 123.284C238.839 122.042 238.997 121.118 239.079 120.603C239.143 120.2 238.562 118.934 237.8 117.494L232.853 117.502C232.684 119.419 232.613 121.355 232.636 123.294H232.632Z" fill="#4E311E"/>
<path d="M232.966 129.084L237.732 129.076C238.074 126.774 238.389 124.795 238.637 123.284L232.632 123.294C232.654 125.23 232.767 127.17 232.966 129.084Z" fill="#543520"/>
<path d="M303.049 128.969C303.342 127.047 303.548 125.111 303.664 123.176L298.016 123.186C298.065 125.403 298.17 127.267 298.301 128.979L303.049 128.972V128.969Z" fill="#543520"/>
<path d="M233.822 134.873H236.922C237.192 132.797 237.466 130.843 237.728 129.077L232.962 129.084C233.165 131.041 233.454 132.977 233.822 134.873Z" fill="#593823"/>
<path d="M298.8 134.765H301.893C302.37 132.847 302.756 130.915 303.053 128.965L298.305 128.972C298.459 130.998 298.643 132.815 298.8 134.761V134.765Z" fill="#593823"/>
<path d="M235.229 140.662H236.227C236.445 138.669 236.681 136.722 236.922 134.869H233.822C234.208 136.859 234.681 138.795 235.229 140.662Z" fill="#5F3C25"/>
<path d="M299.116 140.558H300.148C300.82 138.658 301.401 136.722 301.889 134.761H298.797C298.939 136.51 299.059 138.359 299.112 140.558H299.116Z" fill="#5F3C25"/>
<path d="M299.146 143.184C299.499 142.317 299.833 141.439 300.148 140.554H299.116C299.134 141.378 299.149 142.249 299.149 143.184H299.146Z" fill="#644028"/>
<path d="M235.98 143.048C236.058 142.249 236.141 141.45 236.227 140.662H235.229C235.465 141.472 235.717 142.267 235.98 143.048Z" fill="#644028"/>
<path d="M273.843 137.19C274.515 136.442 282.336 134.438 287.613 135.118C290.78 135.528 291.599 137.208 293.419 139.856C290.206 139.025 287.406 138.838 285.361 138.673C283.316 138.507 277.262 140.209 273.779 141.177C273.701 139.597 273.671 138.637 273.843 137.19Z" fill="#2E1B0E"/>
<path d="M261.23 140.968C261.23 140.968 261.89 138.521 261.32 136.758C259.511 136.104 255.806 135.467 252.932 134.725C244.3 132.502 244.341 134.819 242.138 138.385C246.24 136.992 251.697 138.478 253.769 138.921C255.435 139.277 261.23 140.968 261.23 140.968Z" fill="#2E1B0E"/>
<path d="M259.315 146.52C257.638 141.814 248.999 138.46 245.565 143.677C250.965 141.105 255.938 143.814 258.786 146.516C258.786 146.516 259.117 146.405 259.312 146.52H259.315Z" fill="#4C3120"/>
<path d="M244.54 145.293C249.753 149.33 251.828 150.489 257.964 147.427C258.257 147.283 259.908 146.329 259.087 146.416C254.103 146.955 251.982 147.243 247.156 145.915C246.743 145.8 243.786 144.706 244.54 145.289V145.293Z" fill="#1E1209"/>
<path d="M274.766 146.995C276.444 142.289 284.25 140.054 288.517 144.746C279.491 142.263 278.144 144.289 275.296 146.988C275.296 146.988 274.965 146.876 274.77 146.991L274.766 146.995Z" fill="#4C3120"/>
<path d="M289.542 145.768C285.218 149.179 282.254 150.963 276.118 147.902C275.825 147.758 274.173 146.804 274.995 146.89C279.979 147.43 282.1 147.718 286.926 146.39C287.339 146.275 288.266 146.067 289.542 145.764V145.768Z" fill="#1E1209"/>
<path d="M259.563 156.778C259.942 156.357 254.373 160.167 258.152 161.974C259.177 162.463 260.798 161.916 261.316 162.866C263.023 166.007 268.026 167.273 272.076 164.089C274.14 162.466 277.161 163.467 277.382 160.631C277.51 159.02 274.77 157.181 274.913 157.404C277.108 160.502 276.324 161.643 273.036 161.97C270.946 162.179 270.957 164.902 266.052 164.604C261.744 164.341 263.594 160.635 260.062 161.016C256.171 161.437 258.216 158.282 259.571 156.782L259.563 156.778Z" fill="#4C3120"/>
<path d="M267.336 170.22C270.109 168.634 272.639 170.717 276.575 169.875C280.512 169.033 282.498 167.705 282.636 167.799C277.975 171.933 274.402 173.225 267.501 173.441C263.087 173.581 254.97 172.196 251.866 168.533C252.057 168.497 253.626 169.717 257.732 169.857C262.566 170.022 264.209 168.691 267.339 170.224L267.336 170.22Z" fill="#65412B"/>
<path d="M278.362 173.181C270.71 176.992 264.941 176.56 255.987 172.563C260.599 178.859 262.374 179.554 267.249 179.554C272.458 179.554 274.294 179.298 278.358 173.181H278.362Z" fill="#4C3120"/>
<path d="M260.85 176.708C263.579 178.373 269.989 178.442 272.973 177.341C275.735 176.323 280.235 171.267 280.37 170.947C277.135 172.239 275.596 173.207 266.724 173.225C257.852 173.243 257.386 171.839 254.673 171.077C254.613 171.31 258.764 175.43 260.854 176.704L260.85 176.708Z" fill="#7F5235"/>
<path d="M180.312 186.94C175.478 188.077 134.953 274.265 134.304 308.368C134.03 322.72 170.017 340.027 186.654 306.162C192.584 291.917 198.202 287.139 201.34 263.493C205.46 232.452 182.252 186.559 180.312 186.94Z" fill="#A495BE"/>
<path d="M170.168 266.371C158.274 281.379 135.029 281.595 134.3 308.368C133.91 322.717 170.014 340.027 186.651 306.162C192.58 291.917 198.198 287.139 201.336 263.493C203.49 247.276 194.464 205.172 182.128 189.153C184.245 202.272 185.525 246.992 170.164 266.371H170.168Z" fill="#8D7BAD"/>
<path d="M192.205 237.194C189.165 261.593 182.826 282.714 156.86 290.658C156.86 290.658 194.46 321.666 195.721 300.15C198.03 260.798 192.201 237.198 192.201 237.198L192.205 237.194Z" fill="#7E69A2"/>
<path d="M134.304 308.368C132.754 331.489 206.605 355.333 221.467 360C243.343 366.34 249.483 342.553 234.456 332.816C219.429 323.08 201.831 314.941 184.534 299.621C162.947 284.531 136.079 281.893 134.304 308.368Z" fill="#A495BE"/>
<path d="M356.998 190.204C361.831 191.341 402.356 277.529 403.005 311.631C403.279 325.984 367.292 343.29 350.655 309.425C344.725 295.181 339.107 290.403 335.97 266.756C331.849 235.716 355.057 189.822 356.998 190.204Z" fill="#A495BE"/>
<path d="M367.176 271.282C373.015 292.263 403.009 278.5 403.009 311.631C403.009 325.987 367.296 343.29 350.659 309.425C344.729 295.181 339.111 290.403 335.974 266.756C333.819 250.54 342.845 208.435 355.181 192.417C353.065 205.535 359.948 245.308 367.179 271.282H367.176Z" fill="#8D7BAD"/>
<path d="M346.527 232.485C350.993 271.282 353.504 288.805 382.747 291.86C382.747 291.86 329.184 323.372 332.682 302.082C339.772 258.927 346.527 232.485 346.527 232.485Z" fill="#7E69A2"/>
<path d="M402.93 309.933C405.463 332.975 358.124 342.085 340.717 349.357C323.311 356.628 301.915 348.155 318.973 331.222C335.02 317.643 342.016 312.588 352.37 303.154C373.297 287.233 400.033 283.545 402.93 309.929V309.933Z" fill="#A495BE"/>
<path d="M357.546 191.132C358.611 188.844 336.863 181.489 297.892 177.121C297.892 196.004 284.145 209.425 269.111 226.166C256.876 214.437 225.798 207.712 237.098 175.333C216.573 180.262 200.465 183.371 180.488 186.85C180.068 186.922 179.809 187.34 179.948 187.728C201.201 247.715 198.784 315.776 186.729 379.998C186.651 380.422 186.966 380.814 187.416 380.814C248.346 380.814 297.787 380.868 348.433 380.814C348.955 380.814 349.203 380.322 349.06 379.839C339.64 348.274 336.837 235.608 357.542 191.136L357.546 191.132Z" fill="#A495BE"/>
<path d="M264.033 383.405C264.033 383.405 262.318 288.949 262.318 257.459C262.318 228.318 267.861 223.306 267.861 223.306L280.366 216.894C280.366 216.894 272.777 231.053 273.712 253.048C276.849 326.757 278.343 382.113 278.343 382.113L264.029 383.405H264.033Z" fill="#D9D3E4"/>
<path d="M270.571 230.168C271.646 230.168 272.518 229.331 272.518 228.3C272.518 227.269 271.646 226.433 270.571 226.433C269.495 226.433 268.623 227.269 268.623 228.3C268.623 229.331 269.495 230.168 270.571 230.168Z" fill="#757575"/>
<path d="M267.861 260.794C268.937 260.794 269.809 259.958 269.809 258.927C269.809 257.895 268.937 257.059 267.861 257.059C266.785 257.059 265.913 257.895 265.913 258.927C265.913 259.958 266.785 260.794 267.861 260.794Z" fill="#757575"/>
<path d="M268.994 289.219C270.07 289.219 270.942 288.383 270.942 287.351C270.942 286.32 270.07 285.484 268.994 285.484C267.919 285.484 267.047 286.32 267.047 287.351C267.047 288.383 267.919 289.219 268.994 289.219Z" fill="#757575"/>
<path d="M269.467 317.643C270.543 317.643 271.415 316.807 271.415 315.776C271.415 314.745 270.543 313.909 269.467 313.909C268.392 313.909 267.519 314.745 267.519 315.776C267.519 316.807 268.392 317.643 269.467 317.643Z" fill="#757575"/>
<path d="M270.571 348.27C271.646 348.27 272.518 347.434 272.518 346.403C272.518 345.371 271.646 344.535 270.571 344.535C269.495 344.535 268.623 345.371 268.623 346.403C268.623 347.434 269.495 348.27 270.571 348.27Z" fill="#757575"/>
<path d="M287.902 201.257C282.434 208.151 275.847 212.67 268.473 221.964C265.249 226.03 263.62 234.525 264.04 233.996C272.879 222.853 292.706 211.814 292.706 211.814C292.706 211.814 287.891 201.182 287.898 201.257H287.902Z" fill="#C2B8D3"/>
<path d="M293.903 169.152C293.903 169.152 293.854 175.031 293.903 176.812C294.083 183.234 293.565 189.035 287.902 201.254C289.343 206.744 290.739 208.799 292.709 211.81C297.75 208.669 301.867 206.399 299.664 189.848C298.988 184.774 293.899 169.148 293.899 169.148L293.903 169.152Z" fill="#D9D3E4"/>
<path d="M268.203 223.651C268.709 224.17 269.52 228.271 267.253 226.346C257.128 217.754 245.174 213.411 245.174 213.231C245.174 208.334 243.733 202.434 243.804 202.484C256.186 211.447 261.721 217.027 268.203 223.651Z" fill="#C2B8D3"/>
<path d="M235.769 205.765C235.769 205.765 237.653 211.67 245.779 213.372C245.779 213.372 244.87 204.646 241.545 194.396C237.766 182.734 240.055 175.333 240.055 175.333V167.788C240.055 167.788 235.54 176.772 235.54 186.984C235.54 199.778 235.769 205.762 235.769 205.762V205.765Z" fill="#D9D3E4"/>
<path d="M323.311 214.278C317.059 210.4 311.943 205.65 299.667 203.646C298.632 180.881 296.263 178.931 293.903 169.155C294 165.913 316.544 186.239 323.311 214.282V214.278Z" fill="#E8E5EF"/>
<path d="M213.053 219.733C218.697 215.333 222.889 212.123 235.946 205.956C234.55 184.627 240.13 167.493 240.055 167.54C228.391 174.909 222.717 181.73 219.767 188.999C216.565 196.889 213.875 208.856 213.053 219.733Z" fill="#E8E5EF"/>
<path d="M269.846 143.508C275.145 141.062 285.774 141.447 293.674 141.979C294.774 144.25 295.123 159.009 277.833 155.645C272.365 154.58 268.06 149.751 269.846 143.508ZM271.4 145.743C269.805 158.757 294.736 157.318 292.041 144.588C291.306 142.382 284.513 142.969 281.938 142.958C279.345 142.947 271.25 143.447 271.396 145.743H271.4Z" fill="#F18702"/>
<path d="M255.923 155.123C249.213 156.508 236.246 153.702 240.153 140.543C248.289 140.263 259.222 140.227 264.581 142.922C266.187 149.398 261.533 153.964 255.927 155.123H255.923ZM252.17 141.943C249.528 141.868 242.566 141.036 241.729 143.274C238.494 156.267 264.059 158.588 262.9 145.163C263.136 142.807 254.834 142.019 252.17 141.943Z" fill="#F18702"/>
<path d="M293.419 147.927C295.877 144.188 300.561 135.783 302.91 132.21C303.822 130.825 303.323 129.303 302.951 129.789C299.555 134.215 295.967 137.741 293.419 141.058V147.927Z" fill="#F18702"/>
<path d="M240.434 146.52C237.323 139.468 235.113 134.326 233.015 129.573C232.016 127.31 232.208 124.198 232.707 125.133C236.227 131.739 238.096 135.089 241.046 139.579L240.434 146.516V146.52Z" fill="#F18702"/>
<path d="M239.725 140C248.736 135.924 258.265 141.17 267.381 141.515C276.879 141.875 286.585 136.262 294.71 141.616C294.717 141.886 294.192 142.242 294.027 142.429C293.835 142.648 293.817 142.789 293.498 142.731C282.351 140.212 267.257 143.663 267.257 143.663C267.257 143.663 259.912 141.4 247.689 140.716C240.825 140.331 240.134 143.426 239.721 140H239.725Z" fill="#F18702"/>
<path d="M264.119 146.613C265.602 145.548 268.334 145.646 270.12 146.883C270.308 145.854 270.743 144.379 271.021 143.026C268.886 142.537 265.868 142.389 263.995 142.652C264.003 142.724 264.074 145.473 264.119 146.613Z" fill="#F18702"/>
<path d="M194.01 375.982H341.821C345.258 375.982 348.141 373.496 348.505 370.218L359.276 272.776C359.655 269.354 356.859 266.375 353.271 266.375H182.56C178.972 266.375 176.176 269.354 176.555 272.776L187.326 370.218C187.69 373.496 190.572 375.982 194.01 375.982Z" fill="#BDBDBD"/>
<path d="M267.729 333.914C273.592 333.914 278.343 328.006 278.343 320.716V317.284H269.257C263.395 317.284 258.644 323.192 258.644 330.481V333.914H267.729Z" fill="#E0E0E0"/>
<path d="M349.634 360L348.505 370.215C348.141 373.492 345.258 375.982 341.821 375.982H194.01C190.572 375.982 187.69 373.492 187.326 370.215L176.555 272.772C176.176 269.35 178.972 266.371 182.56 266.371H191.207L200.923 354.236C201.283 357.513 204.165 360 207.607 360H349.634Z" fill="#ADADAD"/>
<path d="M462.868 373.68H75.1187C71.0769 373.68 67.8004 376.821 67.8004 380.696V380.927C67.8004 384.802 71.0769 387.943 75.1187 387.943H462.868C466.909 387.943 470.186 384.802 470.186 380.927V380.696C470.186 376.821 466.909 373.68 462.868 373.68Z" fill="#492B7C"/>
<path d="M101.393 388H75.1224C71.0767 388 67.8004 384.859 67.8004 380.981V380.754C67.8004 376.879 71.0767 373.734 75.1224 373.734H101.393C97.3475 373.734 94.0712 376.879 94.0712 380.754V380.981C94.0712 384.859 97.3475 388 101.393 388Z" fill="#3D2467"/>
</g>
<defs>
<clipPath id="clip0_5203_61118">
<rect width="535" height="388" fill="white"/>
</clipPath>
</defs>
</svg>
