<svg width="80" height="80" viewBox="0 0 80 80" fill="none" xmlns="http://www.w3.org/2000/svg">
<path d="M37.4331 69.3889C57.1387 69.3889 73.1128 48.6686 73.1128 23.1078V11.076H42.5674C22.8618 11.076 6.89323 31.7852 6.89323 57.3515V69.3889H37.4331Z" fill="#FFDF77"/>
<path d="M72.8522 11.076L6.89323 69.034V57.3515C6.89323 31.7852 22.8673 11.076 42.5674 11.076H72.8522Z" fill="#FFE799"/>
<path d="M22.2725 34.3122C21.712 33.6418 21.8 32.6418 22.4703 32.0814L31.8549 24.2023C32.245 23.8781 32.767 23.7572 33.2505 23.8781L48.8604 27.6968C49.3659 27.8176 49.8989 27.6858 50.289 27.3451L60.1571 18.5814C60.811 17.999 61.811 18.0594 62.3934 18.7132C62.9758 19.3671 62.9154 20.3726 62.2615 20.9495L51.1407 30.8067C50.7505 31.1528 50.2066 31.2847 49.7121 31.1638L34.0527 27.3341C33.5637 27.2133 33.0417 27.3341 32.6571 27.6583L24.5088 34.499C23.8384 35.0594 22.8384 34.977 22.278 34.3012L22.2725 34.3122Z" fill="#F2A900"/>
<path d="M62.1406 27.7021L61.5747 27.6692C60.8549 27.6252 60.311 27.0098 60.3549 26.29L60.723 20.2021L54.6351 19.834C53.9153 19.79 53.3714 19.1746 53.4153 18.4549L53.4483 17.8889C53.4923 17.1691 54.1076 16.6252 54.8274 16.6691L62.6681 17.1417C63.4483 17.1911 64.0417 17.8615 63.9978 18.6417L63.5252 26.4823C63.4813 27.2021 62.8659 27.7461 62.1461 27.7021H62.1406Z" fill="#F2A900"/>
<path d="M56.7121 56.0814C56.9813 56.0814 57.2506 56.021 57.4923 55.9056C57.7341 55.7902 57.9539 55.6199 58.1242 55.4166C58.2945 55.2078 58.4209 54.966 58.4868 54.7023C58.5528 54.4386 58.5638 54.1693 58.5143 53.9001C57.866 50.6419 55.855 48.2627 53.4099 48.2627H48.0912C45.6736 48.2627 43.6242 50.6418 42.9813 53.8891C42.9319 54.1528 42.9374 54.4276 43.0088 54.6913C43.0747 54.955 43.2011 55.1968 43.3714 55.4056C43.5418 55.6144 43.7616 55.7792 44.0033 55.8946C44.2451 56.01 44.5143 56.0704 44.7835 56.0704L56.7176 56.0814H56.7121Z" fill="#6CB49F"/>
<path d="M51.5308 45.6309C50.6901 45.8012 49.822 45.6913 49.0472 45.3232C48.2725 44.9551 47.6351 44.3507 47.234 43.5924C46.8275 42.8342 46.6791 41.9661 46.8055 41.1199C46.9319 40.2683 47.3275 39.4825 47.9319 38.8782C48.5363 38.2683 49.322 37.8727 50.1681 37.7518C51.0143 37.6254 51.8824 37.7793 52.6352 38.1804C53.3879 38.5869 53.9978 39.2243 54.3604 39.999C54.7231 40.7738 54.833 41.6474 54.6626 42.4935C54.5088 43.2683 54.1297 43.9826 53.5692 44.5375C53.0143 45.0979 52.3 45.4771 51.5308 45.6309Z" fill="#6CB49F"/>
<path d="M25.1021 56.0814C25.3713 56.0814 25.6405 56.021 25.8823 55.9056C26.124 55.7902 26.3438 55.6199 26.5141 55.4166C26.6845 55.2078 26.8108 54.966 26.8768 54.7023C26.9427 54.4386 26.9537 54.1693 26.9043 53.9001C26.2559 50.6419 24.2449 48.2627 21.7998 48.2627H16.4757C14.0581 48.2627 12.0086 50.6418 11.3658 53.8891C11.3163 54.1528 11.3218 54.4276 11.3932 54.6913C11.4592 54.955 11.5856 55.1968 11.7559 55.4056C11.9262 55.6144 12.146 55.7792 12.3878 55.8946C12.6295 56.01 12.8987 56.0704 13.168 56.0704L25.1021 56.0814Z" fill="#6CB49F"/>
<path d="M19.9205 45.6309C19.0799 45.8012 18.2117 45.6913 17.437 45.3232C16.6623 44.9551 16.0249 44.3507 15.6238 43.5924C15.2172 42.8342 15.0689 41.9661 15.1952 41.1199C15.3216 40.2683 15.7172 39.4825 16.3216 38.8782C16.926 38.2683 17.7117 37.8727 18.5579 37.7518C19.404 37.6254 20.2722 37.7793 21.0249 38.1804C21.7777 38.5869 22.3876 39.2243 22.7502 39.999C23.1128 40.7738 23.2227 41.6474 23.0524 42.4935C22.8986 43.2683 22.5194 43.9826 21.959 44.5375C21.404 45.0979 20.6898 45.4771 19.9205 45.6309Z" fill="#6CB49F"/>
<path d="M21.1846 60.0484C21.1846 58.7957 21.4318 57.5539 21.9098 56.3946C22.3879 55.2352 23.0912 54.1858 23.9758 53.2957C24.8604 52.4111 25.9099 51.7078 27.0692 51.2242C28.223 50.7462 29.4648 50.499 30.7121 50.499H39.1736C40.4264 50.499 41.6626 50.7462 42.8165 51.2242C43.9703 51.7023 45.0198 52.4056 45.9044 53.2957C46.789 54.1803 47.4868 55.2352 47.9648 56.3946C48.4428 57.5539 48.6901 58.7957 48.6846 60.0484C48.6846 60.3286 48.5747 60.5979 48.3769 60.7957C48.1791 60.9935 47.9099 61.1034 47.6297 61.1034H22.2395C22.1022 61.1034 21.9648 61.0759 21.8329 61.021C21.7065 60.966 21.5857 60.8891 21.4923 60.7902C21.3934 60.6913 21.3164 60.5759 21.2615 60.444C21.2065 60.3177 21.1846 60.1748 21.1846 60.0374V60.0484Z" fill="#492B7C"/>
<path d="M38.113 50.5099H30.7119C29.4591 50.5099 28.2229 50.7572 27.069 51.2352C25.9152 51.7132 24.8657 52.4165 23.9811 53.3012C23.0965 54.1858 22.3932 55.2407 21.9152 56.4001C21.4372 57.5594 21.1899 58.8012 21.1899 60.0539C21.1899 60.1913 21.2174 60.3341 21.2723 60.4605C21.3273 60.5869 21.4042 60.7078 21.5031 60.8067C21.602 60.9056 21.7174 60.9825 21.8492 61.0374C21.9756 61.0924 22.113 61.1198 22.2558 61.1144H28.602C28.7449 61.1144 28.8822 61.0869 29.0141 61.0319C29.146 60.977 29.2613 60.8946 29.3602 60.7957C29.4591 60.6968 29.5361 60.5759 29.5855 60.444C29.635 60.3122 29.6624 60.1693 29.6569 60.0264V58.999C29.6569 56.7462 30.5526 54.5924 32.1405 52.999C33.7284 51.4056 35.8822 50.5154 38.124 50.5154L38.113 50.5099Z" fill="#3D2467"/>
<path d="M35.8438 46.6143C34.4482 46.8011 33.0306 46.5484 31.7889 45.8836C30.5471 45.2242 29.5416 44.1857 28.9207 42.922C28.2943 41.6583 28.0801 40.2297 28.3108 38.8396C28.5361 37.4495 29.1954 36.1638 30.1845 35.1638C31.179 34.1638 32.4592 33.5044 33.8438 33.2737C35.2284 33.0429 36.657 33.2517 37.9152 33.8726C39.179 34.4934 40.2119 35.4989 40.8768 36.7407C41.5416 37.9824 41.7999 39.4055 41.6185 40.8011C41.4262 42.2682 40.7559 43.6363 39.7119 44.6858C38.668 45.7352 37.3108 46.411 35.8438 46.6088V46.6143Z" fill="#492B7C"/>
</svg>
