<svg width="80" height="80" viewBox="0 0 80 80" fill="none" xmlns="http://www.w3.org/2000/svg">
<path d="M37.4331 69.3889C57.1387 69.3889 73.1128 48.6686 73.1128 23.1078V11.076H42.5674C22.8618 11.076 6.89322 31.7852 6.89322 57.3515V69.3889H37.4331Z" fill="#FFDF77"/>
<path d="M72.8522 11.076L6.89322 69.034V57.3515C6.89322 31.7852 22.8673 11.076 42.5674 11.076H72.8522Z" fill="#FFE799"/>
<path d="M49.9876 60.3922C39.5627 66.4137 26.2329 62.8397 20.2113 52.4149C14.1898 41.99 17.7638 28.6602 28.1887 22.6386C38.6135 16.617 51.9433 20.1911 57.9649 30.6159C63.9865 41.0408 60.4124 54.3706 49.9876 60.3922Z" fill="#A7D2C5"/>
<path d="M40.6319 34.9963C40.4775 35.0307 40.1687 35.1107 40.0372 35.2136C39.8713 35.3452 40.1287 35.5167 40.0372 35.5911C39.877 35.7226 39.7569 35.957 39.4138 35.9342C38.6933 35.8884 37.5782 34.9506 36.9206 34.596C37.9842 33.4981 36.303 33.3323 35.6453 33.3894C34.7933 33.4581 33.3236 33.3894 32.5516 33.8183C32.0198 34.1214 31.2993 35.368 30.8704 35.8598C30.27 36.5518 29.6695 37.1465 29.2807 37.97C27.851 40.995 30.0527 44.4719 33.5123 44.0659C34.4731 43.9515 35.4795 43.3511 36.3316 44.1459C36.9606 44.7349 36.6289 45.2839 36.7948 45.9701C36.9377 46.5649 37.5954 46.9251 37.8241 47.4741C38.2587 48.5149 37.9842 49.1668 37.6754 50.1332C37.2694 51.397 38.3216 52.8952 38.7333 54.1133C38.9392 54.7252 39.5396 56.4464 40.1344 56.7152C41.0665 57.1384 42.519 55.8689 43.0794 55.1884C43.514 54.6565 43.371 54.1133 43.6627 53.6158C43.9772 53.0782 44.3775 52.9124 44.6005 52.2147C44.8407 51.4656 45.0866 51.2769 45.5898 50.7279C46.4018 49.8473 46.276 49.3326 45.9501 48.2861C45.2753 46.1131 47.7228 45.1009 48.8208 43.5055C49.9702 41.8414 47.7457 42.3961 46.8765 41.8242C45.9787 41.2409 45.5898 40.1258 45.1552 39.2052C44.7206 38.2845 44.3661 36.8949 43.6512 36.14C43.1023 35.5568 41.4268 35.288 40.6433 34.9963H40.6319Z" fill="#6CB49F"/>
<path d="M51.8802 49.5671C51.7258 50.871 50.4563 57.2585 48.5292 54.8625C48.0317 54.2391 48.4434 53.3585 48.7008 52.7581C49.021 52.0032 48.4835 51.58 48.8094 50.9053C49.467 49.5443 49.9645 50.4421 51.4514 47.966C51.7373 47.4913 51.9431 49.0239 51.8802 49.5729V49.5671Z" fill="#6CB49F"/>
<path d="M57.9648 30.6217C54.2134 24.1198 47.6143 20.2827 40.6491 19.7794C40.6491 19.7794 38.5219 22.4729 37.8013 23.3535C35.8685 25.7038 30.5274 25.2406 30.7676 28.7518C30.8419 29.8383 32.4545 32.6975 33.2952 32.0056C36.2688 29.5752 37.1666 31.6396 39.9801 30.1757C41.7986 29.2264 42.542 31.7654 43.6228 32.4288C44.1088 32.7261 46.5907 32.9777 46.8423 34.5732C46.9795 35.4481 48.0317 38.5133 48.7065 38.8221C50.3134 39.5597 52.984 37.8842 53.2127 36.1172C53.2642 35.7226 52.0804 34.7047 52.9897 34.6704C53.6759 34.6475 54.7796 34.5561 55.3457 35.1393C56.3865 36.2259 56.5237 39.6741 57.8847 40.143C59.6632 40.7549 58.5824 37.7927 59.9434 36.7348C60.0577 36.6433 60.1778 36.5575 60.3094 36.4946C59.8347 34.4817 59.057 32.4974 57.9705 30.616L57.9648 30.6217Z" fill="#6CB49F"/>
<path d="M25.3578 31.4738C26.307 30.2729 27.7081 28.9405 26.9532 27.3279C26.5072 26.2414 25.5179 25.5323 24.4314 25.3893C20.5828 28.8833 18.1868 33.5725 17.5005 38.5476C18.3126 39.2567 19.1646 40.023 19.1589 40.0859C19.1475 40.2117 21.9095 40.4061 22.2069 39.7027C22.4814 39.0623 20.5943 38.0901 20.6343 37.3925C20.6743 36.6948 22.3841 36.2488 22.8931 35.7741C23.8023 34.9335 24.5858 32.446 25.3578 31.4738Z" fill="#6CB49F"/>
<path d="M27.4794 53.1869C29.7725 52.4206 28.0856 50.3448 28.4001 48.8066C29.1263 46.5592 25.2778 47.4284 24.7803 45.9587C24.7803 45.9587 22.0011 43.1109 20.7544 42.8993C19.8909 42.7507 17.4263 43.9801 17.4263 43.9801C17.7522 46.868 18.6672 49.7387 20.2112 52.4149C21.6408 54.891 23.4822 56.984 25.6037 58.6481C25.6037 58.6481 25.7238 54.4622 26.593 53.4729C26.7474 53.3013 27.2564 53.2613 27.4737 53.1869H27.4794Z" fill="#6CB49F"/>
<path d="M54.5738 23.8738C54.5738 27.6137 50.1019 31.4394 50.1019 31.4394C50.1019 31.4394 45.63 27.6137 45.63 23.8738C45.63 21.3691 47.6315 19.3333 50.1019 19.3333C52.5723 19.3333 54.5738 21.3634 54.5738 23.8738Z" fill="#715A99"/>
<path d="M47.9918 23.8738C47.9918 21.7866 49.3871 20.0482 51.28 19.5163C50.9025 19.4077 50.508 19.3333 50.0962 19.3333C47.6258 19.3333 45.6244 21.3634 45.6244 23.8738C45.6244 27.6137 50.0962 31.4394 50.0962 31.4394C50.0962 31.4394 50.6052 30.9991 51.28 30.2786C49.9533 28.8661 47.9918 26.3499 47.9918 23.8738Z" fill="#674E92"/>
<path d="M50.0964 25.4463C51.0533 25.4463 51.8291 24.6705 51.8291 23.7136C51.8291 22.7566 51.0533 21.9809 50.0964 21.9809C49.1394 21.9809 48.3636 22.7566 48.3636 23.7136C48.3636 24.6705 49.1394 25.4463 50.0964 25.4463Z" fill="#F2A900"/>
<path d="M46.322 42.0472C46.322 45.7871 41.8501 49.6128 41.8501 49.6128C41.8501 49.6128 37.3782 45.7871 37.3782 42.0472C37.3782 39.5425 39.3797 37.5067 41.8501 37.5067C44.3205 37.5067 46.322 39.5368 46.322 42.0472Z" fill="#715A99"/>
<path d="M39.7399 42.0472C39.7399 39.96 41.1352 38.2216 43.0281 37.6897C42.6506 37.5811 42.2561 37.5067 41.8443 37.5067C39.3739 37.5067 37.3725 39.5368 37.3725 42.0472C37.3725 45.7871 41.8443 49.6128 41.8443 49.6128C41.8443 49.6128 42.3533 49.1725 43.0281 48.452C41.7014 47.0395 39.7399 44.5233 39.7399 42.0472Z" fill="#674E92"/>
<path d="M41.8445 43.6198C42.8015 43.6198 43.5772 42.844 43.5772 41.8871C43.5772 40.9301 42.8015 40.1544 41.8445 40.1544C40.8876 40.1544 40.1118 40.9301 40.1118 41.8871C40.1118 42.844 40.8876 43.6198 41.8445 43.6198Z" fill="#F2A900"/>
<path d="M24.2771 31.2336C24.2771 34.9735 19.8052 38.7992 19.8052 38.7992C19.8052 38.7992 15.3333 34.9735 15.3333 31.2336C15.3333 28.7289 17.3348 26.6931 19.8052 26.6931C22.2756 26.6931 24.2771 28.7232 24.2771 31.2336Z" fill="#715A99"/>
<path d="M17.7008 31.2336C17.7008 29.1464 19.0961 27.4079 20.9889 26.8761C20.6115 26.7675 20.2169 26.6931 19.8052 26.6931C17.3348 26.6931 15.3333 28.7232 15.3333 31.2336C15.3333 34.9735 19.8052 38.7992 19.8052 38.7992C19.8052 38.7992 20.3142 38.3589 20.9889 37.6383C19.6622 36.2259 17.7008 33.7097 17.7008 31.2336Z" fill="#674E92"/>
<path d="M19.8053 32.8061C20.7623 32.8061 21.538 32.0304 21.538 31.0734C21.538 30.1165 20.7623 29.3407 19.8053 29.3407C18.8484 29.3407 18.0726 30.1165 18.0726 31.0734C18.0726 32.0304 18.8484 32.8061 19.8053 32.8061Z" fill="#F2A900"/>
</svg>
