<svg width="180" height="119" viewBox="0 0 180 119" fill="none" xmlns="http://www.w3.org/2000/svg">
<g clip-path="url(#clip0_1776_20260)">
<path d="M0 -0.000732422H180V119.001H0V-0.000732422Z" fill="#338AF3"/>
<path d="M0 59.498H180V87.9531H0V59.498Z" fill="#FFDA44"/>
<path d="M0 87.9536H180V118.997H0V87.9536Z" fill="#496E2D"/>
<path d="M97.8262 34.82L105.154 38.238L101.252 45.2755L109.209 43.7659L110.217 51.7374L115.759 45.8748L121.302 51.7374L122.31 43.7659L130.267 45.2755L126.365 38.238L133.693 34.82L126.365 31.4017L130.267 24.3645L122.31 25.8737L121.302 17.9026L115.759 23.7652L110.217 17.9026L109.209 25.8737L101.251 24.3645L105.154 31.4024L97.8262 34.82Z" fill="#FFDA44"/>
</g>
<defs>
<clipPath id="clip0_1776_20260">
<rect width="180" height="119" fill="white"/>
</clipPath>
</defs>
</svg>
