<svg width="181" height="119" viewBox="0 0 181 119" fill="none" xmlns="http://www.w3.org/2000/svg">
<g clip-path="url(#clip0_2505_110900)">
<path d="M0.500488 0.00164795H180.5V118.999H0.500488V0.00164795Z" fill="white"/>
<path d="M40.5872 59.5006L0.50061 19.7302V99.2779L40.5872 59.5006Z" fill="black"/>
<path d="M57.1697 59.5002L0.50061 3.26569V19.7302L40.5872 59.5006L0.50061 99.2779V115.712L57.1697 59.5002Z" fill="#FFB915"/>
<path d="M179.739 71.1416C179.759 70.9882 180.021 70.8355 180.5 70.6821V47.8592H78.759L30.4993 0.00164795H0.500488V3.2659L57.1696 59.5004L0.500488 115.712V118.999H30.4993L78.759 71.1416H179.739Z" fill="#007847"/>
<path d="M177.4 82.783H83.6216L47.101 118.999H180.501V82.783H177.4Z" fill="#000C8A"/>
<path d="M177.4 36.2175H180.501V0.00146484H47.101L83.6216 36.2175H177.4Z" fill="#E1392D"/>
</g>
<defs>
<clipPath id="clip0_2505_110900">
<rect width="180" height="119" fill="white" transform="translate(0.5)"/>
</clipPath>
</defs>
</svg>
