
<svg  width="16" height="15" viewBox="0 0 12 15" fill="none" xmlns="http://www.w3.org/2000/svg">
<path d="M10.9492 8.43359L3.97656 14.5312C3.78516 14.6953 3.56641 14.75 3.375 14.75C3.18359 14.75 2.99219 14.6953 2.85547 14.5859C2.52734 14.3672 2.39062 13.9297 2.55469 13.5469L4.66016 8.625H1.625C1.24219 8.625 0.914062 8.40625 0.804688 8.07812C0.667969 7.72266 0.75 7.33984 1.02344 7.09375L8.02344 0.996094C8.32422 0.722656 8.76172 0.722656 9.08984 0.96875C9.44531 1.1875 9.55469 1.625 9.39062 2.00781L7.28516 6.90234H10.3477C10.7031 6.90234 11.0312 7.14844 11.168 7.47656C11.3047 7.80469 11.2227 8.1875 10.9492 8.43359Z" fill="#492B7C"/>
</svg>
