<svg width="24" height="24" viewBox="0 0 24 24" fill="none" xmlns="http://www.w3.org/2000/svg">
<g clip-path="url(#clip0_1343_13403)">
<path d="M12 24C18.6274 24 24 18.6274 24 12C24 5.37258 18.6274 0 12 0C5.37258 0 0 5.37258 0 12C0 18.6274 5.37258 24 12 24Z" fill="#45CD85"/>
<path d="M11.496 18.528C13.992 18.528 16.2 16.872 16.92 14.448H14.976C14.376 15.816 13.008 16.704 11.496 16.704C9.384 16.704 7.68 15 7.68 12.888C7.68 11.376 8.568 10.008 9.936 9.40801V7.46401C7.512 8.18401 5.856 10.392 5.856 12.888C5.856 15.984 8.4 18.528 11.496 18.528ZM14.832 11.4V10.032C15.36 10.2 15.552 10.392 15.552 10.68C15.552 11.016 15.288 11.28 14.832 11.4ZM13.44 13.752H14.88V12.984C16.296 12.744 17.208 11.856 17.208 10.68C17.208 9.04801 15.96 8.61601 14.832 8.40001V6.81601C15.408 6.91201 16.008 7.12801 16.536 7.44001V5.66401C15.984 5.44801 15.432 5.32801 14.88 5.28001V4.53601H13.44V5.28001C12.024 5.52001 11.136 6.36001 11.136 7.51201C11.136 9.14401 12.36 9.62401 13.488 9.84001V11.4C12.84 11.256 12.096 10.968 11.184 10.44V12.264C11.952 12.672 12.72 12.912 13.44 12.984V13.752ZM13.488 8.18401C12.984 8.04001 12.792 7.84801 12.792 7.51201C12.792 7.17601 13.032 6.93601 13.488 6.84001V8.18401Z" fill="white"/>
<path d="M11.496 18.288C13.848 18.288 15.84 16.776 16.584 14.688H15.12C14.472 16.032 13.08 16.944 11.496 16.944C9.264 16.944 7.44 15.12 7.44 12.888C7.44 11.304 8.352 9.912 9.696 9.264V7.8C7.608 8.544 6.096 10.536 6.096 12.888C6.096 15.864 8.52 18.288 11.496 18.288ZM14.592 11.688V9.72C15.264 9.888 15.792 10.104 15.792 10.68C15.792 11.208 15.336 11.592 14.592 11.688ZM13.68 13.512H14.64V12.768C16.056 12.6 16.968 11.784 16.968 10.68C16.968 9.144 15.744 8.808 14.592 8.592V6.552C15.144 6.6 15.744 6.768 16.296 7.032V5.832C15.768 5.64 15.192 5.52 14.64 5.496V4.776H13.68V5.496C12.216 5.664 11.376 6.48 11.376 7.512C11.376 9.072 12.576 9.432 13.728 9.648V11.688C13.032 11.592 12.288 11.304 11.424 10.848V12.12C12.168 12.48 12.936 12.72 13.68 12.768V13.512ZM13.728 8.496C13.056 8.352 12.552 8.112 12.552 7.512C12.552 6.96 12.984 6.624 13.728 6.552V8.496Z" fill="white"/>
</g>
<defs>
<clipPath id="clip0_1343_13403">
<rect width="24" height="24" fill="white"/>
</clipPath>
</defs>
</svg>
