<svg width="24" height="24" viewBox="0 0 24 24" fill="none" xmlns="http://www.w3.org/2000/svg">
<circle cx="12" cy="12" r="12" fill="black"/>
<g clip-path="url(#clip0_1343_13396)">
<path d="M19.8319 16.0382L17.2478 18.809C17.1919 18.8692 17.1242 18.9172 17.0489 18.9501C16.9736 18.983 16.8924 19 16.8103 19.0001H4.56025C4.50182 19 4.44468 18.983 4.3958 18.9509C4.34693 18.9189 4.30845 18.8734 4.28508 18.8198C4.26171 18.7663 4.25446 18.7071 4.26423 18.6495C4.27399 18.5919 4.30033 18.5383 4.34004 18.4955L6.92129 15.7246C6.97719 15.6645 7.04487 15.6164 7.12015 15.5836C7.19541 15.5507 7.27666 15.5337 7.35879 15.5336H19.6088C19.6677 15.5324 19.7258 15.5486 19.7755 15.5803C19.8252 15.612 19.8646 15.6577 19.8884 15.7116C19.9123 15.7655 19.9196 15.8253 19.9095 15.8834C19.8994 15.9416 19.8725 15.9954 19.8319 16.0382Z" fill="#9945FF"/>
<path d="M17.0487 10.3165C17.1239 10.3494 17.1916 10.3972 17.2478 10.4571L19.8275 13.2294C19.8672 13.2722 19.8935 13.3256 19.9032 13.3831C19.9131 13.4405 19.906 13.4996 19.8828 13.5531C19.8596 13.6066 19.8214 13.6522 19.7727 13.6843C19.724 13.7164 19.6671 13.7337 19.6088 13.734H7.35879C7.27672 13.7336 7.19557 13.7164 7.12035 13.6836C7.04513 13.6507 6.97739 13.6029 6.92129 13.543L4.34004 10.7707C4.30033 10.7278 4.27399 10.6743 4.26423 10.6167C4.25446 10.5591 4.26171 10.4999 4.28508 10.4464C4.30845 10.3928 4.34693 10.3472 4.3958 10.3152C4.44468 10.2832 4.50182 10.2661 4.56025 10.2661H16.8103C16.8923 10.2665 16.9735 10.2837 17.0487 10.3165Z" fill="#5892D8"/>
<path d="M16.8103 8.46652H4.56025C4.50182 8.46649 4.44468 8.44942 4.3958 8.4174C4.34693 8.38539 4.30845 8.33982 4.28508 8.28627C4.26171 8.23272 4.25446 8.17352 4.26423 8.11592C4.27399 8.05831 4.30033 8.00479 4.34004 7.96193L6.92129 5.19111C6.97719 5.13092 7.04487 5.0829 7.12015 5.05003C7.19541 5.01716 7.27666 5.00015 7.35879 5.00006H19.6088C19.6677 4.99885 19.7257 5.0151 19.7755 5.04677C19.8252 5.07844 19.8646 5.12412 19.8884 5.17805C19.9123 5.23199 19.9196 5.29178 19.9095 5.34989C19.8994 5.408 19.8725 5.46185 19.8319 5.50465L17.2478 8.27547C17.1919 8.33566 17.1242 8.3837 17.0489 8.41655C16.9736 8.44942 16.8924 8.46644 16.8103 8.46652Z" fill="#19FB9B"/>
</g>
<defs>
<clipPath id="clip0_1343_13396">
<rect width="15.8958" height="14" fill="white" transform="translate(4 5)"/>
</clipPath>
</defs>
</svg>
