<svg width="24" height="24" viewBox="0 0 24 24" fill="none" xmlns="http://www.w3.org/2000/svg">
<circle cx="12" cy="12" r="12" fill="#0033AD"/>
<path d="M8.23342 12.2529C8.21636 12.55 8.31796 12.8418 8.51589 13.0641C8.71382 13.2863 8.99188 13.4209 9.289 13.4383H9.35023C9.56905 13.438 9.783 13.3737 9.9657 13.2533C10.1484 13.1329 10.2918 12.9616 10.3783 12.7606C10.4647 12.5595 10.4905 12.3376 10.4523 12.1222C10.414 11.9067 10.3136 11.7071 10.1633 11.5481C10.013 11.3891 9.81938 11.2776 9.60642 11.2273C9.39345 11.177 9.17043 11.1902 8.96487 11.2652C8.75931 11.3402 8.58022 11.4738 8.44969 11.6494C8.31916 11.8251 8.24292 12.0351 8.23036 12.2535L8.23342 12.2529Z" fill="white"/>
<path d="M4.05523 11.9688C3.9838 11.9648 3.91278 11.9821 3.85116 12.0184C3.78953 12.0548 3.74007 12.1086 3.70901 12.1731C3.67796 12.2375 3.66671 12.3097 3.67668 12.3806C3.68666 12.4514 3.71741 12.5177 3.76505 12.5711C3.8127 12.6245 3.87509 12.6625 3.94436 12.6804C4.01362 12.6984 4.08664 12.6954 4.1542 12.6718C4.22175 12.6482 4.2808 12.6052 4.32389 12.548C4.36698 12.4909 4.39216 12.4223 4.39627 12.3509C4.39908 12.3034 4.39248 12.2558 4.37684 12.2108C4.36121 12.1659 4.33684 12.1245 4.30515 12.089C4.27346 12.0535 4.23507 12.0246 4.19218 12.004C4.14929 11.9833 4.10275 11.9714 4.05523 11.9688V11.9688Z" fill="white"/>
<path d="M8.16238 5.74987C8.22601 5.7172 8.27854 5.66643 8.31337 5.60397C8.34821 5.54151 8.36379 5.47013 8.35814 5.39884C8.3525 5.32754 8.3259 5.2595 8.28167 5.2033C8.23745 5.14709 8.17758 5.10522 8.10962 5.08296C8.04165 5.0607 7.96861 5.05905 7.89971 5.0782C7.8308 5.09736 7.7691 5.13648 7.72238 5.19062C7.67565 5.24477 7.64599 5.31153 7.63713 5.3825C7.62826 5.45347 7.64059 5.52547 7.67256 5.58945C7.69405 5.63227 7.7238 5.67042 7.7601 5.70169C7.7964 5.73296 7.83854 5.75674 7.88407 5.77165C7.9296 5.78656 7.97764 5.79232 8.0254 5.78858C8.07317 5.78484 8.11973 5.77168 8.16238 5.74987V5.74987Z" fill="white"/>
<path d="M9.2994 7.73244C9.39821 7.6826 9.48002 7.60458 9.53449 7.50825C9.58897 7.41192 9.61366 7.3016 9.60544 7.19124C9.59722 7.08087 9.55647 6.97543 9.48834 6.88822C9.4202 6.80102 9.32774 6.73598 9.22264 6.70131C9.11754 6.66665 9.00453 6.66393 8.89788 6.69349C8.79123 6.72305 8.69575 6.78356 8.62349 6.86738C8.55123 6.9512 8.50545 7.05457 8.49193 7.1644C8.4784 7.27424 8.49775 7.38562 8.54752 7.48446C8.58059 7.55013 8.62627 7.60864 8.68196 7.65665C8.73765 7.70466 8.80225 7.74122 8.87208 7.76425C8.9419 7.78728 9.01558 7.79632 9.08891 7.79086C9.16223 7.78541 9.23376 7.76555 9.2994 7.73244V7.73244Z" fill="white"/>
<path d="M5.47325 9.09599C5.54947 9.14611 5.63883 9.1725 5.73004 9.17181C5.82126 9.17112 5.91021 9.1434 5.98566 9.09214C6.06111 9.04088 6.11966 8.96839 6.15391 8.88385C6.18815 8.79931 6.19654 8.70651 6.17803 8.61719C6.15951 8.52788 6.11492 8.44606 6.04989 8.38209C5.98487 8.31813 5.90233 8.27489 5.81272 8.25784C5.72311 8.2408 5.63046 8.25072 5.54649 8.28635C5.46252 8.32198 5.39101 8.38171 5.341 8.45799C5.27402 8.56016 5.25033 8.68474 5.27513 8.80436C5.29992 8.92398 5.37118 9.02887 5.47325 9.09599V9.09599Z" fill="white"/>
<path d="M6.15474 11.7649C6.04426 11.7587 5.9344 11.7854 5.83907 11.8415C5.74374 11.8977 5.6672 11.9809 5.61913 12.0806C5.57107 12.1803 5.55363 12.2919 5.56903 12.4015C5.58442 12.5111 5.63196 12.6137 5.70563 12.6962C5.7793 12.7788 5.8758 12.8377 5.98293 12.8654C6.09005 12.8932 6.203 12.8885 6.30748 12.8521C6.41197 12.8156 6.50331 12.749 6.56996 12.6607C6.6366 12.5724 6.67556 12.4663 6.68191 12.3558C6.69027 12.2075 6.63945 12.062 6.5406 11.9513C6.44175 11.8405 6.30297 11.7735 6.15474 11.7649V11.7649Z" fill="white"/>
<path d="M5.53448 15.5274C5.45311 15.5686 5.38577 15.6329 5.34095 15.7123C5.29613 15.7917 5.27586 15.8826 5.28269 15.9735C5.28953 16.0644 5.32316 16.1512 5.37934 16.223C5.43553 16.2948 5.51174 16.3484 5.59834 16.3769C5.68494 16.4054 5.77804 16.4075 5.86588 16.3831C5.95373 16.3587 6.03236 16.3088 6.09184 16.2397C6.15132 16.1706 6.18899 16.0855 6.20007 15.995C6.21116 15.9045 6.19516 15.8127 6.15411 15.7313C6.12684 15.6772 6.08917 15.6291 6.04326 15.5895C5.99735 15.55 5.9441 15.5199 5.88655 15.501C5.82901 15.482 5.76829 15.4746 5.70788 15.4792C5.64747 15.4837 5.58855 15.5001 5.53448 15.5274V15.5274Z" fill="white"/>
<path d="M7.70991 10.6083C7.81889 10.6798 7.9466 10.7173 8.07688 10.7161C8.20717 10.7149 8.33419 10.6752 8.44188 10.6018C8.54957 10.5285 8.6331 10.4249 8.6819 10.3041C8.7307 10.1832 8.74258 10.0507 8.71604 9.92312C8.6895 9.79556 8.62573 9.67873 8.53279 9.58741C8.43986 9.49608 8.32194 9.43437 8.19393 9.41006C8.06592 9.38576 7.93358 9.39995 7.81364 9.45086C7.69371 9.50176 7.59155 9.58709 7.52011 9.69604C7.47257 9.76838 7.43978 9.84938 7.42359 9.93441C7.4074 10.0194 7.40815 10.1068 7.42578 10.1916C7.44341 10.2763 7.47758 10.3567 7.52634 10.4283C7.57509 10.4998 7.63747 10.561 7.70991 10.6083V10.6083Z" fill="white"/>
<path d="M14.6116 7.68835C14.7044 7.74887 14.813 7.78053 14.9238 7.77932C15.0346 7.77811 15.1425 7.74408 15.2339 7.68154C15.3254 7.619 15.3962 7.53075 15.4375 7.42795C15.4788 7.32516 15.4887 7.21242 15.466 7.104C15.4432 6.99559 15.3888 6.89635 15.3096 6.81884C15.2305 6.74133 15.1301 6.68902 15.0213 6.66854C14.9124 6.64805 14.7999 6.6603 14.698 6.70374C14.5961 6.74718 14.5093 6.81986 14.4487 6.91259C14.4084 6.97418 14.3806 7.04314 14.3669 7.1155C14.3532 7.18786 14.354 7.26221 14.3691 7.33428C14.3843 7.40634 14.4135 7.47472 14.4551 7.53548C14.4967 7.59624 14.5499 7.64819 14.6116 7.68835V7.68835Z" fill="white"/>
<path d="M15.7602 5.71192C15.8202 5.75123 15.8905 5.77187 15.9622 5.77122C16.0339 5.77058 16.1038 5.74868 16.1631 5.70829C16.2223 5.66791 16.2683 5.61086 16.2951 5.54435C16.3219 5.47785 16.3284 5.40488 16.3138 5.33468C16.2991 5.26449 16.2639 5.20021 16.2128 5.15C16.1616 5.09978 16.0966 5.06588 16.0262 5.05258C15.9557 5.03928 15.8829 5.04719 15.8169 5.07529C15.7509 5.10339 15.6948 5.15043 15.6555 5.21046C15.603 5.29086 15.5845 5.38883 15.6041 5.48285C15.6237 5.57687 15.6799 5.65926 15.7602 5.71192V5.71192Z" fill="white"/>
<path d="M14.6998 11.1863C14.5528 11.1779 14.4056 11.1985 14.2667 11.2469C14.1277 11.2953 13.9996 11.3707 13.8897 11.4686C13.6678 11.6664 13.5336 11.9442 13.5165 12.241C13.4995 12.5377 13.601 12.8291 13.7988 13.051C13.9966 13.2729 14.2744 13.4072 14.5712 13.4242C14.5926 13.4242 14.6146 13.4242 14.6361 13.4242C14.8523 13.4241 15.0638 13.3615 15.2452 13.2438C15.4266 13.1262 15.57 12.9586 15.6583 12.7613C15.7466 12.564 15.7759 12.3453 15.7427 12.1317C15.7095 11.9181 15.6152 11.7186 15.4712 11.5574C15.3737 11.4474 15.2553 11.358 15.1228 11.2943C14.9904 11.2305 14.8465 11.1939 14.6998 11.1863V11.1863Z" fill="white"/>
<path d="M9.66739 10.5306C9.76041 10.7164 9.90346 10.8726 10.0804 10.9815C10.2574 11.0904 10.4613 11.1478 10.6691 11.1471C10.8607 11.1472 11.0491 11.0981 11.2163 11.0046C11.3836 10.9111 11.5241 10.7764 11.6244 10.6132C11.7247 10.4499 11.7816 10.2637 11.7895 10.0723C11.7974 9.88087 11.7561 9.69061 11.6696 9.51967C11.5759 9.33469 11.4326 9.17943 11.2557 9.07129C11.0787 8.96315 10.8752 8.9064 10.6679 8.90739C10.4769 8.90772 10.2891 8.95684 10.1224 9.05009C9.95573 9.14334 9.81563 9.27764 9.71541 9.44024C9.61519 9.60283 9.55817 9.78834 9.54977 9.97916C9.54137 10.17 9.58185 10.3598 9.66739 10.5306V10.5306Z" fill="white"/>
<path d="M18.4536 9.09476C18.535 9.05369 18.6024 8.98942 18.6473 8.91007C18.6921 8.83072 18.7125 8.73984 18.7057 8.64894C18.6989 8.55803 18.6654 8.47117 18.6092 8.39933C18.5531 8.3275 18.477 8.27391 18.3904 8.24534C18.3038 8.21677 18.2108 8.2145 18.1229 8.23882C18.0351 8.26314 17.9564 8.31296 17.8968 8.38198C17.8373 8.451 17.7995 8.53613 17.7883 8.62659C17.7772 8.71706 17.7931 8.80882 17.834 8.89026C17.8891 8.9995 17.9853 9.08239 18.1015 9.12073C18.2177 9.15908 18.3443 9.14974 18.4536 9.09476V9.09476Z" fill="white"/>
<path d="M15.6121 9.45173C15.4957 9.51034 15.3993 9.60214 15.3351 9.71553C15.2709 9.82892 15.2418 9.9588 15.2514 10.0887C15.261 10.2187 15.3089 10.3429 15.3891 10.4456C15.4693 10.5483 15.5781 10.6249 15.7019 10.6657C15.8256 10.7066 15.9587 10.7098 16.0843 10.675C16.2098 10.6403 16.3223 10.569 16.4074 10.4703C16.4924 10.3717 16.5464 10.25 16.5623 10.1206C16.5782 9.9913 16.5554 9.86016 16.4968 9.74379C16.4579 9.66646 16.4042 9.59755 16.3387 9.54101C16.2732 9.48447 16.1972 9.4414 16.115 9.41428C16.0328 9.38715 15.9461 9.37649 15.8598 9.38292C15.7735 9.38935 15.6893 9.41273 15.6121 9.45173V9.45173Z" fill="white"/>
<path d="M11.9518 5.54293C12.0429 5.54812 12.1334 5.52618 12.212 5.4799C12.2906 5.43362 12.3537 5.36507 12.3933 5.28292C12.4329 5.20077 12.4473 5.10872 12.4346 5.01841C12.4219 4.92809 12.3827 4.84358 12.3219 4.77555C12.2612 4.70752 12.1816 4.65904 12.0933 4.63623C12.005 4.61342 11.9119 4.61732 11.8258 4.64742C11.7398 4.67753 11.6645 4.73249 11.6097 4.80536C11.5548 4.87823 11.5228 4.96572 11.5177 5.05678C11.5109 5.1788 11.5527 5.29855 11.6341 5.38971C11.7155 5.48087 11.8298 5.53598 11.9518 5.54293Z" fill="white"/>
<path d="M11.9469 8.44451C12.077 8.45181 12.2063 8.42038 12.3185 8.3542C12.4307 8.28803 12.5208 8.19007 12.5773 8.07273C12.6339 7.95538 12.6543 7.8239 12.6362 7.6949C12.618 7.56591 12.562 7.4452 12.4753 7.34802C12.3886 7.25084 12.275 7.18155 12.1488 7.14892C12.0227 7.11629 11.8898 7.12177 11.7668 7.16468C11.6438 7.20759 11.5363 7.286 11.4578 7.39C11.3794 7.49399 11.3335 7.61891 11.3261 7.74896C11.3162 7.92352 11.3761 8.09484 11.4925 8.22527C11.6089 8.35571 11.7724 8.43456 11.9469 8.44451V8.44451Z" fill="white"/>
<path d="M8.37732 15.1699C8.49368 15.1112 8.59003 15.0193 8.65418 14.9059C8.71834 14.7925 8.74741 14.6626 8.73772 14.5326C8.72804 14.4027 8.68004 14.2785 8.59978 14.1758C8.51953 14.0732 8.41063 13.9966 8.28686 13.9558C8.16309 13.9151 8.03 13.9119 7.90444 13.9468C7.77888 13.9817 7.66648 14.053 7.58146 14.1517C7.49644 14.2505 7.44261 14.3722 7.42679 14.5016C7.41097 14.6309 7.43386 14.7621 7.49257 14.8784C7.57128 15.0344 7.70869 15.1527 7.8746 15.2073C8.04052 15.262 8.22134 15.2485 8.37732 15.1699V15.1699Z" fill="white"/>
<path d="M12.3725 9.4058C12.2358 9.61432 12.1726 9.86246 12.1929 10.1109C12.2131 10.3594 12.3157 10.594 12.4843 10.7777C12.6529 10.9613 12.8779 11.0835 13.1238 11.1249C13.3696 11.1662 13.6222 11.1244 13.8416 11.0061C14.061 10.8877 14.2347 10.6995 14.3352 10.4714C14.4356 10.2432 14.4571 9.98803 14.3962 9.74628C14.3353 9.50452 14.1955 9.28998 13.999 9.1366C13.8025 8.98322 13.5604 8.89976 13.3111 8.89944C13.1249 8.89932 12.9416 8.94553 12.7777 9.03393C12.6139 9.12233 12.4746 9.25013 12.3725 9.4058V9.4058Z" fill="white"/>
<path d="M14.3207 14.0916C14.231 13.9136 14.0953 13.7628 13.9278 13.6547C13.7603 13.5466 13.5669 13.4851 13.3678 13.4767C13.1686 13.4682 12.9707 13.5131 12.7947 13.6066C12.6186 13.7001 12.4707 13.8389 12.3661 14.0087C12.2616 14.1785 12.2043 14.3731 12.2 14.5724C12.1958 14.7717 12.2448 14.9686 12.3421 15.1426C12.4393 15.3167 12.5812 15.4616 12.7532 15.5625C12.9251 15.6634 13.1209 15.7166 13.3203 15.7166C13.4956 15.7154 13.6684 15.6735 13.8248 15.5942C14.0894 15.4602 14.2901 15.2269 14.3831 14.9453C14.476 14.6637 14.4536 14.3568 14.3207 14.0916V14.0916Z" fill="white"/>
<path d="M16.2788 14.0132C16.1699 13.9417 16.0422 13.9041 15.9119 13.9052C15.7816 13.9062 15.6545 13.9459 15.5468 14.0192C15.439 14.0924 15.3554 14.196 15.3066 14.3168C15.2577 14.4376 15.2457 14.5702 15.2722 14.6977C15.2986 14.8253 15.3623 14.9422 15.4552 15.0336C15.5481 15.125 15.666 15.1868 15.794 15.2111C15.922 15.2355 16.0543 15.2214 16.1743 15.1706C16.2943 15.1197 16.3965 15.0344 16.468 14.9255C16.5636 14.7794 16.5973 14.6013 16.5619 14.4303C16.5264 14.2593 16.4246 14.1093 16.2788 14.0132V14.0132Z" fill="white"/>
<path d="M18.4243 12.3301C18.4305 12.2196 18.4038 12.1097 18.3477 12.0144C18.2915 11.9191 18.2083 11.8425 18.1086 11.7945C18.0089 11.7464 17.8972 11.729 17.7877 11.7444C17.6781 11.7598 17.5755 11.8073 17.493 11.881C17.4104 11.9546 17.3515 12.0511 17.3238 12.1583C17.296 12.2654 17.3007 12.3783 17.3371 12.4828C17.3735 12.5873 17.4401 12.6787 17.5285 12.7453C17.6168 12.8119 17.7229 12.8509 17.8334 12.8573C17.9817 12.8656 18.1271 12.8148 18.2379 12.7159C18.3487 12.6171 18.4157 12.4783 18.4243 12.3301V12.3301Z" fill="white"/>
<path d="M19.9745 11.9315C19.903 11.9274 19.8318 11.9446 19.77 11.9809C19.7082 12.0173 19.6585 12.0711 19.6274 12.1357C19.5962 12.2002 19.5848 12.2726 19.5947 12.3436C19.6047 12.4146 19.6354 12.481 19.6831 12.5345C19.7308 12.5881 19.7933 12.6262 19.8627 12.6442C19.9321 12.6622 20.0053 12.6593 20.073 12.6357C20.1407 12.6121 20.1999 12.569 20.243 12.5117C20.2862 12.4545 20.3115 12.3858 20.3156 12.3142C20.3209 12.2183 20.2881 12.1241 20.2241 12.0524C20.1602 11.9807 20.0705 11.9372 19.9745 11.9315V11.9315Z" fill="white"/>
<path d="M18.5149 15.5256C18.4386 15.4756 18.3492 15.4494 18.2581 15.4502C18.1669 15.4511 18.078 15.4789 18.0027 15.5302C17.9273 15.5816 17.8689 15.6541 17.8348 15.7386C17.8006 15.8232 17.7923 15.9159 17.8109 16.0052C17.8295 16.0944 17.8741 16.1762 17.9391 16.2401C18.0041 16.304 18.0866 16.3472 18.1762 16.3642C18.2658 16.3812 18.3584 16.3713 18.4423 16.3357C18.5262 16.3001 18.5977 16.2404 18.6477 16.1642C18.681 16.1136 18.7039 16.0569 18.7152 15.9973C18.7265 15.9378 18.726 15.8767 18.7136 15.8174C18.7013 15.7581 18.6774 15.7018 18.6433 15.6517C18.6092 15.6016 18.5656 15.5588 18.5149 15.5256V15.5256Z" fill="white"/>
<path d="M8.22853 18.9097C8.1686 18.8703 8.09835 18.8497 8.02667 18.8503C7.95499 18.8509 7.8851 18.8727 7.82583 18.913C7.76655 18.9533 7.72056 19.0103 7.69367 19.0767C7.66678 19.1432 7.66019 19.2161 7.67475 19.2863C7.6893 19.3565 7.72433 19.4208 7.77542 19.4711C7.82651 19.5213 7.89137 19.5554 7.96178 19.5688C8.03219 19.5822 8.10501 19.5745 8.17101 19.5465C8.23702 19.5185 8.29326 19.4717 8.33262 19.4117C8.35876 19.3719 8.37681 19.3274 8.38573 19.2806C8.39464 19.2338 8.39426 19.1858 8.38459 19.1391C8.37493 19.0925 8.35617 19.0483 8.32939 19.0089C8.30261 18.9695 8.26834 18.9358 8.22853 18.9097V18.9097Z" fill="white"/>
<path d="M15.8257 18.8717C15.7617 18.904 15.7087 18.9545 15.6734 19.0169C15.6381 19.0793 15.6221 19.1508 15.6274 19.2223C15.6327 19.2938 15.6591 19.3621 15.7033 19.4186C15.7474 19.4751 15.8073 19.5172 15.8754 19.5396C15.9435 19.5621 16.0167 19.5638 16.0858 19.5447C16.1549 19.5255 16.2168 19.4862 16.2635 19.4319C16.3103 19.3776 16.34 19.3106 16.3487 19.2394C16.3574 19.1683 16.3448 19.0961 16.3125 19.0321C16.2911 18.9896 16.2616 18.9517 16.2255 18.9206C16.1895 18.8895 16.1476 18.8658 16.1024 18.8509C16.0572 18.836 16.0095 18.8302 15.962 18.8337C15.9145 18.8373 15.8682 18.8502 15.8257 18.8717Z" fill="white"/>
<path d="M11.6157 15.2139C11.7524 15.0054 11.8155 14.7572 11.7953 14.5087C11.775 14.2602 11.6724 14.0256 11.5038 13.8419C11.3351 13.6583 11.1101 13.5361 10.8642 13.4948C10.6183 13.4535 10.3657 13.4954 10.1463 13.6138C9.92685 13.7323 9.75322 13.9205 9.65284 14.1487C9.55247 14.377 9.53108 14.6322 9.59207 14.8739C9.65306 15.1157 9.79294 15.3302 9.98958 15.4835C10.1862 15.6368 10.4284 15.7201 10.6777 15.7203C10.8639 15.7209 11.0473 15.6749 11.2111 15.5865C11.375 15.498 11.5141 15.37 11.6157 15.2139Z" fill="white"/>
<path d="M9.37657 16.9338C9.28397 16.8733 9.17548 16.8415 9.06482 16.8426C8.95417 16.8436 8.84631 16.8775 8.75489 16.9398C8.66347 17.0022 8.59258 17.0902 8.55119 17.1928C8.5098 17.2955 8.49977 17.4081 8.52236 17.5164C8.54495 17.6247 8.59915 17.7239 8.67811 17.8015C8.75707 17.879 8.85724 17.9314 8.96596 17.952C9.07468 17.9726 9.18708 17.9605 9.28893 17.9173C9.39079 17.874 9.47754 17.8015 9.53821 17.709C9.61948 17.5847 9.6481 17.4333 9.61779 17.288C9.58749 17.1426 9.50072 17.0153 9.37657 16.9338V16.9338Z" fill="white"/>
<path d="M11.9892 19.0787C11.8981 19.0735 11.8076 19.0954 11.7291 19.1417C11.6505 19.1879 11.5874 19.2564 11.5478 19.3386C11.5081 19.4207 11.4938 19.5127 11.5064 19.603C11.5191 19.6933 11.5582 19.7778 11.6189 19.8458C11.6796 19.9139 11.7591 19.9624 11.8473 19.9853C11.9356 20.0081 12.0287 20.0043 12.1148 19.9743C12.2009 19.9443 12.2761 19.8894 12.331 19.8167C12.3859 19.7439 12.4181 19.6564 12.4233 19.5654C12.4268 19.505 12.4183 19.4444 12.3983 19.3872C12.3784 19.33 12.3474 19.2773 12.3071 19.2321C12.2668 19.1869 12.2179 19.1501 12.1634 19.1237C12.1088 19.0974 12.0496 19.0821 11.9892 19.0787Z" fill="white"/>
<path d="M11.9941 16.1777C11.8639 16.1698 11.7343 16.2007 11.6217 16.2665C11.5091 16.3323 11.4186 16.43 11.3616 16.5473C11.3046 16.6646 11.2836 16.7962 11.3015 16.9253C11.3193 17.0545 11.3751 17.1755 11.4617 17.273C11.5484 17.3705 11.662 17.44 11.7882 17.4729C11.9144 17.5057 12.0475 17.5003 12.1707 17.4575C12.2939 17.4146 12.4015 17.3361 12.4801 17.232C12.5586 17.1279 12.6045 17.0028 12.6119 16.8726C12.6219 16.6986 12.5625 16.5277 12.4467 16.3974C12.3309 16.2671 12.1681 16.1881 11.9941 16.1777V16.1777Z" fill="white"/>
<path d="M14.6887 16.8891C14.5899 16.9393 14.5081 17.0176 14.4538 17.1143C14.3995 17.211 14.3751 17.3215 14.3837 17.4321C14.3922 17.5426 14.4334 17.6481 14.502 17.7352C14.5706 17.8223 14.6634 17.8871 14.7688 17.9215C14.8743 17.9558 14.9875 17.958 15.0942 17.928C15.2009 17.8979 15.2963 17.8368 15.3683 17.7525C15.4403 17.6682 15.4856 17.5644 15.4986 17.4543C15.5116 17.3443 15.4916 17.2328 15.4412 17.134C15.408 17.0685 15.3621 17.0102 15.3062 16.9624C15.2504 16.9146 15.1857 16.8783 15.1158 16.8555C15.0459 16.8328 14.9722 16.824 14.8989 16.8298C14.8256 16.8356 14.7542 16.8557 14.6887 16.8891V16.8891Z" fill="white"/>
</svg>
