<svg width="24" height="24" viewBox="0 0 24 24" fill="none" xmlns="http://www.w3.org/2000/svg">
<g clip-path="url(#clip0_1343_13399)">
<path d="M12 24C14.3734 24 16.6934 23.2962 18.6668 21.9776C20.6402 20.6591 22.1783 18.7849 23.0865 16.5922C23.9948 14.3995 24.2324 11.9867 23.7694 9.65892C23.3064 7.33115 22.1635 5.19295 20.4853 3.51472C18.807 1.83649 16.6689 0.693605 14.3411 0.230582C12.0133 -0.232441 9.60051 0.00519939 7.40779 0.913451C5.21508 1.8217 3.34094 3.35977 2.02236 5.33316C0.703784 7.30655 -3.20054e-06 9.62663 -3.20054e-06 12C-0.00381336 13.5769 0.303975 15.1391 0.905682 16.5967C1.50739 18.0543 2.39116 19.3787 3.50622 20.4938C4.62128 21.6088 5.94566 22.4926 7.40329 23.0943C8.86092 23.696 10.4231 24.0038 12 24V24Z" fill="#2775CA"/>
<path d="M15.3 13.9001C15.3 12.1501 14.2501 11.5501 12.1501 11.3C10.6502 11.1002 10.3505 10.7 10.3505 9.99999C10.3505 9.30001 10.8506 8.85009 11.8503 8.85009C12.7502 8.85009 13.2508 9.14988 13.5004 9.90006C13.5265 9.97238 13.574 10.035 13.6366 10.0797C13.6992 10.1244 13.7739 10.1489 13.8508 10.1501H14.6507C14.697 10.1512 14.743 10.1429 14.786 10.1257C14.8289 10.1085 14.8679 10.0828 14.9007 10.0501C14.9334 10.0173 14.9591 9.97832 14.9763 9.93536C14.9935 9.89239 15.0018 9.84639 15.0007 9.80013V9.74993C14.9039 9.2081 14.6308 8.71341 14.224 8.34275C13.8171 7.97209 13.2991 7.7462 12.7507 7.7002V6.5001C12.7507 6.30025 12.6005 6.15012 12.3505 6.09991H11.6003C11.4 6.09991 11.2503 6.25004 11.2001 6.5001V7.65C9.70021 7.84986 8.75018 8.85009 8.75018 10.0999C8.75018 11.7499 9.74994 12.4002 11.8499 12.6502C13.2503 12.8998 13.7002 13.2001 13.7002 14C13.7002 14.7999 13.0002 15.3502 12.0502 15.3502C10.7502 15.3502 10.2979 14.7999 10.1501 14.0502C10.0999 13.8503 9.95027 13.7499 9.80014 13.7499H8.95098C8.90472 13.7488 8.85872 13.7571 8.81576 13.7743C8.77279 13.7915 8.73377 13.8173 8.70105 13.85C8.66833 13.8827 8.64259 13.9217 8.62539 13.9647C8.60819 14.0076 8.59989 14.0537 8.601 14.0999V14.1501C8.80085 15.3999 9.60123 16.3002 11.2531 16.5503V17.7499C11.2531 17.9503 11.4028 18.0999 11.6529 18.1501H12.403C12.6029 18.1501 12.753 18 12.8027 17.7499V16.5503C14.3031 16.3002 15.3029 15.2498 15.3029 13.8982L15.3 13.9001Z" fill="white"/>
<path d="M9.45015 19.1499C5.55008 17.7499 3.55008 13.3999 4.99834 9.55008C5.74804 7.45015 7.39805 5.84987 9.45015 5.09827C9.65001 4.99834 9.74994 4.84821 9.74994 4.59815V3.90007C9.74994 3.70021 9.65001 3.55008 9.45015 3.49988C9.39995 3.49988 9.30002 3.49988 9.24982 3.55008C4.49917 5.04996 1.90007 10.0999 3.39995 14.8501C3.83569 16.2222 4.59441 17.4696 5.61237 18.4876C6.63032 19.5055 7.87775 20.2642 9.24982 20.7C9.45015 20.7999 9.65001 20.7 9.70021 20.5001C9.74994 20.4499 9.74994 20.4002 9.74994 20.3003V19.6003C9.74994 19.4501 9.60028 19.2503 9.45015 19.1499ZM14.7502 3.55197C14.5498 3.45204 14.35 3.55197 14.3003 3.75183C14.2501 3.80203 14.2501 3.85176 14.2501 3.95216V4.65024C14.2501 4.8501 14.4002 5.04996 14.5498 5.14989C18.4499 6.54984 20.4499 10.8998 19.0017 14.7502C18.2515 16.8501 16.6015 18.4499 14.5498 19.202C14.35 19.3019 14.2501 19.452 14.2501 19.7021V20.4021C14.2501 20.6019 14.35 20.7521 14.5498 20.8018C14.6 20.8018 14.7 20.8018 14.7502 20.7521C19.4999 19.2503 22.0999 14.1999 20.6015 9.45015C20.1667 8.07189 19.4089 6.81749 18.3911 5.79152C17.3732 4.76554 16.1249 3.99769 14.7502 3.55197Z" fill="white"/>
</g>
<defs>
<clipPath id="clip0_1343_13399">
<rect width="24" height="24" fill="white"/>
</clipPath>
</defs>
</svg>
