<svg width="24" height="24" viewBox="0 0 24 24" fill="none" xmlns="http://www.w3.org/2000/svg">
<path d="M12 24C18.6274 24 24 18.6274 24 12C24 5.37258 18.6274 0 12 0C5.37258 0 0 5.37258 0 12C0 18.6274 5.37258 24 12 24Z" fill="#F7931A"/>
<path fill-rule="evenodd" clip-rule="evenodd" d="M16.19 12.4459C17.1306 12.2361 17.8099 11.6066 17.9667 10.4C18.228 8.72131 16.9216 7.82951 15.0926 7.25246L15.6674 4.99672L14.3088 4.62951L13.7862 6.83279C13.6033 6.78033 13.4204 6.74098 13.2375 6.70164C13.0546 6.66229 12.8717 6.62295 12.6888 6.57049L13.2636 4.36721L11.905 4L11.3301 6.25574C11.1497 6.22554 10.9692 6.17797 10.7987 6.13303C10.673 6.09988 10.5527 6.06817 10.4418 6.0459L8.56056 5.57377L8.19477 7.04262L9.18764 7.30492C9.7102 7.40984 9.81471 7.77705 9.81471 8.0918L9.18764 10.6623L8.29928 14.282C8.24702 14.4393 8.038 14.7016 7.6722 14.5967L6.67933 14.3344L6 15.9082L7.77672 16.3803C7.93483 16.4257 8.08317 16.4612 8.22598 16.4954C8.41356 16.5404 8.59157 16.5831 8.76959 16.6426L8.19477 18.9508L9.55343 19.318L10.1283 17.0623C10.494 17.1148 10.8598 17.2197 11.2256 17.3246L10.6508 19.5803L12.0095 20L12.5843 17.6918C14.9358 18.1115 16.7126 17.9541 17.4441 15.8033C18.0712 14.0721 17.4441 13.0754 16.19 12.4459ZM12.3754 8.19666L11.696 10.977C11.7476 10.9908 11.8061 11.0071 11.8706 11.025L11.8706 11.025C12.7872 11.2801 14.9077 11.8702 15.2495 10.3999C15.5753 8.95119 13.6617 8.50165 12.6859 8.27242C12.5664 8.24434 12.4609 8.21956 12.3754 8.19666ZM11.3302 12.341L10.5986 15.3837C10.6999 15.4063 10.8235 15.4373 10.9641 15.4727C12.1295 15.7658 14.4583 16.3514 14.8314 14.8066C15.1954 13.2537 12.9844 12.7347 11.7856 12.4533L11.7856 12.4533C11.6076 12.4115 11.4519 12.375 11.3302 12.341Z" fill="white"/>
</svg>
