<svg width="24" height="24" viewBox="0 0 24 24" fill="none" xmlns="http://www.w3.org/2000/svg">
<g clip-path="url(#clip0_1343_13394)">
<path d="M12 24C18.6274 24 24 18.6274 24 12C24 5.37258 18.6274 0 12 0C5.37258 0 0 5.37258 0 12C0 18.6274 5.37258 24 12 24Z" fill="#4DB6AC"/>
<path d="M18.5 11.5385C18.5 10.8757 16.3127 10.3223 13.3929 10.1866V8.76923H17.1071V6H6.89286V8.76923H10.6071V10.1866C7.68725 10.3223 5.5 10.8757 5.5 11.5385C5.5 12.2012 7.68725 12.7546 10.6071 12.8903V18H13.3929V12.8903C16.3127 12.7546 18.5 12.2012 18.5 11.5385ZM12 12.4615C8.92318 12.4615 6.42857 11.9968 6.42857 11.4231C6.42857 10.9394 8.20539 10.5342 10.6071 10.4188V11.9631C11.0529 11.9908 11.5171 12 12 12C12.4829 12 12.9471 11.9908 13.3929 11.9631V10.4188C15.7946 10.5342 17.5714 10.9394 17.5714 11.4231C17.5714 11.9968 15.0768 12.4615 12 12.4615Z" fill="white"/>
</g>
<defs>
<clipPath id="clip0_1343_13394">
<rect width="24" height="24" fill="white"/>
</clipPath>
</defs>
</svg>
