<svg width="80" height="80" viewBox="0 0 80 80" fill="none" xmlns="http://www.w3.org/2000/svg">
<path d="M37.4327 69.3889C57.1384 69.3889 73.1124 48.6686 73.1124 23.1078V11.076H42.5671C22.8614 11.076 6.89288 31.7852 6.89288 57.3515V69.3889H37.4327Z" fill="#FFDF77"/>
<path d="M72.8518 11.076L6.89288 69.034V57.3515C6.89288 31.7852 22.867 11.076 42.5671 11.076H72.8518Z" fill="#FFE799"/>
<path d="M29.2504 43.4871H32.6064C32.8983 43.4923 33.1884 43.4399 33.4596 43.3331C33.7309 43.2263 33.9778 43.0672 34.1861 42.8651C34.3944 42.663 34.5598 42.422 34.6728 42.1561C34.7857 41.8901 34.8438 41.6047 34.8438 41.3163V13.5045C34.8438 13.2161 34.7857 12.9307 34.6728 12.6647C34.5598 12.3988 34.3944 12.1578 34.1861 11.9557C33.9778 11.7536 33.7309 11.5945 33.4596 11.4877C33.1884 11.3809 32.8983 11.3286 32.6064 11.3337H29.2504C28.6683 11.3352 28.1106 11.5645 27.6996 11.9715C27.2886 12.3784 27.0577 12.9297 27.0577 13.5045V41.3163C27.0577 41.8911 27.2886 42.4424 27.6996 42.8494C28.1106 43.2563 28.6683 43.4857 29.2504 43.4871Z" fill="#C4E1D9"/>
<path d="M29.2504 11.3337H31.5325C30.9495 11.3337 30.3903 11.5624 29.9781 11.9695C29.5658 12.3766 29.3343 12.9288 29.3343 13.5045V41.3163C29.3343 41.892 29.5658 42.4442 29.9781 42.8513C30.3903 43.2584 30.9495 43.4871 31.5325 43.4871H29.2504C28.6683 43.4856 28.1106 43.2563 27.6996 42.8493C27.2886 42.4424 27.0577 41.8911 27.0577 41.3163V13.5045C27.0577 12.9297 27.2886 12.3784 27.6996 11.9714C28.1106 11.5645 28.6683 11.3351 29.2504 11.3337Z" fill="#6CB49F"/>
<path d="M32.6064 65.14H29.2504C28.6683 65.1385 28.1106 64.9092 27.6996 64.5022C27.2886 64.0953 27.0577 63.544 27.0577 62.9692V35.7374H34.8438V62.9692C34.8438 63.2575 34.7857 63.543 34.6728 63.8089C34.5598 64.0749 34.3944 64.3159 34.1861 64.518C33.9778 64.7201 33.7309 64.8792 33.4596 64.986C33.1884 65.0928 32.8983 65.1451 32.6064 65.14Z" fill="#4FA58C"/>
<path d="M29.3566 35.7374V62.9692C29.3566 63.5449 29.5882 64.0971 30.0005 64.5042C30.4127 64.9113 30.9718 65.14 31.5548 65.14H29.2504C28.9619 65.14 28.6764 65.0838 28.41 64.9746C28.1436 64.8655 27.9016 64.7055 27.698 64.5038C27.4943 64.3022 27.3329 64.0628 27.223 63.7995C27.1132 63.5362 27.057 63.254 27.0577 62.9692V35.7374H29.3566Z" fill="#428975"/>
<path d="M24.9603 34.9088L20.8604 32.3237C20.71 32.23 20.5369 32.1778 20.3591 32.1724C20.1814 32.1671 20.0054 32.2089 19.8496 32.2935C19.6937 32.3781 19.5636 32.5023 19.4728 32.6534C19.3821 32.8044 19.3339 32.9767 19.3334 33.1523V38.3004C19.3319 38.4769 19.3786 38.6506 19.4686 38.8032C19.5585 38.9558 19.6884 39.0817 19.8446 39.1676C20.0009 39.2535 20.1776 39.2962 20.3563 39.2914C20.5351 39.2865 20.7092 39.2342 20.8604 39.14L24.9715 36.5659C25.1131 36.4771 25.2295 36.3541 25.3097 36.2087C25.39 36.0632 25.4315 35.9 25.4304 35.7343C25.4293 35.5687 25.3856 35.406 25.3033 35.2616C25.2211 35.1172 25.1031 34.9958 24.9603 34.9088Z" fill="#492B7C"/>
<path d="M57.7769 60.5719V64.7147C57.7769 65.035 53.8951 65.3002 49.0847 65.3002C44.2744 65.3002 40.3982 65.035 40.3982 64.7147V60.5719C40.3982 60.246 44.3136 59.9864 49.0847 59.9864C53.8559 59.9864 57.7769 60.246 57.7769 60.5719Z" fill="#F2A900"/>
<path d="M43.5249 64.7147V60.5719C43.5249 60.2847 46.6013 60.0195 50.6509 60.0195H49.0847C44.2912 60.0195 40.3982 60.2791 40.3982 60.605V64.7478C40.3982 65.0682 44.3136 65.3333 49.0847 65.3333H50.6509C46.5901 65.2394 43.5249 65.0019 43.5249 64.7147Z" fill="#CA8D00"/>
<path d="M57.7769 52.325V56.4678C57.7769 56.7937 53.8951 57.0533 49.0847 57.0533C44.2744 57.0533 40.3982 56.7937 40.3982 56.4678V52.325C40.3982 52.0047 44.3136 51.7727 49.0847 51.7727C53.8559 51.7727 57.7769 52.0047 57.7769 52.325Z" fill="#F2A900"/>
<path d="M43.5249 56.4678V52.325C43.5249 52.0378 46.6013 51.8058 50.6509 51.7727C50.1419 51.7727 49.6217 51.7727 49.0847 51.7727C44.2912 51.7727 40.3982 52.0323 40.3982 52.325V56.4678C40.3982 56.7937 44.3136 57.0533 49.0847 57.0533H50.6509C46.5901 56.9926 43.5249 56.7551 43.5249 56.4678Z" fill="#CA8D00"/>
<path d="M57.7769 44.0837V48.2265C57.7769 48.5468 53.8951 48.7788 49.0847 48.7788C44.2744 48.7788 40.3982 48.5192 40.3982 48.2265V44.0837C40.3982 43.7578 44.3136 43.4982 49.0847 43.4982C53.8559 43.4982 57.7769 43.7578 57.7769 44.0837Z" fill="#F2A900"/>
<path d="M43.5249 48.2265V44.0837C43.5249 43.7964 46.6013 43.5589 50.6509 43.5313H49.0847C44.2912 43.5313 40.3982 43.7909 40.3982 44.1168V48.2596C40.3982 48.58 44.3136 48.812 49.0847 48.812H50.6509C46.5901 48.7512 43.5249 48.5082 43.5249 48.2265Z" fill="#CA8D00"/>
<path d="M57.7768 35.8368V39.9796C57.7768 40.2999 53.895 40.5651 49.0847 40.5651C44.2744 40.5651 40.3981 40.2999 40.3981 39.9796V35.8368C40.3981 35.5109 44.3135 35.2844 49.0847 35.2844C53.8559 35.2844 57.7768 35.5109 57.7768 35.8368Z" fill="#F2A900"/>
<path d="M43.5249 39.9796V35.8368C43.5249 35.5496 46.6013 35.2844 50.6509 35.2844H49.0847C44.2912 35.2844 40.3982 35.5385 40.3982 35.8368V39.9796C40.3982 40.2999 44.3136 40.5651 49.0847 40.5651H50.6509C46.5901 40.5043 43.5249 40.2668 43.5249 39.9796Z" fill="#CA8D00"/>
</svg>
