<svg width="80" height="80" viewBox="0 0 80 80" fill="none" xmlns="http://www.w3.org/2000/svg">
<path d="M37.4331 69.3889C57.1387 69.3889 73.1128 48.6686 73.1128 23.1078V11.076H42.5674C22.8618 11.076 6.89325 31.7852 6.89325 57.3515V69.3889H37.4331Z" fill="#FFDF77"/>
<path d="M72.8522 11.076L6.89325 69.034V57.3515C6.89325 31.7852 22.8673 11.076 42.5674 11.076H72.8522Z" fill="#FFE799"/>
<path d="M39.4705 30.09L36.7267 31.6242C36.5101 31.7473 36.2633 31.8065 36.0146 31.7949C35.766 31.7833 35.5257 31.7014 35.3215 31.5586C35.1173 31.4159 34.9576 31.2181 34.8608 30.9882C34.7639 30.7582 34.734 30.5055 34.7743 30.2593L35.302 26.8309C35.335 26.626 35.3192 26.4161 35.2559 26.2184C35.1926 26.0207 35.0837 25.8409 34.9379 25.6934L32.5212 23.2333C32.35 23.0599 32.23 22.8423 32.1745 22.6048C32.1189 22.3672 32.13 22.1189 32.2065 21.8873C32.2829 21.6557 32.4218 21.4497 32.6077 21.2923C32.7936 21.1349 33.0194 21.0321 33.2599 20.9953L36.4786 20.4927C36.6928 20.4589 36.8954 20.3726 37.0684 20.2416C37.2415 20.1106 37.3796 19.9388 37.4707 19.7414L38.8531 16.7628C38.9593 16.5348 39.1282 16.342 39.3399 16.2069C39.5516 16.0718 39.7973 16 40.0483 16C40.2992 16 40.545 16.0718 40.7566 16.2069C40.9683 16.342 41.1372 16.5348 41.2434 16.7628L42.647 19.7309C42.7403 19.9266 42.8799 20.0965 43.0538 20.2256C43.2276 20.3547 43.4304 20.4392 43.6443 20.4716L46.863 20.953C47.1038 20.9881 47.3303 21.0892 47.5173 21.2453C47.7044 21.4014 47.8447 21.6064 47.9228 21.8374C48.0009 22.0685 48.0137 22.3168 47.9598 22.5547C47.906 22.7927 47.7875 23.011 47.6176 23.1857L45.2167 25.667C45.0714 25.8144 44.9634 25.9947 44.9019 26.1926C44.8404 26.3905 44.8271 26.6003 44.8632 26.8045L45.4331 30.2275C45.4726 30.4723 45.443 30.7233 45.3476 30.9521C45.2522 31.1809 45.0948 31.3783 44.8932 31.522C44.6917 31.6657 44.454 31.75 44.2072 31.7652C43.9603 31.7805 43.7142 31.7262 43.4965 31.6084L40.7316 30.09C40.5384 29.9834 40.3215 29.9276 40.101 29.9276C39.8806 29.9276 39.6637 29.9834 39.4705 30.09Z" fill="#FBC52F"/>
<path d="M38.3095 30.7407L36.7265 31.6242C36.5102 31.7443 36.2646 31.801 36.0177 31.7879C35.7709 31.7748 35.5326 31.6925 35.3302 31.5501C35.1277 31.4078 34.9693 31.2114 34.8728 30.9831C34.7764 30.7549 34.7458 30.5041 34.7847 30.2593L35.3124 26.8309C35.3454 26.626 35.3296 26.4161 35.2663 26.2184C35.203 26.0207 35.0941 25.8408 34.9483 25.6934L32.5052 23.2333C32.3359 23.0591 32.2176 22.8416 32.1631 22.6046C32.1087 22.3676 32.1202 22.1201 32.1964 21.8893C32.2726 21.6584 32.4106 21.4529 32.5953 21.2952C32.7801 21.1376 33.0044 21.0339 33.2439 20.9953L36.4627 20.4927C36.6769 20.4589 36.8794 20.3726 37.0525 20.2416C37.2255 20.1106 37.3636 19.9388 37.4547 19.7414L38.8371 16.7628C39.2856 15.8052 35.7609 23.0005 38.8371 29.016C38.9871 29.3163 39.016 29.6631 38.9178 29.9843C38.8195 30.3054 38.6017 30.5763 38.3095 30.7407Z" fill="#D4AC2B"/>
<path d="M51.3802 33.0738L49.3909 34.1954C49.2332 34.2846 49.0536 34.3272 48.8728 34.3185C48.692 34.3097 48.5174 34.2499 48.369 34.146C48.2207 34.042 48.1046 33.8981 48.0343 33.7309C47.9639 33.5636 47.9422 33.3799 47.9715 33.2008L48.3356 30.6824C48.3616 30.5329 48.3512 30.3793 48.3053 30.2347C48.2593 30.09 48.1792 29.9587 48.0717 29.8518L46.3094 28.0477C46.1848 27.9221 46.0972 27.7646 46.0562 27.5923C46.0152 27.4201 46.0224 27.2398 46.0769 27.0714C46.1314 26.9029 46.2313 26.7529 46.3654 26.6376C46.4995 26.5224 46.6627 26.4464 46.837 26.4182L49.1851 26.0478C49.34 26.0251 49.4872 25.965 49.614 25.8729C49.7408 25.7808 49.8434 25.6593 49.9133 25.5188L50.9211 23.339C50.9992 23.173 51.1228 23.0327 51.2774 22.9344C51.432 22.8362 51.6113 22.784 51.7944 22.784C51.9774 22.784 52.1567 22.8362 52.3114 22.9344C52.466 23.0327 52.5895 23.173 52.6677 23.339L53.6913 25.5082C53.762 25.6491 53.8656 25.7708 53.9933 25.8629C54.121 25.955 54.269 26.0148 54.4248 26.0372L56.7781 26.397C56.9514 26.427 57.1133 26.5039 57.2462 26.6193C57.3791 26.7348 57.4781 26.8844 57.5324 27.0521C57.5867 27.2198 57.5943 27.3992 57.5544 27.571C57.5144 27.7427 57.4285 27.9002 57.3058 28.0265L55.5487 29.8412C55.4489 29.9544 55.3768 30.0894 55.3383 30.2355C55.2998 30.3815 55.296 30.5346 55.3271 30.6824L55.7228 33.1743C55.7516 33.353 55.7299 33.5362 55.6601 33.7031C55.5903 33.87 55.4753 34.0139 55.328 34.1186C55.1808 34.2233 55.0072 34.2845 54.8271 34.2952C54.6469 34.306 54.4673 34.2659 54.3087 34.1796L52.2877 33.0738C52.1483 32.9983 51.9924 32.9588 51.834 32.9588C51.6755 32.9588 51.5196 32.9983 51.3802 33.0738Z" fill="#FBC52F"/>
<path d="M50.2089 33.7247L49.3594 34.1955C49.2017 34.2847 49.0221 34.3273 48.8413 34.3186C48.6605 34.3098 48.4859 34.25 48.3375 34.1461C48.1891 34.0421 48.0731 33.8982 48.0028 33.731C47.9324 33.5637 47.9107 33.38 47.94 33.2009L48.3357 30.6825C48.3604 30.533 48.3494 30.3798 48.3035 30.2354C48.2577 30.091 48.1783 29.9596 48.0719 29.8519L46.3042 28.0478C46.1797 27.9222 46.0921 27.7647 46.0511 27.5924C46.0101 27.4202 46.0172 27.2399 46.0718 27.0715C46.1263 26.903 46.2261 26.753 46.3602 26.6377C46.4943 26.5225 46.6575 26.4465 46.8319 26.4183L49.1853 26.0479C49.3398 26.0261 49.4867 25.9664 49.6128 25.8741C49.7388 25.7818 49.8403 25.6598 49.9082 25.5189L50.9213 23.3391C51.2379 22.6566 48.8106 27.6669 50.763 31.9999C50.9043 32.3045 50.9258 32.6514 50.8231 32.9712C50.7204 33.2909 50.501 33.5601 50.2089 33.7247Z" fill="#D4AC2B"/>
<path d="M27.8093 33.0738L25.7989 34.1955C25.6409 34.2839 25.4612 34.326 25.2804 34.317C25.0997 34.308 24.9251 34.2483 24.7765 34.1446C24.628 34.0409 24.5115 33.8974 24.4404 33.7306C24.3692 33.5637 24.3463 33.3801 24.3742 33.2008L24.7752 30.6825C24.7987 30.533 24.787 30.3801 24.7412 30.2359C24.6954 30.0917 24.6167 29.9602 24.5114 29.8518L22.7437 28.0636C22.6192 27.938 22.5316 27.7805 22.4906 27.6082C22.4496 27.436 22.4568 27.2557 22.5113 27.0873C22.5658 26.9189 22.6656 26.7688 22.7997 26.6535C22.9338 26.5383 23.097 26.4623 23.2714 26.4341L25.6195 26.0637C25.7747 26.0418 25.9222 25.9822 26.0492 25.8899C26.1761 25.7977 26.2786 25.6757 26.3477 25.5347L27.3608 23.3549C27.438 23.1886 27.5609 23.0479 27.7151 22.9493C27.8694 22.8507 28.0485 22.7984 28.2314 22.7984C28.4143 22.7984 28.5934 22.8507 28.7477 22.9493C28.9019 23.0479 29.0249 23.1886 29.1021 23.3549L30.1574 25.5241C30.2272 25.6646 30.3299 25.7861 30.4567 25.8782C30.5835 25.9704 30.7306 26.0304 30.8855 26.0532L33.2389 26.4023C33.4122 26.4323 33.5741 26.5092 33.707 26.6246C33.8399 26.7401 33.9389 26.8897 33.9932 27.0574C34.0475 27.2252 34.0551 27.4046 34.0151 27.5763C33.9752 27.748 33.8893 27.9055 33.7666 28.0319L32.0147 29.8466C31.9091 29.9547 31.8301 30.0862 31.7843 30.2304C31.7385 30.3747 31.7271 30.5277 31.7509 30.6772L32.1678 33.1797C32.1966 33.3583 32.1748 33.5415 32.105 33.7084C32.0353 33.8753 31.9202 34.0193 31.773 34.1239C31.6257 34.2286 31.4522 34.2898 31.272 34.3006C31.0918 34.3113 30.9122 34.2713 30.7536 34.1849L28.738 33.0791C28.5961 33.0001 28.4366 32.9581 28.2743 32.9572C28.112 32.9563 27.952 32.9964 27.8093 33.0738Z" fill="#FBC52F"/>
<path d="M26.6531 33.714L25.7878 34.1954C25.6301 34.2846 25.4505 34.3273 25.2697 34.3185C25.0889 34.3098 24.9143 34.2499 24.7659 34.146C24.6175 34.042 24.5015 33.8981 24.4311 33.7309C24.3608 33.5637 24.339 33.3799 24.3684 33.2008L24.7641 30.6825C24.7901 30.5329 24.7797 30.3793 24.7338 30.2347C24.6879 30.0901 24.6078 29.9587 24.5003 29.8518L22.7379 28.0477C22.6133 27.9221 22.5258 27.7646 22.4847 27.5923C22.4437 27.4201 22.4509 27.2398 22.5054 27.0714C22.56 26.903 22.6598 26.7529 22.7939 26.6376C22.928 26.5224 23.0912 26.4465 23.2655 26.4182L25.6136 26.0478C25.7686 26.0251 25.9157 25.9651 26.0425 25.8729C26.1693 25.7808 26.272 25.6593 26.3418 25.5188L27.3496 23.339C27.6715 22.6565 25.2126 27.6774 27.1966 32.0104C27.3377 32.3106 27.3601 32.6533 27.2592 32.9694C27.1584 33.2856 26.9418 33.5516 26.6531 33.714Z" fill="#D4AC2B"/>
<path d="M34.0457 55.8819C34.3072 55.882 34.5655 55.8241 34.8021 55.7124C35.0387 55.6006 35.2476 55.4378 35.4141 55.2355C35.5805 55.0333 35.7002 54.7966 35.7647 54.5425C35.8292 54.2883 35.8368 54.0231 35.787 53.7657C35.1643 50.5913 33.1803 48.3057 30.8322 48.3004H25.6717C23.3236 48.3004 21.3449 50.6071 20.717 53.7604C20.6681 54.0177 20.6764 54.2826 20.7413 54.5363C20.8061 54.79 20.9259 55.0263 21.0922 55.2283C21.2584 55.4304 21.467 55.5932 21.7031 55.7052C21.9392 55.8173 22.197 55.8758 22.4582 55.8766L34.0457 55.8819Z" fill="#4FA58C"/>
<path d="M31.6928 48.4273C31.4125 48.3486 31.1237 48.3042 30.8327 48.2951H25.6722C23.303 48.2951 21.3032 50.6494 20.6964 53.8556C20.65 54.1015 20.658 54.3546 20.72 54.597C20.7819 54.8394 20.8962 55.0653 21.0547 55.2585C21.2132 55.4518 21.4122 55.6078 21.6375 55.7155C21.8628 55.8232 22.1089 55.88 22.3585 55.8819H25.8147C26.2266 55.8801 26.6238 55.7284 26.9325 55.4549C27.2411 55.1814 27.4402 54.8048 27.4926 54.3952C27.9095 51.316 29.5874 48.9458 31.6928 48.4273Z" fill="#428A75"/>
<path d="M29.0121 45.745C28.1968 45.9081 27.3508 45.8038 26.5992 45.4475C25.8476 45.0912 25.2303 44.5019 24.8385 43.7667C24.4467 43.0315 24.3013 42.1894 24.4237 41.3649C24.5461 40.5404 24.9299 39.7773 25.5182 39.1884C26.1066 38.5995 26.8684 38.216 27.6909 38.0947C28.5134 37.9734 29.353 38.1207 30.0856 38.5148C30.8182 38.9089 31.4048 39.5289 31.7588 40.2831C32.1129 41.0373 32.2154 41.8857 32.0514 42.7029C31.9006 43.4541 31.5316 44.1437 30.9908 44.685C30.4499 45.2264 29.7615 45.5952 29.0121 45.745Z" fill="#4FA58C"/>
<path d="M57.6113 56.2258C57.8729 56.2258 58.1314 56.1678 58.3681 56.0561C58.6049 55.9444 58.8141 55.7817 58.981 55.5795C59.1478 55.3774 59.268 55.1409 59.3332 54.8868C59.3983 54.6327 59.4068 54.3673 59.3578 54.1095C58.7299 50.9457 56.7776 48.639 54.4031 48.639H49.2426C46.8945 48.639 44.9105 50.9457 44.2826 54.099C44.2337 54.3567 44.2421 54.6221 44.3072 54.8762C44.3724 55.1303 44.4926 55.3668 44.6595 55.5689C44.8263 55.7711 45.0355 55.9338 45.2723 56.0455C45.509 56.1572 45.7675 56.2152 46.0291 56.2152L57.6113 56.2258Z" fill="#4FA58C"/>
<path d="M55.2632 48.766C54.9826 48.6894 54.6939 48.6467 54.4031 48.639H49.2426C46.8681 48.639 44.8683 50.9933 44.2668 54.1995C44.2194 54.4448 44.2266 54.6976 44.2879 54.9398C44.3492 55.182 44.463 55.4076 44.6212 55.6006C44.7795 55.7937 44.9782 55.9493 45.2034 56.0564C45.4285 56.1636 45.6744 56.2196 45.9236 56.2205H49.3904C49.8013 56.2175 50.1973 56.0651 50.5048 55.7918C50.8124 55.5184 51.0107 55.1426 51.063 54.7338C51.501 51.6758 53.1526 49.2898 55.2632 48.766Z" fill="#428A75"/>
<path d="M52.5824 46.0889C51.7673 46.2521 50.9215 46.1481 50.1699 45.7923C49.4183 45.4364 48.8009 44.8476 48.4088 44.1128C48.0166 43.3779 47.8707 42.5361 47.9925 41.7117C48.1143 40.8874 48.4973 40.1241 49.0851 39.5348C49.6728 38.9455 50.434 38.5615 51.2562 38.4394C52.0784 38.3172 52.918 38.4636 53.6508 38.8567C54.3837 39.2499 54.971 39.869 55.3259 40.6226C55.6808 41.3762 55.7845 42.2242 55.6217 43.0415C55.4712 43.7933 55.1024 44.4837 54.5616 45.026C54.0208 45.5682 53.3322 45.938 52.5824 46.0889Z" fill="#4FA58C"/>
<path d="M26.7276 60.7016C26.7276 59.4846 26.9668 58.2796 27.4314 57.1553C27.8961 56.031 28.5771 55.0095 29.4356 54.1492C30.2941 53.2889 31.3133 52.6066 32.4349 52.1414C33.5564 51.6761 34.7585 51.437 35.9722 51.4377H44.1826C45.3962 51.4377 46.5978 51.6775 47.7188 52.1435C48.8398 52.6094 49.8582 53.2924 50.7158 54.1532C51.5734 55.0141 52.2534 56.036 52.7168 57.1606C53.1803 58.2851 53.4181 59.4902 53.4167 60.7069C53.4167 60.9791 53.3088 61.2402 53.1169 61.4327C52.9249 61.6252 52.6645 61.7333 52.393 61.7333H27.7513C27.6164 61.7333 27.4829 61.7066 27.3583 61.6547C27.2338 61.6028 27.1207 61.5267 27.0256 61.4308C26.9304 61.335 26.8551 61.2212 26.804 61.096C26.7529 60.9709 26.7269 60.8369 26.7276 60.7016Z" fill="#492B7C"/>
<path d="M43.1537 51.4431H35.9722C34.7589 51.4424 33.5573 51.6813 32.4361 52.1462C31.3148 52.6111 30.2959 53.2929 29.4375 54.1527C28.579 55.0124 27.8979 56.0333 27.4329 57.157C26.968 58.2807 26.7283 59.4852 26.7276 60.7017C26.7276 60.837 26.7542 60.9709 26.806 61.0957C26.8578 61.2206 26.9337 61.334 27.0293 61.4294C27.1249 61.5247 27.2384 61.6002 27.3632 61.6515C27.488 61.7028 27.6217 61.7288 27.7565 61.7281H33.9143C34.0515 61.7282 34.1872 61.7006 34.3135 61.6471C34.4398 61.5935 34.5541 61.5151 34.6496 61.4164C34.7451 61.3177 34.8198 61.2007 34.8694 61.0725C34.9189 60.9443 34.9422 60.8074 34.938 60.67V59.6753C34.9394 57.4915 35.8056 55.3976 37.3462 53.8539C38.8868 52.3102 40.9757 51.4431 43.1537 51.4431Z" fill="#3D2467"/>
<path d="M40.9484 47.6655C39.5961 47.8474 38.221 47.5998 37.0163 46.9576C35.8116 46.3154 34.8379 45.3108 34.2321 44.085C33.6263 42.8592 33.4188 41.4739 33.6388 40.1238C33.8588 38.7737 34.4952 37.5266 35.4586 36.5579C36.422 35.5892 37.664 34.9476 39.0099 34.7232C40.3558 34.4988 41.738 34.7029 42.9622 35.3069C44.1864 35.9109 45.1911 36.8843 45.835 38.0904C46.479 39.2965 46.7297 40.6746 46.5522 42.0309C46.3637 43.4564 45.7131 44.7801 44.7005 45.7983C43.6879 46.8165 42.3695 47.4725 40.9484 47.6655Z" fill="#492B7C"/>
</svg>
