<svg width="80" height="80" viewBox="0 0 80 80" fill="none" xmlns="http://www.w3.org/2000/svg">
<path d="M37.4331 68.9796C57.1387 68.9796 73.1128 48.2593 73.1128 22.6985V10.6667H42.5674C22.8618 10.6667 6.89323 31.3759 6.89323 56.9422V68.9796H37.4331Z" fill="#FFDF77"/>
<path d="M72.8522 10.6667L6.89323 68.6247V56.9422C6.89323 31.3759 22.8673 10.6667 42.5674 10.6667H72.8522Z" fill="#FFE799"/>
<path d="M62.0923 32.3367C62.8607 32.0206 63.2565 31.2123 62.9764 30.5313C62.6963 29.8503 61.8463 29.5544 61.0779 29.8705L58.3116 31.0083C57.5432 31.3243 57.1474 32.1326 57.4275 32.8136C57.7076 33.4947 58.5576 33.7905 59.326 33.4745L62.0923 32.3367Z" fill="#F2A900"/>
<path d="M56.7062 41.5756C57.0223 42.344 57.8306 42.7398 58.5116 42.4597C59.1926 42.1796 59.4885 41.3296 59.1724 40.5612L58.0346 37.7949C57.7185 37.0265 56.9103 36.6306 56.2292 36.9107C55.5482 37.1909 55.2523 38.0409 55.5684 38.8093L56.7062 41.5756Z" fill="#F2A900"/>
<path d="M53.2163 26.0804C52.9003 25.312 52.092 24.9162 51.4109 25.1963C50.7299 25.4764 50.4341 26.3264 50.7501 27.0948L51.8879 29.8611C52.204 30.6295 53.0123 31.0253 53.6933 30.7452C54.3743 30.4651 54.6702 29.6151 54.3541 28.8467L53.2163 26.0804Z" fill="#F2A900"/>
<path d="M47.525 36.2646H44.4069V29.4979C44.1826 25.1025 41.2231 22.2403 36.7811 22.2403C32.3391 22.2403 29.3358 25.1025 29.1553 29.4979V36.2646H26.0372V29.4979C26.0372 23.5253 30.8566 18.6667 36.7811 18.6667C42.7056 18.6667 47.525 23.5253 47.525 29.4979V36.2646Z" fill="#428575"/>
<path d="M48.5644 35.272H25.0087C23.3471 35.272 22 36.63 22 38.3052V56.9951C22 58.6703 23.3471 60.0283 25.0087 60.0283H48.5644C50.2261 60.0283 51.5731 58.6703 51.5731 56.9951V38.3052C51.5731 36.63 50.2261 35.272 48.5644 35.272Z" fill="#4FA188"/>
<path d="M28.5153 60.0283H25.0087C23.3457 60.0283 22 58.6716 22 56.9951V38.2996C22 36.6286 23.3457 35.2664 25.0087 35.2664H28.5153C26.8523 35.2664 25.5065 36.6231 25.5065 38.2996V56.9951C25.5065 58.6661 26.8523 60.0283 28.5153 60.0283Z" fill="#428575"/>
<path d="M36.7866 49.2798C34.5875 49.2798 32.7932 47.4709 32.7932 45.2539C32.7932 43.0369 34.5875 41.228 36.7866 41.228C38.9857 41.228 40.78 43.0369 40.78 45.2539C40.78 47.4709 38.9857 49.2798 36.7866 49.2798ZM36.7866 43.9083C36.0535 43.9083 35.4573 44.5094 35.4573 45.2484C35.4573 45.9874 36.0535 46.5885 36.7866 46.5885C37.5196 46.5885 38.1159 45.9874 38.1159 45.2484C38.1159 44.5094 37.5196 43.9083 36.7866 43.9083Z" fill="#492B7C"/>
<path d="M36.71 47.9396H36.8522C37.547 47.9396 38.1104 48.5077 38.1104 49.2081V52.0372C38.1104 52.7376 37.547 53.3056 36.8522 53.3056H36.71C36.0152 53.3056 35.4518 52.7376 35.4518 52.0372V49.2081C35.4518 48.5077 36.0152 47.9396 36.71 47.9396Z" fill="#492B7C"/>
</svg>
