<svg width="180" height="119" viewBox="0 0 180 119" fill="none" xmlns="http://www.w3.org/2000/svg">
<g clip-path="url(#clip0_1779_82818)">
<path d="M0 -0.00012207H180V119H0V-0.00012207Z" fill="#232323"/>
<path d="M0 19.8391H180V39.6783H0V19.8391Z" fill="#FFDA44"/>
<path d="M0 39.6782H180V59.5174H0V39.6782Z" fill="#D32300"/>
<path d="M0 79.3566H180V99.1957H0V79.3566Z" fill="#FFDA44"/>
<path d="M0 99.1608H180V119H0V99.1608Z" fill="#D32300"/>
<path d="M90 87.6548C105.669 87.6548 118.371 75.0573 118.371 59.5174C118.371 43.9776 105.669 31.38 90 31.38C74.3311 31.38 61.6289 43.9776 61.6289 59.5174C61.6289 75.0573 74.3311 87.6548 90 87.6548Z" fill="white"/>
<path d="M82.4417 44.4549C82.7581 43.9668 75.551 43.7576 75.551 43.7576C76.1487 42.8859 82.0198 40.0966 82.0198 40.0966C82.0198 40.0966 81.7034 38.0046 82.969 36.6797L81.387 33.2627C81.387 33.2627 83.8479 32.0773 87.8557 32.0773C91.8635 32.0773 94.8518 34.5179 95.2385 36.6448L92.9886 37.8303C92.9534 39.469 93.5862 41.8748 91.4768 43.8622C89.4026 45.8496 88.5589 46.268 88.4885 50.4172C88.4885 51.777 89.2971 53.2762 91.5823 54.4966C97.6995 57.7392 105.153 64.329 107.262 66.3164C109.407 68.3038 109.055 73.0108 108.176 75.1028C107.297 77.1948 103.922 80.0887 103.149 79.8446C102.375 79.6354 103.571 76.6369 101.918 75.8001C101.918 75.8001 98.7893 73.1502 96.012 76.0093C93.2346 78.8684 95.9417 84.7957 97.3831 85.772C98.8245 86.7482 97.9807 87.5153 96.7151 87.5153H86.8362C85.5003 87.5153 84.9378 86.7134 86.1682 85.772C88.8401 84.447 90.5276 80.4374 88.7698 78.694C87.0471 76.9856 82.3362 79.217 81.2112 80.8906C80.2268 81.8669 78.1175 82.1458 76.6761 80.4025C75.2346 78.6592 75.2346 76.7764 76.2893 76.0442C78.7503 74.3706 76.2893 76.0442 76.3245 76.0093C76.3245 76.0093 80.5081 73.0108 86.8362 72.8713C88.2073 72.8713 88.5237 72.1042 87.6096 71.1977C87.6096 71.1977 76.7464 61.6442 77.7307 55.7866C78.7854 49.406 84.762 46.6167 82.4417 44.4549C82.4417 44.4549 81.9846 43.8273 82.4417 44.4549Z" fill="black"/>
</g>
<defs>
<clipPath id="clip0_1779_82818">
<rect width="180" height="119" fill="white"/>
</clipPath>
</defs>
</svg>
