<svg width="600" height="600" viewBox="0 0 600 600" fill="none" xmlns="http://www.w3.org/2000/svg">
<rect width="600" height="600" rx="20" fill="#DCEDE8"/>
<path d="M141.248 256.941H196.343V231.418H141.248V256.941ZM141.248 305.171H194.582V281.232H141.248V305.171ZM121.533 231.418V354.633H150.049V231.418H121.533ZM254.797 356.393C265.124 356.393 273.866 354.398 281.024 350.409C288.3 346.419 294.05 340.434 298.274 332.454L274.512 326.646C272.517 330.166 269.818 332.806 266.415 334.567C263.129 336.327 259.139 337.207 254.445 337.207C250.338 337.207 246.876 336.327 244.06 334.567C241.243 332.689 239.131 329.99 237.723 326.47C236.315 322.949 235.611 318.725 235.611 313.796C235.728 308.398 236.432 303.939 237.723 300.418C239.131 296.781 241.185 294.082 243.884 292.321C246.583 290.561 249.927 289.681 253.917 289.681C257.085 289.681 259.843 290.385 262.19 291.793C264.537 293.201 266.356 295.196 267.647 297.778C268.937 300.36 269.583 303.411 269.583 306.931C269.583 307.753 269.348 308.809 268.879 310.1C268.527 311.273 268.057 312.271 267.471 313.092L273.807 304.995H223.817V319.781H297.746C297.981 318.959 298.098 317.962 298.098 316.788C298.098 315.498 298.098 314.207 298.098 312.916C298.098 304.232 296.397 296.839 292.994 290.737C289.591 284.635 284.662 280 278.208 276.831C271.754 273.546 263.833 271.903 254.445 271.903C245.057 271.903 236.902 273.604 229.978 277.007C223.172 280.411 217.95 285.281 214.312 291.617C210.674 297.954 208.855 305.464 208.855 314.148C208.855 322.714 210.733 330.166 214.488 336.503C218.243 342.84 223.524 347.768 230.33 351.289C237.254 354.692 245.409 356.393 254.797 356.393ZM358.451 356.393C368.777 356.393 377.52 354.398 384.678 350.409C391.953 346.419 397.703 340.434 401.928 332.454L378.165 326.646C376.17 330.166 373.471 332.806 370.068 334.567C366.782 336.327 362.792 337.207 358.098 337.207C353.991 337.207 350.53 336.327 347.713 334.567C344.897 332.689 342.785 329.99 341.376 326.47C339.968 322.949 339.264 318.725 339.264 313.796C339.382 308.398 340.086 303.939 341.376 300.418C342.785 296.781 344.838 294.082 347.537 292.321C350.236 290.561 353.581 289.681 357.57 289.681C360.739 289.681 363.497 290.385 365.843 291.793C368.19 293.201 370.009 295.196 371.3 297.778C372.591 300.36 373.236 303.411 373.236 306.931C373.236 307.753 373.002 308.809 372.532 310.1C372.18 311.273 371.711 312.271 371.124 313.092L377.461 304.995H327.471V319.781H401.4C401.635 318.959 401.752 317.962 401.752 316.788C401.752 315.498 401.752 314.207 401.752 312.916C401.752 304.232 400.05 296.839 396.647 290.737C393.244 284.635 388.316 280 381.861 276.831C375.407 273.546 367.486 271.903 358.098 271.903C348.711 271.903 340.555 273.604 333.631 277.007C326.825 280.411 321.603 285.281 317.966 291.617C314.328 297.954 312.509 305.464 312.509 314.148C312.509 322.714 314.386 330.166 318.142 336.503C321.897 342.84 327.177 347.768 333.984 351.289C340.907 354.692 349.063 356.393 358.451 356.393ZM425.315 325.237L414.226 342.84C417.864 345.656 421.795 348.238 426.02 350.585C430.244 352.814 434.821 354.574 439.749 355.865C444.795 357.273 450.252 357.978 456.119 357.978C465.742 357.978 473.193 355.807 478.474 351.465C483.872 347.006 486.571 340.434 486.571 331.75C486.571 326.704 485.456 322.656 483.227 319.605C481.114 316.554 478.239 314.031 474.602 312.036C471.081 310.041 467.209 308.281 462.984 306.755C458.994 305.23 455.591 303.998 452.775 303.059C450.076 302.003 447.964 300.888 446.438 299.714C445.03 298.541 444.326 297.074 444.326 295.314C444.326 293.788 444.913 292.556 446.086 291.617C447.377 290.679 449.254 290.209 451.719 290.209C455.357 290.209 459.346 291.265 463.688 293.378C468.03 295.372 471.903 297.954 475.306 301.122L484.811 283.872C481.642 281.525 478.239 279.472 474.602 277.712C471.081 275.951 467.267 274.543 463.16 273.487C459.17 272.431 454.828 271.903 450.135 271.903C444.267 271.903 439.045 272.783 434.469 274.543C430.009 276.303 426.43 278.885 423.731 282.288C421.15 285.691 419.859 289.857 419.859 294.786C419.859 299.949 420.974 304.174 423.203 307.459C425.433 310.745 428.249 313.385 431.652 315.38C435.173 317.258 438.869 318.901 442.742 320.309C447.083 321.6 450.487 322.832 452.951 324.005C455.533 325.179 457.351 326.411 458.408 327.702C459.464 328.875 459.992 330.342 459.992 332.102C459.992 333.98 459.346 335.505 458.056 336.679C456.765 337.852 454.77 338.439 452.071 338.439C450.193 338.439 447.964 338.087 445.382 337.383C442.8 336.562 439.808 335.212 436.405 333.334C433.119 331.34 429.423 328.641 425.315 325.237Z" fill="black"/>
<path d="M48 334.626C107.591 284.264 225.81 187.838 221.959 205.025C217.146 226.51 45.9372 396.307 80.3165 397C116.759 392.842 313.408 205.025 309.282 230.668C298.969 256.311 186.205 383.139 199.956 385.218C213.708 387.297 384.917 225.817 388.355 247.994C391.793 270.172 293.468 370.664 303.782 382.446C314.096 394.228 452.988 249.38 462.614 261.162C467.427 277.102 393.96 372.094 402.106 379.674C411.045 387.99 522.434 304.131 552 275.023" stroke="#492B7C" stroke-width="5"/>
</svg>
