<svg width="464" height="261" viewBox="0 0 464 261" fill="none" xmlns="http://www.w3.org/2000/svg">
<g clip-path="url(#clip0_833_65859)">
<rect opacity="0.25" width="37.7379" height="119.167" transform="matrix(-4.37114e-08 1 -0.865988 -0.500065 232.742 201.835)" fill="#AEB4BC"/>
<rect opacity="0.24" width="38.2383" height="117.751" transform="matrix(4.37114e-08 1 0.865988 -0.500065 232.68 201.805)" fill="#5E6673"/>
<path opacity="0.09" d="M231.458 83.4547L334.559 142.975L232.703 201.777L129.602 142.256L231.458 83.4547Z" fill="#929AA5"/>
<rect opacity="0.21" width="24.6998" height="63.3501" transform="matrix(-4.37114e-08 1 -0.865988 -0.500065 234.86 152.932)" fill="#AEB4BC"/>
<path opacity="0.11" d="M234.191 90.0001L289 121.641L234.852 152.901L180.043 121.259L234.191 90.0001Z" fill="#CACED3"/>
<rect opacity="0.23" width="25.5283" height="62.4568" transform="matrix(4.37114e-08 1 0.865988 -0.500066 234.881 152.819)" fill="#474D57"/>
<rect opacity="0.88" width="54.4538" height="54.4538" transform="matrix(-0.865236 0.501365 0.865236 0.501365 235.472 72.1185)" fill="#929AA5"/>
<rect width="40.3895" height="40.3895" transform="matrix(-0.865236 0.501365 0.865236 0.501365 234.788 77.8422)" fill="url(#paint0_linear_833_65859)"/>
<rect opacity="0.88" width="16.7934" height="54.375" transform="matrix(4.38556e-08 1 0.8667 -0.49883 235.408 126.709)" fill="#5E6673"/>
<rect opacity="0.56" width="17.03" height="54.217" transform="matrix(-4.38557e-08 1 -0.8667 -0.49883 235.346 126.472)" fill="#76808F"/>
<rect width="7.43698" height="31.017" transform="matrix(-4.35488e-08 1 -0.865179 -0.501463 235.454 107.265)" fill="#F8D33A"/>
<path d="M208.619 91.7618L205.172 62.0702L221.883 99.4301L208.619 91.7618Z" fill="#F0B90B"/>
<path d="M208.619 91.7618L205.172 62.0702L221.883 99.4301L208.619 91.7618Z" fill="#F8D33A"/>
<path d="M221.883 99.4301L205.172 62.0702H206.096L221.914 83.4801V99.4301H221.883Z" fill="#D0980B"/>
<path d="M262.228 91.7618L265.675 62.0702L248.964 99.4301L262.228 91.7618Z" fill="#F0B90B"/>
<path d="M248.964 99.4301L265.675 62.0702H264.752L248.934 83.4801V99.4301H248.964Z" fill="#F8D33A"/>
<rect x="221.914" y="83.4796" width="27.0199" height="15.95" fill="#F8D33A"/>
<rect x="221.914" y="83.4796" width="27.0199" height="15.95" fill="url(#paint1_linear_833_65859)"/>
<path d="M233.793 46.3039H235.454V83.4797H221.852L233.793 46.3039Z" fill="#F8D33A"/>
<path d="M233.793 79.7994H235.454V107.283L221.852 99.4303L233.793 79.7994Z" fill="#F8D33A"/>
<rect width="4.55139" height="4.61654" transform="matrix(0.8631 0.505034 -0.8631 0.505034 204.813 56.5608)" fill="#FCEA9C"/>
<rect opacity="0.76" width="3.71449" height="4.55489" transform="matrix(-4.31258e-08 1 -0.863042 -0.505132 204.753 61.1899)" fill="#F8D33A"/>
<rect width="3.74536" height="4.62169" transform="matrix(4.31258e-08 1 0.863042 -0.505132 204.753 61.1928)" fill="#F0B90B"/>
<rect opacity="0.19" width="4.58571" height="4.57485" transform="matrix(0.8631 0.505034 -0.8631 0.505034 204.766 60.2863)" fill="#FCEA9C"/>
<rect width="7.43698" height="31.017" transform="matrix(4.35488e-08 1 0.865179 -0.501463 235.393 107.264)" fill="#F0B90B"/>
<rect opacity="0.57" width="7.43698" height="31.017" transform="matrix(4.35488e-08 1 0.865179 -0.501464 235.393 107.264)" fill="url(#paint2_linear_833_65859)"/>
<path d="M237.055 46.304H235.393V83.4798H248.995L237.055 46.304Z" fill="#D0980B"/>
<path d="M237.055 46.304H235.393V83.4798H248.995L237.055 46.304Z" fill="url(#paint3_linear_833_65859)"/>
<path d="M237.055 79.7988H235.393V107.282L248.995 99.4296L237.055 79.7988Z" fill="#F8D33A"/>
<path d="M237.055 79.7988H235.393V107.282L248.995 99.4296L237.055 79.7988Z" fill="url(#paint4_linear_833_65859)"/>
<rect width="4.55138" height="4.61653" transform="matrix(-0.863099 0.505034 0.863099 0.505034 265.973 56.5608)" fill="#FCEA9C"/>
<rect opacity="0.76" width="3.71449" height="4.55488" transform="matrix(4.31257e-08 1 0.863042 -0.505132 266.032 61.1899)" fill="#F8D33A"/>
<rect width="3.74536" height="4.62169" transform="matrix(-4.31257e-08 1 -0.863042 -0.505132 266.032 61.1928)" fill="#F0B90B"/>
<rect opacity="0.19" width="4.5857" height="4.57484" transform="matrix(-0.863099 0.505034 0.863099 0.505034 266.02 60.2863)" fill="#FCEA9C"/>
<rect width="4.55138" height="4.61653" transform="matrix(-0.863099 0.505034 0.863099 0.505034 235.383 39.7518)" fill="#FCEA9C"/>
<rect opacity="0.76" width="3.71449" height="4.55488" transform="matrix(4.31257e-08 1 0.863042 -0.505132 235.443 44.381)" fill="#F8D33A"/>
<rect width="3.74536" height="4.62169" transform="matrix(-4.31257e-08 1 -0.863042 -0.505132 235.443 44.3839)" fill="#F0B90B"/>
<rect opacity="0.19" width="4.5857" height="4.57484" transform="matrix(-0.863099 0.505034 0.863099 0.505034 235.431 43.4773)" fill="#FCEA9C"/>
<rect width="4.55138" height="4.61653" transform="matrix(-0.863099 0.505034 0.863099 0.505034 235.383 74.0447)" fill="#FCEA9C"/>
<rect opacity="0.76" width="3.71449" height="4.55488" transform="matrix(4.31257e-08 1 0.863042 -0.505132 235.443 78.6739)" fill="#F8D33A"/>
<rect width="3.74536" height="4.62169" transform="matrix(-4.31257e-08 1 -0.863042 -0.505132 235.443 78.6768)" fill="#F0B90B"/>
<rect opacity="0.19" width="4.5857" height="4.57484" transform="matrix(-0.863099 0.505034 0.863099 0.505034 235.431 77.7702)" fill="#FCEA9C"/>
<path opacity="0.31" fill-rule="evenodd" clip-rule="evenodd" d="M235.331 72.5962L235.331 -2.60846L282.535 -29.6273L282.535 99.5579L282.485 99.5865L235.331 72.5962Z" fill="url(#paint5_linear_833_65859)"/>
<path opacity="0.31" fill-rule="evenodd" clip-rule="evenodd" d="M235.393 72.6967L235.393 -2.61422L188.357 -29.5374L188.357 99.6199L235.393 72.6967Z" fill="url(#paint6_linear_833_65859)"/>
<rect opacity="0.33" width="9.56845" height="9.70541" transform="matrix(0.863031 0.505151 -0.863031 0.505151 144.662 125.161)" fill="#E6E8EA"/>
<rect opacity="0.23" width="7.81084" height="9.5758" transform="matrix(-4.31123e-08 1 -0.862973 -0.505249 144.536 134.896)" fill="#AEB4BC"/>
<rect opacity="0.21" width="7.91879" height="9.62459" transform="matrix(-4.31123e-08 1 -0.862973 -0.505249 152.921 130)" fill="#CACED3"/>
<rect opacity="0.4" width="7.87575" height="9.71625" transform="matrix(4.31123e-08 1 0.862973 -0.505249 144.536 134.901)" fill="#929AA5"/>
<g style="mix-blend-mode:screen" opacity="0.62">
<rect width="9.6406" height="9.61777" transform="matrix(0.863031 0.505151 -0.863031 0.505151 144.562 132.995)" fill="url(#paint7_linear_833_65859)"/>
</g>
<g opacity="0.17">
<rect opacity="0.63" width="9.6779" height="9.6779" transform="matrix(0.866044 0.499967 -0.866044 0.499967 144.535 125.135)" fill="#929AA5"/>
<rect width="7.97785" height="9.58849" transform="matrix(-4.37114e-08 1 -0.865988 -0.500065 144.534 134.778)" fill="url(#paint8_linear_833_65859)" fill-opacity="0.5"/>
<rect width="8.08122" height="9.58849" transform="matrix(4.37114e-08 1 0.865988 -0.500065 144.524 134.797)" fill="#5E6673"/>
</g>
<rect width="11.2688" height="11.2688" transform="matrix(0.866756 0.498732 -0.866756 0.498732 232.678 181.607)" fill="#929AA5"/>
<rect width="8.04357" height="11.2688" transform="matrix(-4.38557e-08 1 -0.8667 -0.49883 232.677 192.825)" fill="url(#paint9_linear_833_65859)" fill-opacity="0.5"/>
<rect width="8.03457" height="11.2688" transform="matrix(4.38556e-08 1 0.866699 -0.498831 232.665 192.841)" fill="#5E6673"/>
<rect opacity="0.33" width="11.9784" height="12.1498" transform="matrix(0.864196 0.503155 -0.864196 0.503155 175.703 47.5168)" fill="#E6E8EA"/>
<rect opacity="0.23" width="9.73947" height="11.9876" transform="matrix(-4.33417e-08 1 -0.864139 -0.503253 175.546 59.6545)" fill="#AEB4BC"/>
<rect opacity="0.21" width="9.87407" height="12.0487" transform="matrix(-4.33417e-08 1 -0.864139 -0.503253 186.057 53.5504)" fill="#CACED3"/>
<rect opacity="0.4" width="9.82041" height="12.1634" transform="matrix(4.33417e-08 1 0.864139 -0.503253 175.546 59.662)" fill="#929AA5"/>
<g style="mix-blend-mode:screen" opacity="0.62">
<rect width="12.0687" height="12.0401" transform="matrix(0.864196 0.503155 -0.864196 0.503155 175.578 57.2852)" fill="url(#paint10_linear_833_65859)"/>
</g>
<rect opacity="0.33" width="9.56845" height="9.70541" transform="matrix(0.863031 0.505151 -0.863031 0.505151 321.964 125.161)" fill="#E6E8EA"/>
<rect opacity="0.23" width="7.81084" height="9.5758" transform="matrix(-4.31123e-08 1 -0.862973 -0.505249 321.839 134.896)" fill="#AEB4BC"/>
<rect opacity="0.21" width="7.91879" height="9.62459" transform="matrix(-4.31123e-08 1 -0.862973 -0.505249 330.224 130)" fill="#CACED3"/>
<rect opacity="0.4" width="7.87575" height="9.71625" transform="matrix(4.31123e-08 1 0.862973 -0.505249 321.839 134.901)" fill="#929AA5"/>
<g style="mix-blend-mode:screen" opacity="0.62">
<rect width="9.6406" height="9.61777" transform="matrix(0.863031 0.505151 -0.863031 0.505151 321.865 132.995)" fill="url(#paint11_linear_833_65859)"/>
</g>
<g opacity="0.17">
<rect opacity="0.62" width="9.6779" height="9.6779" transform="matrix(0.866044 0.499967 -0.866044 0.499967 321.838 125.135)" fill="#929AA5"/>
<rect width="7.97785" height="9.58849" transform="matrix(-4.37114e-08 1 -0.865988 -0.500065 321.837 134.778)" fill="url(#paint12_linear_833_65859)" fill-opacity="0.5"/>
<rect width="8.08122" height="9.58849" transform="matrix(4.37114e-08 1 0.865988 -0.500065 321.827 134.797)" fill="#5E6673"/>
</g>
<rect width="9.57459" height="9.57459" transform="matrix(0.866044 0.499967 -0.866044 0.499967 144.523 110.9)" fill="#FCEA9C"/>
<rect width="9.57459" height="9.57459" transform="matrix(-4.37114e-08 1 -0.865988 -0.500065 144.522 120.492)" fill="#F8D33A"/>
<rect width="9.57459" height="9.57459" transform="matrix(4.37114e-08 1 0.865988 -0.500065 144.548 120.492)" fill="#F0B90B"/>
<rect width="9.57459" height="9.57459" transform="matrix(0.866044 0.499967 -0.866044 0.499967 321.825 102.919)" fill="#FCEA9C"/>
<rect width="9.57459" height="9.57459" transform="matrix(-4.37114e-08 1 -0.865988 -0.500065 321.825 112.511)" fill="#F8D33A"/>
<rect width="9.57459" height="9.57459" transform="matrix(4.37114e-08 1 0.865988 -0.500065 321.851 112.511)" fill="#F0B90B"/>
<rect width="9.57459" height="9.57459" transform="matrix(0.866044 0.499967 -0.866044 0.499967 232.958 160.078)" fill="#FCEA9C"/>
<rect width="9.57459" height="9.57459" transform="matrix(-4.37114e-08 1 -0.865988 -0.500065 232.958 169.67)" fill="#F8D33A"/>
<rect width="9.57459" height="9.57459" transform="matrix(4.37114e-08 1 0.865988 -0.500065 232.983 169.67)" fill="#F0B90B"/>
<g opacity="0.79" clip-path="url(#clip1_833_65859)">
<rect width="88.6412" height="53.7659" transform="matrix(0.866737 -0.498765 -7.56164e-05 1 21.7433 58.1594)" fill="#CACED3" fill-opacity="0.11"/>
<path d="M44.0281 70.7132C41.5893 72.1166 39.6125 70.9731 39.6127 68.1595C39.6129 65.3458 41.5901 61.9272 44.0289 60.5238C46.4676 59.1204 48.4445 60.2639 48.4443 63.0775C48.4441 65.8912 46.4669 69.3098 44.0281 70.7132Z" fill="url(#paint13_linear_833_65859)" fill-opacity="0.1"/>
<g opacity="0.58">
<rect width="11.4856" height="2.84405" transform="matrix(0.866737 -0.498765 -7.56164e-05 1 62.4259 50.6487)" fill="#929AA5"/>
<rect width="2.84462" height="2.84462" transform="matrix(0.866737 -0.498765 -7.56164e-05 1 62.4254 57.6495)" fill="#929AA5"/>
<rect width="11.7066" height="2.84462" transform="matrix(0.866737 -0.498765 -7.56164e-05 1 66.8634 55.0956)" fill="#929AA5"/>
<rect width="2.84462" height="2.84462" transform="matrix(0.866737 -0.498765 7.56164e-05 -1 78.9822 50.9663)" fill="#929AA5"/>
<rect width="2.84462" height="2.84462" transform="matrix(0.866737 -0.498765 -7.56164e-05 1 62.4249 64.6508)" fill="#929AA5"/>
<rect width="16.4988" height="2.84462" transform="matrix(0.866737 -0.498765 -7.56164e-05 1 67.8491 61.5294)" fill="#929AA5"/>
<rect width="2.84462" height="2.84462" transform="matrix(0.866737 -0.498765 -7.56164e-05 1 62.4243 71.6521)" fill="#929AA5"/>
<rect width="17.6367" height="2.84462" transform="matrix(0.866737 -0.498765 -7.56164e-05 1 66.8623 69.0983)" fill="#929AA5"/>
<rect width="2.84462" height="2.84462" transform="matrix(0.866737 -0.498765 7.56164e-05 -1 84.1208 62.0113)" fill="#929AA5"/>
</g>
<path opacity="0.58" d="M40.8158 85.5299L40.8158 85.4978L34.7945 88.9628L34.795 81.9706C34.7952 79.6932 36.4803 76.8774 38.5588 75.6813L49.0965 69.6174C51.175 68.4213 52.8598 69.2979 52.8596 71.5753L52.8591 78.5675L47.239 81.8015L47.239 81.8336L40.8158 85.5299Z" fill="#929AA5"/>
<path d="M44.0282 70.7132C41.5895 72.1165 39.6127 70.9731 39.6129 68.1594C39.6131 65.3458 41.5902 61.9271 44.029 60.5237C46.4678 59.1204 48.4447 60.2639 48.4445 63.0775C48.4442 65.8911 46.467 69.3098 44.0282 70.7132Z" fill="#F0B90B"/>
</g>
<rect width="6.14619" height="89.3508" transform="matrix(-0.866737 -0.498765 0.866775 -0.4987 21.7355 58.1124)" fill="#C0C6CF" fill-opacity="0.4"/>
<rect width="5.98617" height="54.0941" transform="matrix(0.866737 0.498765 -7.56078e-05 -1 16.4772 109.174)" fill="url(#paint14_linear_833_65859)" fill-opacity="0.5"/>
<g opacity="0.79" clip-path="url(#clip2_833_65859)">
<rect width="88.6412" height="53.7659" transform="matrix(0.866737 -0.498765 -7.56164e-05 1 21.7433 58.1594)" fill="#CACED3" fill-opacity="0.11"/>
<path d="M44.0281 70.7132C41.5893 72.1166 39.6125 70.9731 39.6127 68.1595C39.6129 65.3458 41.5901 61.9272 44.0289 60.5238C46.4676 59.1204 48.4445 60.2639 48.4443 63.0775C48.4441 65.8912 46.4669 69.3098 44.0281 70.7132Z" fill="url(#paint15_linear_833_65859)" fill-opacity="0.1"/>
<g opacity="0.58">
<rect width="11.4856" height="2.84405" transform="matrix(0.866737 -0.498765 -7.56164e-05 1 62.4259 50.6487)" fill="#929AA5"/>
<rect width="2.84462" height="2.84462" transform="matrix(0.866737 -0.498765 -7.56164e-05 1 62.4254 57.6495)" fill="#929AA5"/>
<rect width="11.7066" height="2.84462" transform="matrix(0.866737 -0.498765 -7.56164e-05 1 66.8634 55.0956)" fill="#929AA5"/>
<rect width="2.84462" height="2.84462" transform="matrix(0.866737 -0.498765 7.56164e-05 -1 78.9822 50.9663)" fill="#929AA5"/>
<rect width="2.84462" height="2.84462" transform="matrix(0.866737 -0.498765 -7.56164e-05 1 62.4249 64.6508)" fill="#929AA5"/>
<rect width="16.4988" height="2.84462" transform="matrix(0.866737 -0.498765 -7.56164e-05 1 67.8491 61.5294)" fill="#929AA5"/>
<rect width="2.84462" height="2.84462" transform="matrix(0.866737 -0.498765 -7.56164e-05 1 62.4243 71.6521)" fill="#929AA5"/>
<rect width="17.6367" height="2.84462" transform="matrix(0.866737 -0.498765 -7.56164e-05 1 66.8623 69.0983)" fill="#929AA5"/>
<rect width="2.84462" height="2.84462" transform="matrix(0.866737 -0.498765 7.56164e-05 -1 84.1208 62.0113)" fill="#929AA5"/>
</g>
<path opacity="0.58" d="M40.8158 85.5299L40.8158 85.4978L34.7945 88.9628L34.795 81.9706C34.7952 79.6932 36.4803 76.8774 38.5588 75.6813L49.0965 69.6174C51.175 68.4213 52.8598 69.2979 52.8596 71.5753L52.8591 78.5675L47.239 81.8015L47.239 81.8336L40.8158 85.5299Z" fill="#929AA5"/>
<path d="M44.0282 70.7132C41.5895 72.1165 39.6127 70.9731 39.6129 68.1594C39.6131 65.3458 41.5902 61.9271 44.029 60.5237C46.4678 59.1204 48.4447 60.2639 48.4445 63.0775C48.4442 65.8911 46.467 69.3098 44.0282 70.7132Z" fill="#F0B90B"/>
</g>
<rect opacity="0.55" width="6.14619" height="89.3508" transform="matrix(-0.866737 -0.498765 0.866775 -0.4987 21.7355 58.1124)" fill="#C0C6CF" fill-opacity="0.4"/>
<rect opacity="0.31" width="5.98617" height="54.0941" transform="matrix(0.866737 0.498765 -7.56078e-05 -1 16.4772 109.174)" fill="url(#paint16_linear_833_65859)" fill-opacity="0.5"/>
<g opacity="0.79" clip-path="url(#clip3_833_65859)">
<rect width="88.6412" height="53.7659" transform="matrix(0.866737 -0.498765 -7.56164e-05 1 5.39294 150.506)" fill="#CACED3" fill-opacity="0.11"/>
<path d="M27.6779 163.06C25.2392 164.463 23.2623 163.32 23.2626 160.506C23.2628 157.692 25.2399 154.274 27.6787 152.87C30.1175 151.467 32.0943 152.61 32.0941 155.424C32.0939 158.238 30.1167 161.656 27.6779 163.06Z" fill="url(#paint17_linear_833_65859)" fill-opacity="0.1"/>
<g opacity="0.58">
<rect width="11.4856" height="2.84405" transform="matrix(0.866737 -0.498765 -7.56164e-05 1 46.0756 142.995)" fill="#929AA5"/>
<rect width="2.84462" height="2.84462" transform="matrix(0.866737 -0.498765 -7.56164e-05 1 46.0751 149.996)" fill="#929AA5"/>
<rect width="11.7066" height="2.84462" transform="matrix(0.866737 -0.498765 -7.56164e-05 1 50.5131 147.442)" fill="#929AA5"/>
<rect width="2.84462" height="2.84462" transform="matrix(0.866737 -0.498765 7.56164e-05 -1 62.6319 143.313)" fill="#929AA5"/>
<rect width="2.84462" height="2.84462" transform="matrix(0.866737 -0.498765 -7.56164e-05 1 46.0746 156.997)" fill="#929AA5"/>
<rect width="16.4988" height="2.84462" transform="matrix(0.866737 -0.498765 -7.56164e-05 1 51.4988 153.876)" fill="#929AA5"/>
<rect width="2.84462" height="2.84462" transform="matrix(0.866737 -0.498765 -7.56164e-05 1 46.074 163.999)" fill="#929AA5"/>
<rect width="17.6367" height="2.84462" transform="matrix(0.866737 -0.498765 -7.56164e-05 1 50.512 161.445)" fill="#929AA5"/>
<rect width="2.84462" height="2.84462" transform="matrix(0.866737 -0.498765 7.56164e-05 -1 67.7705 154.358)" fill="#929AA5"/>
</g>
<path opacity="0.58" d="M24.4655 177.876L24.4655 177.844L18.4442 181.309L18.4448 174.317C18.4449 172.04 20.13 169.224 22.2085 168.028L32.7462 161.964C34.8247 160.768 36.5095 161.644 36.5094 163.922L36.5088 170.914L30.8887 174.148L30.8887 174.18L24.4655 177.876Z" fill="#929AA5"/>
<path d="M27.6779 163.06C25.2392 164.463 23.2624 163.32 23.2626 160.506C23.2628 157.692 25.2399 154.274 27.6787 152.87C30.1175 151.467 32.0944 152.61 32.0942 155.424C32.094 158.238 30.1168 161.656 27.6779 163.06Z" fill="#F0B90B"/>
</g>
<rect width="6.14619" height="89.3508" transform="matrix(-0.866737 -0.498765 0.866775 -0.4987 5.38507 150.459)" fill="#C0C6CF" fill-opacity="0.4"/>
<rect width="5.98617" height="54.0941" transform="matrix(0.866737 0.498765 -7.56078e-05 -1 0.12677 201.52)" fill="url(#paint18_linear_833_65859)" fill-opacity="0.5"/>
<g opacity="0.79" clip-path="url(#clip4_833_65859)">
<rect width="88.6412" height="53.7659" transform="matrix(0.866737 -0.498765 -7.56164e-05 1 5.39294 150.506)" fill="#CACED3" fill-opacity="0.11"/>
<path d="M27.6779 163.06C25.2392 164.463 23.2623 163.32 23.2626 160.506C23.2628 157.692 25.2399 154.274 27.6787 152.87C30.1175 151.467 32.0943 152.61 32.0941 155.424C32.0939 158.238 30.1167 161.656 27.6779 163.06Z" fill="url(#paint19_linear_833_65859)" fill-opacity="0.1"/>
<g opacity="0.58">
<rect width="11.4856" height="2.84405" transform="matrix(0.866737 -0.498765 -7.56164e-05 1 46.0756 142.995)" fill="#929AA5"/>
<rect width="2.84462" height="2.84462" transform="matrix(0.866737 -0.498765 -7.56164e-05 1 46.0751 149.996)" fill="#929AA5"/>
<rect width="11.7066" height="2.84462" transform="matrix(0.866737 -0.498765 -7.56164e-05 1 50.5131 147.442)" fill="#929AA5"/>
<rect width="2.84462" height="2.84462" transform="matrix(0.866737 -0.498765 7.56164e-05 -1 62.6319 143.313)" fill="#929AA5"/>
<rect width="2.84462" height="2.84462" transform="matrix(0.866737 -0.498765 -7.56164e-05 1 46.0746 156.997)" fill="#929AA5"/>
<rect width="16.4988" height="2.84462" transform="matrix(0.866737 -0.498765 -7.56164e-05 1 51.4988 153.876)" fill="#929AA5"/>
<rect width="2.84462" height="2.84462" transform="matrix(0.866737 -0.498765 -7.56164e-05 1 46.074 163.999)" fill="#929AA5"/>
<rect width="17.6367" height="2.84462" transform="matrix(0.866737 -0.498765 -7.56164e-05 1 50.512 161.445)" fill="#929AA5"/>
<rect width="2.84462" height="2.84462" transform="matrix(0.866737 -0.498765 7.56164e-05 -1 67.7705 154.358)" fill="#929AA5"/>
</g>
<path opacity="0.58" d="M24.4655 177.876L24.4655 177.844L18.4442 181.309L18.4448 174.317C18.4449 172.04 20.13 169.224 22.2085 168.028L32.7462 161.964C34.8247 160.768 36.5095 161.644 36.5094 163.922L36.5088 170.914L30.8887 174.148L30.8887 174.18L24.4655 177.876Z" fill="#929AA5"/>
<path d="M27.6779 163.06C25.2392 164.463 23.2624 163.32 23.2626 160.506C23.2628 157.692 25.2399 154.274 27.6787 152.87C30.1175 151.467 32.0944 152.61 32.0942 155.424C32.094 158.238 30.1168 161.656 27.6779 163.06Z" fill="#F0B90B"/>
</g>
<rect opacity="0.55" width="6.14619" height="89.3508" transform="matrix(-0.866737 -0.498765 0.866775 -0.4987 5.38507 150.459)" fill="#C0C6CF" fill-opacity="0.4"/>
<rect opacity="0.31" width="5.98617" height="54.0941" transform="matrix(0.866737 0.498765 -7.56078e-05 -1 0.12677 201.52)" fill="url(#paint20_linear_833_65859)" fill-opacity="0.5"/>
<g clip-path="url(#clip5_833_65859)">
<rect width="92.1208" height="54.3952" transform="matrix(-0.866737 -0.498765 7.56164e-05 1 408.584 64.7128)" fill="#F8D33A"/>
<g opacity="0.58">
<rect width="11.4856" height="2.84405" transform="matrix(-0.866737 -0.498765 7.56164e-05 1 390.785 69.0505)" fill="#F0B90B"/>
<rect width="2.84462" height="2.84462" transform="matrix(-0.866737 -0.498765 7.56164e-05 1 390.786 76.0513)" fill="#F0B90B"/>
<rect width="11.7066" height="2.84462" transform="matrix(-0.866737 -0.498765 7.56164e-05 1 386.348 73.4974)" fill="#F0B90B"/>
<rect width="2.84462" height="2.84462" transform="matrix(-0.866737 -0.498765 -7.56164e-05 -1 374.229 69.3682)" fill="#F0B90B"/>
<rect width="2.84462" height="2.84462" transform="matrix(-0.866737 -0.498765 7.56164e-05 1 390.786 83.0526)" fill="#F0B90B"/>
<rect width="16.4988" height="2.84462" transform="matrix(-0.866737 -0.498765 7.56164e-05 1 385.362 79.9312)" fill="#F0B90B"/>
<rect width="2.84462" height="2.84462" transform="matrix(-0.866737 -0.498765 7.56164e-05 1 390.787 90.0539)" fill="#F0B90B"/>
<rect width="17.6367" height="2.84462" transform="matrix(-0.866737 -0.498765 7.56164e-05 1 386.349 87.5001)" fill="#F0B90B"/>
<rect width="2.84462" height="2.84462" transform="matrix(-0.866737 -0.498765 -7.56164e-05 -1 369.09 80.4131)" fill="#F0B90B"/>
</g>
<path opacity="0.58" d="M353.188 72.0224L353.188 71.9903L359.21 75.4553L359.209 68.4631C359.209 66.1857 357.524 63.3699 355.445 62.1739L344.908 56.1099C342.829 54.9139 341.144 55.7904 341.145 58.0678L341.145 65.06L346.765 68.2941L346.765 68.3262L353.188 72.0224Z" fill="#F0B90B"/>
<path d="M353.188 72.0224L353.188 71.9903L359.21 75.4553L359.209 68.4631C359.209 66.1857 357.524 63.3699 355.445 62.1739L344.908 56.1099C342.829 54.9139 341.144 55.7904 341.145 58.0678L341.145 65.06L346.765 68.2941L346.765 68.3262L353.188 72.0224Z" fill="url(#paint21_linear_833_65859)"/>
<path d="M349.976 57.2057C352.415 58.609 354.392 57.4656 354.391 54.652C354.391 51.8383 352.414 48.4197 349.975 47.0163C347.537 45.6129 345.56 46.7564 345.56 49.57C345.56 52.3837 347.537 55.8023 349.976 57.2057Z" fill="#F0B90B"/>
</g>
<g opacity="0.44" clip-path="url(#clip6_833_65859)">
<rect width="92.1208" height="54.3952" transform="matrix(-0.866737 -0.498765 7.56164e-05 1 408.584 64.7128)" fill="#FCEA9C"/>
<g opacity="0.58">
<rect width="11.4856" height="2.84405" transform="matrix(-0.866737 -0.498765 7.56164e-05 1 390.785 69.0505)" fill="#F0B90B"/>
<rect width="2.84462" height="2.84462" transform="matrix(-0.866737 -0.498765 7.56164e-05 1 390.786 76.0512)" fill="#F0B90B"/>
<rect width="11.7066" height="2.84462" transform="matrix(-0.866737 -0.498765 7.56164e-05 1 386.348 73.4974)" fill="#F0B90B"/>
<rect width="2.84462" height="2.84462" transform="matrix(-0.866737 -0.498765 -7.56164e-05 -1 374.229 69.3681)" fill="#F0B90B"/>
<rect width="2.84462" height="2.84462" transform="matrix(-0.866737 -0.498765 7.56164e-05 1 390.786 83.0525)" fill="#F0B90B"/>
<rect width="16.4988" height="2.84462" transform="matrix(-0.866737 -0.498765 7.56164e-05 1 385.362 79.9312)" fill="#F0B90B"/>
<rect width="2.84462" height="2.84462" transform="matrix(-0.866737 -0.498765 7.56164e-05 1 390.787 90.0538)" fill="#F0B90B"/>
<rect width="17.6367" height="2.84462" transform="matrix(-0.866737 -0.498765 7.56164e-05 1 386.349 87.5)" fill="#F0B90B"/>
<rect width="2.84462" height="2.84462" transform="matrix(-0.866737 -0.498765 -7.56164e-05 -1 369.09 80.413)" fill="#F0B90B"/>
</g>
<path opacity="0.58" d="M353.188 72.0223L353.188 71.9903L359.21 75.4552L359.209 68.4631C359.209 66.1857 357.524 63.3699 355.445 62.1738L344.908 56.1099C342.829 54.9138 341.144 55.7904 341.145 58.0678L341.145 65.06L346.765 68.294L346.765 68.3261L353.188 72.0223Z" fill="#F0B90B"/>
<path d="M353.188 72.0223L353.188 71.9903L359.21 75.4552L359.209 68.4631C359.209 66.1857 357.524 63.3699 355.445 62.1738L344.908 56.1099C342.829 54.9138 341.144 55.7904 341.145 58.0678L341.145 65.06L346.765 68.294L346.765 68.3261L353.188 72.0223Z" fill="url(#paint22_linear_833_65859)"/>
<path d="M349.976 57.2057C352.415 58.609 354.392 57.4655 354.391 54.6519C354.391 51.8383 352.414 48.4196 349.975 47.0162C347.537 45.6129 345.56 46.7563 345.56 49.57C345.56 52.3836 347.537 55.8022 349.976 57.2057Z" fill="#F0B90B"/>
</g>
<g clip-path="url(#clip7_833_65859)">
<rect width="92.1208" height="54.3956" transform="matrix(-0.866737 -0.498765 7.56164e-05 1 408.584 64.7128)" fill="url(#paint23_linear_833_65859)"/>
<g opacity="0.58">
<rect width="11.4856" height="2.84405" transform="matrix(-0.866737 -0.498765 7.56164e-05 1 390.785 69.0505)" fill="#F0B90B"/>
<rect width="2.84462" height="2.84462" transform="matrix(-0.866737 -0.498765 7.56164e-05 1 390.786 76.0513)" fill="#F0B90B"/>
<rect width="11.7066" height="2.84462" transform="matrix(-0.866737 -0.498765 7.56164e-05 1 386.348 73.4974)" fill="#F0B90B"/>
<rect width="2.84462" height="2.84462" transform="matrix(-0.866737 -0.498765 -7.56164e-05 -1 374.229 69.3682)" fill="#F0B90B"/>
<rect width="2.84462" height="2.84462" transform="matrix(-0.866737 -0.498765 7.56164e-05 1 390.786 83.0526)" fill="#F0B90B"/>
<rect width="16.4988" height="2.84462" transform="matrix(-0.866737 -0.498765 7.56164e-05 1 385.362 79.9312)" fill="#F0B90B"/>
<rect width="2.84462" height="2.84462" transform="matrix(-0.866737 -0.498765 7.56164e-05 1 390.787 90.0539)" fill="#F0B90B"/>
<rect width="17.6367" height="2.84462" transform="matrix(-0.866737 -0.498765 7.56164e-05 1 386.349 87.5001)" fill="#F0B90B"/>
<rect width="2.84462" height="2.84462" transform="matrix(-0.866737 -0.498765 -7.56164e-05 -1 369.09 80.4131)" fill="#F0B90B"/>
</g>
<path opacity="0.58" d="M353.188 72.0224L353.188 71.9903L359.21 75.4553L359.209 68.4631C359.209 66.1857 357.524 63.3699 355.445 62.1739L344.908 56.1099C342.829 54.9139 341.144 55.7904 341.145 58.0678L341.145 65.06L346.765 68.2941L346.765 68.3262L353.188 72.0224Z" fill="#F0B90B"/>
<path d="M353.188 72.0224L353.188 71.9903L359.21 75.4553L359.209 68.4631C359.209 66.1857 357.524 63.3699 355.445 62.1739L344.908 56.1099C342.829 54.9139 341.144 55.7904 341.145 58.0678L341.145 65.06L346.765 68.2941L346.765 68.3262L353.188 72.0224Z" fill="url(#paint24_linear_833_65859)"/>
<path d="M349.976 57.2057C352.415 58.609 354.392 57.4656 354.391 54.652C354.391 51.8383 352.414 48.4197 349.975 47.0163C347.537 45.6129 345.56 46.7564 345.56 49.57C345.56 52.3837 347.537 55.8023 349.976 57.2057Z" fill="#F0B90B"/>
</g>
<rect opacity="0.76" width="5.83301" height="92.1255" transform="matrix(0.866737 -0.498765 -0.866775 -0.4987 408.591 64.6682)" fill="#F8D33A"/>
<rect opacity="0.82" width="5.68115" height="54.1853" transform="matrix(-0.866738 0.498765 7.56079e-05 -1 413.581 115.975)" fill="#F0B90B"/>
<rect opacity="0.74" width="5.68116" height="54.3978" transform="matrix(-0.866738 0.498763 7.56081e-05 -1 413.581 116.188)" fill="url(#paint25_linear_833_65859)"/>
<g opacity="0.79" clip-path="url(#clip8_833_65859)">
<rect width="88.6412" height="53.7659" transform="matrix(-0.866737 -0.498765 7.56164e-05 1 458.626 180.219)" fill="#CACED3" fill-opacity="0.11"/>
<path d="M436.341 192.773C438.78 194.176 440.757 193.033 440.757 190.219C440.757 187.406 438.78 183.987 436.341 182.584C433.902 181.18 431.925 182.324 431.925 185.137C431.925 187.951 433.903 191.37 436.341 192.773Z" fill="url(#paint26_linear_833_65859)" fill-opacity="0.1"/>
<g opacity="0.58">
<rect width="11.4856" height="2.84405" transform="matrix(-0.866737 -0.498765 7.56164e-05 1 417.944 172.708)" fill="#929AA5"/>
<rect width="2.84462" height="2.84462" transform="matrix(-0.866737 -0.498765 7.56164e-05 1 417.944 179.709)" fill="#929AA5"/>
<rect width="11.7066" height="2.84462" transform="matrix(-0.866737 -0.498765 7.56164e-05 1 413.506 177.155)" fill="#929AA5"/>
<rect width="2.84462" height="2.84462" transform="matrix(-0.866737 -0.498765 -7.56164e-05 -1 401.388 173.026)" fill="#929AA5"/>
<rect width="2.84462" height="2.84462" transform="matrix(-0.866737 -0.498765 7.56164e-05 1 417.945 186.711)" fill="#929AA5"/>
<rect width="16.4988" height="2.84462" transform="matrix(-0.866737 -0.498765 7.56164e-05 1 412.52 183.589)" fill="#929AA5"/>
<rect width="2.84462" height="2.84462" transform="matrix(-0.866737 -0.498765 7.56164e-05 1 417.945 193.712)" fill="#929AA5"/>
<rect width="17.6367" height="2.84462" transform="matrix(-0.866737 -0.498765 7.56164e-05 1 413.507 191.158)" fill="#929AA5"/>
<rect width="2.84462" height="2.84462" transform="matrix(-0.866737 -0.498765 -7.56164e-05 -1 396.249 184.071)" fill="#929AA5"/>
</g>
<path opacity="0.58" d="M439.554 207.59L439.554 207.558L445.575 211.023L445.574 204.03C445.574 201.753 443.889 198.937 441.811 197.741L431.273 191.677C429.194 190.481 427.51 191.358 427.51 193.635L427.51 200.627L433.13 203.861L433.13 203.893L439.554 207.59Z" fill="#929AA5"/>
<path d="M436.341 192.773C438.78 194.176 440.757 193.033 440.757 190.219C440.756 187.406 438.779 183.987 436.341 182.584C433.902 181.18 431.925 182.324 431.925 185.137C431.925 187.951 433.903 191.37 436.341 192.773Z" fill="#F0B90B"/>
</g>
<rect width="6.14619" height="89.3508" transform="matrix(0.866737 -0.498765 -0.866775 -0.4987 458.634 180.172)" fill="#C0C6CF" fill-opacity="0.4"/>
<rect width="5.98615" height="54.0941" transform="matrix(-0.866736 0.498767 7.56075e-05 -1 463.892 231.233)" fill="url(#paint27_linear_833_65859)" fill-opacity="0.5"/>
<g opacity="0.79" clip-path="url(#clip9_833_65859)">
<rect width="88.6412" height="53.7659" transform="matrix(-0.866737 -0.498765 7.56164e-05 1 458.626 180.219)" fill="#CACED3" fill-opacity="0.11"/>
<path d="M436.341 192.773C438.78 194.176 440.757 193.033 440.757 190.219C440.757 187.406 438.78 183.987 436.341 182.584C433.902 181.18 431.925 182.324 431.925 185.137C431.925 187.951 433.903 191.37 436.341 192.773Z" fill="url(#paint28_linear_833_65859)" fill-opacity="0.1"/>
<g opacity="0.58">
<rect width="11.4856" height="2.84405" transform="matrix(-0.866737 -0.498765 7.56164e-05 1 417.944 172.709)" fill="#929AA5"/>
<rect width="2.84462" height="2.84462" transform="matrix(-0.866737 -0.498765 7.56164e-05 1 417.944 179.709)" fill="#929AA5"/>
<rect width="11.7066" height="2.84462" transform="matrix(-0.866737 -0.498765 7.56164e-05 1 413.506 177.155)" fill="#929AA5"/>
<rect width="2.84462" height="2.84462" transform="matrix(-0.866737 -0.498765 -7.56164e-05 -1 401.388 173.026)" fill="#929AA5"/>
<rect width="2.84462" height="2.84462" transform="matrix(-0.866737 -0.498765 7.56164e-05 1 417.945 186.711)" fill="#929AA5"/>
<rect width="16.4988" height="2.84462" transform="matrix(-0.866737 -0.498765 7.56164e-05 1 412.52 183.589)" fill="#929AA5"/>
<rect width="2.84462" height="2.84462" transform="matrix(-0.866737 -0.498765 7.56164e-05 1 417.945 193.712)" fill="#929AA5"/>
<rect width="17.6367" height="2.84462" transform="matrix(-0.866737 -0.498765 7.56164e-05 1 413.507 191.158)" fill="#929AA5"/>
<rect width="2.84462" height="2.84462" transform="matrix(-0.866737 -0.498765 -7.56164e-05 -1 396.249 184.071)" fill="#929AA5"/>
</g>
<path opacity="0.58" d="M439.554 207.59L439.554 207.558L445.575 211.023L445.574 204.03C445.574 201.753 443.889 198.937 441.811 197.741L431.273 191.677C429.194 190.481 427.51 191.358 427.51 193.635L427.51 200.627L433.13 203.861L433.13 203.893L439.554 207.59Z" fill="#929AA5"/>
<path d="M436.341 192.773C438.78 194.176 440.757 193.033 440.757 190.219C440.756 187.406 438.779 183.987 436.341 182.584C433.902 181.18 431.925 182.324 431.925 185.137C431.925 187.951 433.903 191.37 436.341 192.773Z" fill="#F0B90B"/>
</g>
<rect opacity="0.55" width="6.14619" height="89.3508" transform="matrix(0.866737 -0.498765 -0.866775 -0.4987 458.634 180.172)" fill="#C0C6CF" fill-opacity="0.4"/>
<path opacity="0.74" d="M295.504 23.2711C295.504 16.9295 291.053 9.21784 285.561 6.04664C282.89 4.50441 280.465 4.32005 278.679 5.26701L278.664 5.24069L275.663 6.78929L276.294 8.00446C275.857 9.04558 275.617 10.3147 275.617 11.7871C275.617 18.1287 280.069 25.8403 285.561 29.0115C286.3 29.4385 287.021 29.7613 287.714 29.985L288.536 31.5668L291.914 30.0314C292.097 29.9613 292.275 29.8804 292.447 29.7891L292.794 29.631L292.775 29.5974C294.467 28.5157 295.504 26.333 295.504 23.2711Z" fill="#54E8B4"/>
<rect width="22.9649" height="22.9649" rx="11.4824" transform="matrix(-4.37114e-08 -1 0.865988 0.500065 272.856 24.6498)" fill="#FAFAFA"/>
<path fill-rule="evenodd" clip-rule="evenodd" d="M282.8 7.42691C288.292 10.5981 292.744 18.3097 292.744 24.6513C292.744 30.9929 288.292 33.563 282.8 30.3918C277.308 27.2206 272.856 19.509 272.856 13.1674C272.856 6.8258 277.308 4.2557 282.8 7.42691ZM276.971 15.6762L281.248 23.1607L288.286 19.0053L286.85 16.4968L281.248 19.8138L278.397 14.832L276.971 15.6762Z" fill="#02C076"/>
</g>
<defs>
<linearGradient id="paint0_linear_833_65859" x1="20.1947" y1="2.18478e-07" x2="7.83831" y2="75.7496" gradientUnits="userSpaceOnUse">
<stop stop-color="#474D57"/>
<stop offset="1" stop-color="#474D57" stop-opacity="0"/>
</linearGradient>
<linearGradient id="paint1_linear_833_65859" x1="235.454" y1="83.4796" x2="235.424" y2="99.4296" gradientUnits="userSpaceOnUse">
<stop stop-color="#FCEA9C"/>
<stop offset="1" stop-color="#FCEA9C" stop-opacity="0"/>
</linearGradient>
<linearGradient id="paint2_linear_833_65859" x1="21.1433" y1="50.3386" x2="-20.6134" y2="17.3986" gradientUnits="userSpaceOnUse">
<stop stop-color="#FCEA9C"/>
<stop offset="1" stop-color="#FCEA9C" stop-opacity="0"/>
</linearGradient>
<linearGradient id="paint3_linear_833_65859" x1="238.224" y1="50.9663" x2="242.169" y2="83.4829" gradientUnits="userSpaceOnUse">
<stop stop-color="#F0B90B"/>
<stop offset="1" stop-color="#F0B90B" stop-opacity="0"/>
</linearGradient>
<linearGradient id="paint4_linear_833_65859" x1="240.686" y1="83.1115" x2="242.215" y2="112.558" gradientUnits="userSpaceOnUse">
<stop stop-color="#F0B90B"/>
<stop offset="1" stop-color="#F0B90B" stop-opacity="0"/>
</linearGradient>
<linearGradient id="paint5_linear_833_65859" x1="283" y1="9.50009" x2="271.813" y2="97.0708" gradientUnits="userSpaceOnUse">
<stop stop-color="white" stop-opacity="0"/>
<stop offset="0.355338" stop-color="#FEFBEB" stop-opacity="0.10203"/>
<stop offset="0.66684" stop-color="#FFE577" stop-opacity="0.333544"/>
<stop offset="1" stop-color="#F8D33A"/>
</linearGradient>
<linearGradient id="paint6_linear_833_65859" x1="191.5" y1="1.50009" x2="179.337" y2="98.4745" gradientUnits="userSpaceOnUse">
<stop stop-color="white" stop-opacity="0"/>
<stop offset="0.317032" stop-color="#FEF9E3" stop-opacity="0.142627"/>
<stop offset="0.681953" stop-color="#FFE26B" stop-opacity="0.320205"/>
<stop offset="1" stop-color="#F8D33A"/>
</linearGradient>
<linearGradient id="paint7_linear_833_65859" x1="-6.10463" y1="-1.67499" x2="8.43532" y2="-5.09556" gradientUnits="userSpaceOnUse">
<stop stop-color="#CFD7E2"/>
<stop offset="1" stop-color="#76808F" stop-opacity="0"/>
</linearGradient>
<linearGradient id="paint8_linear_833_65859" x1="3.98892" y1="0" x2="3.98892" y2="9.58849" gradientUnits="userSpaceOnUse">
<stop stop-color="#5E6673"/>
<stop offset="1" stop-color="#5E6673" stop-opacity="0.8"/>
</linearGradient>
<linearGradient id="paint9_linear_833_65859" x1="4.02178" y1="0" x2="4.02178" y2="11.2688" gradientUnits="userSpaceOnUse">
<stop stop-color="#5E6673"/>
<stop offset="1" stop-color="#5E6673" stop-opacity="0.8"/>
</linearGradient>
<linearGradient id="paint10_linear_833_65859" x1="-7.64216" y1="-2.09686" x2="10.5599" y2="-6.37894" gradientUnits="userSpaceOnUse">
<stop stop-color="#CFD7E2"/>
<stop offset="1" stop-color="#76808F" stop-opacity="0"/>
</linearGradient>
<linearGradient id="paint11_linear_833_65859" x1="-6.10463" y1="-1.67499" x2="8.43532" y2="-5.09556" gradientUnits="userSpaceOnUse">
<stop stop-color="#CFD7E2"/>
<stop offset="1" stop-color="#76808F" stop-opacity="0"/>
</linearGradient>
<linearGradient id="paint12_linear_833_65859" x1="3.98892" y1="0" x2="3.98892" y2="9.58849" gradientUnits="userSpaceOnUse">
<stop stop-color="#5E6673"/>
<stop offset="1" stop-color="#5E6673" stop-opacity="0.8"/>
</linearGradient>
<linearGradient id="paint13_linear_833_65859" x1="44.0289" y1="60.5237" x2="48.4336" y2="68.1781" gradientUnits="userSpaceOnUse">
<stop stop-color="#76808F"/>
<stop offset="1" stop-color="#9DA3AC" stop-opacity="0.96"/>
</linearGradient>
<linearGradient id="paint14_linear_833_65859" x1="2.99309" y1="0" x2="2.99309" y2="54.0941" gradientUnits="userSpaceOnUse">
<stop stop-color="#5E6673"/>
<stop offset="1" stop-color="#5E6673" stop-opacity="0.8"/>
</linearGradient>
<linearGradient id="paint15_linear_833_65859" x1="44.0289" y1="60.5237" x2="48.4336" y2="68.1781" gradientUnits="userSpaceOnUse">
<stop stop-color="#76808F"/>
<stop offset="1" stop-color="#9DA3AC" stop-opacity="0.96"/>
</linearGradient>
<linearGradient id="paint16_linear_833_65859" x1="2.99309" y1="0" x2="2.99309" y2="54.0941" gradientUnits="userSpaceOnUse">
<stop stop-color="#5E6673"/>
<stop offset="1" stop-color="#5E6673" stop-opacity="0.8"/>
</linearGradient>
<linearGradient id="paint17_linear_833_65859" x1="27.6787" y1="152.87" x2="32.0834" y2="160.525" gradientUnits="userSpaceOnUse">
<stop stop-color="#76808F"/>
<stop offset="1" stop-color="#9DA3AC" stop-opacity="0.96"/>
</linearGradient>
<linearGradient id="paint18_linear_833_65859" x1="2.99309" y1="0" x2="2.99309" y2="54.0941" gradientUnits="userSpaceOnUse">
<stop stop-color="#5E6673"/>
<stop offset="1" stop-color="#5E6673" stop-opacity="0.8"/>
</linearGradient>
<linearGradient id="paint19_linear_833_65859" x1="27.6787" y1="152.87" x2="32.0834" y2="160.525" gradientUnits="userSpaceOnUse">
<stop stop-color="#76808F"/>
<stop offset="1" stop-color="#9DA3AC" stop-opacity="0.96"/>
</linearGradient>
<linearGradient id="paint20_linear_833_65859" x1="2.99309" y1="0" x2="2.99309" y2="54.0941" gradientUnits="userSpaceOnUse">
<stop stop-color="#5E6673"/>
<stop offset="1" stop-color="#5E6673" stop-opacity="0.8"/>
</linearGradient>
<linearGradient id="paint21_linear_833_65859" x1="360.39" y1="79.0117" x2="354.418" y2="55.8719" gradientUnits="userSpaceOnUse">
<stop stop-color="#F0B90B"/>
<stop offset="1" stop-color="#F8D33A"/>
</linearGradient>
<linearGradient id="paint22_linear_833_65859" x1="360.39" y1="79.0117" x2="354.418" y2="55.8718" gradientUnits="userSpaceOnUse">
<stop stop-color="#F0B90B"/>
<stop offset="1" stop-color="#F8D33A"/>
</linearGradient>
<linearGradient id="paint23_linear_833_65859" x1="57.7251" y1="0.99519" x2="43.6663" y2="71.9396" gradientUnits="userSpaceOnUse">
<stop stop-color="#FCEA9C"/>
<stop offset="1" stop-color="#FCEA9C" stop-opacity="0"/>
</linearGradient>
<linearGradient id="paint24_linear_833_65859" x1="360.39" y1="79.0117" x2="357.552" y2="46.0772" gradientUnits="userSpaceOnUse">
<stop stop-color="#F0B90B"/>
<stop offset="1" stop-color="#F8D33A"/>
</linearGradient>
<linearGradient id="paint25_linear_833_65859" x1="2.96613" y1="7.92341" x2="2.79865" y2="54.3976" gradientUnits="userSpaceOnUse">
<stop stop-color="#F8D33A"/>
<stop offset="1" stop-color="#F8D33A" stop-opacity="0"/>
</linearGradient>
<linearGradient id="paint26_linear_833_65859" x1="436.341" y1="182.584" x2="431.936" y2="190.238" gradientUnits="userSpaceOnUse">
<stop stop-color="#76808F"/>
<stop offset="1" stop-color="#9DA3AC" stop-opacity="0.96"/>
</linearGradient>
<linearGradient id="paint27_linear_833_65859" x1="2.99308" y1="0" x2="2.99308" y2="54.0941" gradientUnits="userSpaceOnUse">
<stop stop-color="#5E6673"/>
<stop offset="1" stop-color="#5E6673" stop-opacity="0.8"/>
</linearGradient>
<linearGradient id="paint28_linear_833_65859" x1="436.341" y1="182.584" x2="431.936" y2="190.238" gradientUnits="userSpaceOnUse">
<stop stop-color="#76808F"/>
<stop offset="1" stop-color="#9DA3AC" stop-opacity="0.96"/>
</linearGradient>
<clipPath id="clip0_833_65859">
<rect width="464" height="261" fill="white"/>
</clipPath>
<clipPath id="clip1_833_65859">
<rect width="88.6412" height="53.7659" fill="white" transform="matrix(0.866737 -0.498765 -7.56164e-05 1 21.7433 58.1594)"/>
</clipPath>
<clipPath id="clip2_833_65859">
<rect width="88.6412" height="53.7659" fill="white" transform="matrix(0.866737 -0.498765 -7.56164e-05 1 21.7433 58.1594)"/>
</clipPath>
<clipPath id="clip3_833_65859">
<rect width="88.6412" height="53.7659" fill="white" transform="matrix(0.866737 -0.498765 -7.56164e-05 1 5.39294 150.506)"/>
</clipPath>
<clipPath id="clip4_833_65859">
<rect width="88.6412" height="53.7659" fill="white" transform="matrix(0.866737 -0.498765 -7.56164e-05 1 5.39294 150.506)"/>
</clipPath>
<clipPath id="clip5_833_65859">
<rect width="92.1208" height="54.3952" fill="white" transform="matrix(-0.866737 -0.498765 7.56164e-05 1 408.584 64.7128)"/>
</clipPath>
<clipPath id="clip6_833_65859">
<rect width="92.1208" height="54.3952" fill="white" transform="matrix(-0.866737 -0.498765 7.56164e-05 1 408.584 64.7128)"/>
</clipPath>
<clipPath id="clip7_833_65859">
<rect width="92.1208" height="54.3956" fill="white" transform="matrix(-0.866737 -0.498765 7.56164e-05 1 408.584 64.7128)"/>
</clipPath>
<clipPath id="clip8_833_65859">
<rect width="88.6412" height="53.7659" fill="white" transform="matrix(-0.866737 -0.498765 7.56164e-05 1 458.626 180.219)"/>
</clipPath>
<clipPath id="clip9_833_65859">
<rect width="88.6412" height="53.7659" fill="white" transform="matrix(-0.866737 -0.498765 7.56164e-05 1 458.626 180.219)"/>
</clipPath>
</defs>
</svg>
